<mxfile host="app.diagrams.net" modified="2023-03-14T05:04:42.586Z" agent="5.0 (Windows NT 10.0; Win64; x64) AppleWebKit/537.36 (KHTML, like Gecko) Chrome/111.0.0.0 Safari/537.36" etag="ubQ5DlhbiyNF5cCONCKp" version="21.0.6" type="github">
  <diagram name="思路一" id="WuoP-sf7s7NeNEvTquBx">
    <mxGraphModel dx="1834" dy="774" grid="0" gridSize="10" guides="1" tooltips="1" connect="1" arrows="1" fold="1" page="0" pageScale="1" pageWidth="827" pageHeight="1169" math="0" shadow="0">
      <root>
        <mxCell id="0" />
        <mxCell id="1" parent="0" />
        <mxCell id="eCCthRVSD1cBOZ0yslOO-1" value="" style="shape=image;verticalLabelPosition=bottom;labelBackgroundColor=default;verticalAlign=top;aspect=fixed;imageAspect=0;image=data:image/png,iVBORw0KGgoAAAANSUhEUgAAAv0AAAF8CAYAAABcwgT0AAAgAElEQVR4nOzdd3xUVfr48c+dmt57gQRSKKGDKKDURUSxgAqiYkPA7vr7urvu+t3md1d3V11XBQEVLLgiCIiggIgoSO8lgZBAeq8zSabPvb8/YkICaYQJCeG8X6+8kpl759yTyczkuec+5zmSoigKgiAIgiAIgiB0W6rO7oAgCIIgCIIgCB1LBP2CIAiCIAiC0M2JoF8QBEEQBEEQujkR9AuCIAiCIAhCNyeCfkEQBEEQBEHo5kTQLwiCIAiCIAjdnAj6BUEQBEEQBKGbE0G/IAiCIAiCIHRzIugXBEEQBEEQhG5OBP2CIAiCIAiC0M2JoF8QBEEQBEEQujkR9AuCIAiCIAhCNyeCfkEQBEEQBEHo5kTQLwiCIAiCIAjdnAj6BUEQBEEQBKGbE0G/IAiCIAiCIHRzIugXBEEQBEEQhG5OBP2CIAiCIAiC0M2JoF8QBEEQBEEQujkR9AuCIAiCIAhCNyeCfkEQBEEQBEHo5kTQLwiCIAiCIAjdnAj6BUEQBEEQBKGbE0G/IAiCIAiCIHRzIugXBEEQBEEQhG5O09kdEARBEIRrXXp6Op9++ulltXH99ddzyy23uKhHgiB0NyLoFwRBEIROtnPnzstuY+/evURGRjJw4MAW96uurkZRlDa3q9FocHd3v9zuCYLQyUTQLwiCIAidKDc3l8zMTJe0tX79ekJCQggLC2tye0ZGBtu2bUOSpDa3qSgKs2fPxsPDwyV9FAShc4igXxAEQRA6kStG+es4HA5WrlzJ/PnzmxydN5vNhIeHExIa2uj+C0f+624risKplBRsNpsI+gXhKicm8gqCIAhCJykvL+f06dMubbOiooIvv/wSWZZb31lRcFYacH6zFefn63AeT0FRlEZfgiB0D2KkXxAEQRA6icPh6JB209PT2b59OxMnTmx2H0VRcBaVwHsfoa6783QajvRMpDturt9HEITuQQT9giAIgtBJQkJCGDp0KIcPH3Z52zt27CAyMpI+ffpctK0umDevWo9X3X1OGcXhQH34ONbRI1AH+HXJoD8zMxObzXZJ8xIEoauKj4+/YscSQb8gCIIgdKJbb72VoqIi8vLyXN72mjVrmD9/PkFBQRdtUxQFy6kzKAXFqPQ6rIXFKE4nblEROLNycPP37ZJBv6IoxMTEoNPpOrsrgnBVETn9giAIgtCJNBoNM2fOxNPT0+Vt22w2Vq5cidVqbXR/Xb6+HB+LrbQMS14BitMJgLmkFKlnFLIst21ewNXInseaxxfw34oLTmrKdvPpp9+TWtYxaVeC0JlE0C8IgiAInczX15d77rnHJSkrKpUKrVaLm5sbnp6e2Gw2Nm7c2GifuqDfY/YMrFHny3sqEpjm3I3Gx7t7B/3aUEKK9nDc3OA+2z6eum0lfWdOIjFQJEII3Y94VQuCIAhCFxAbG8vkyZPZsmULsbGxDBs2DI1Gg1qtRq1WExAQQE1NDWq1Gq1WS1BQEAaDAbVajYeHByqVClmWUakuHs/bvHkzO3fuJDAwEDgf9OsD/PFe/Dolm75HLi3DffRIghLj6wP+rpje4yoqSd3otm39EyzyfJSEB2/gvce28uFkryYfV1RURHV19ZXootBNhYeHd0oJXBH0C4IgCEIXMWrUKPLy8tDpdAwYMOCi7f7+/o1u+/r6NrrdVMDvcDiQJIlt27Yxfvx4gPoRfEVR0Lm5ET1jJBq1EbMlslHA352D/gs5S6vpN/NxnpmcTf+n9sHkpisfBQUF1Z88CUJ7qNXq1nfqACLoFwRBEIQu5I477uDLL7/k22+/xflLnv20adPqt3/xxRfMnDmz/vaHH37InXfeSWBgIHa7nUWLFnHLLbeQkJBAVVUVixcvrh+ZPnLkCPHx8Q3q8DsIC/0Wb28bkqTDYT9EXv4QDMao2pz/7pre4yzndPIRTqRXo4Rlc7d6DmvKX2Xssx/wk48H814a1exDOytgE4TLJSnX0mm8IAiCIFwFysvLWbx4cf0EXG9vbxYsWICXlxfHjh1jy5YtzJ8/H19fX06dOsVXX33FvHnzCAwMJD09nVWrVvHYY48RGhpKdnY2y5cvR5ZlvLy86NevH94+PiiKgrfXNiIizI2ObbOZSDl1C7KsQlEUiouKuOuuu/Dz8+uMp+IiGRkZREZGurR6j9VsRe+uB9mGTdahE0OiQjckJvIKgiAIQhcTEBDA3XffXX+7qqqKVatW4XQ6GTRoEElJSXzxxRc4HA769u3LiBEjWLlyJTabjbi4OMaMGcPKlSsxm8306NGDKVOmNGq/fpKusgOrNR27PZ+amh+pqtqIJFWi02Yiy3L9lYbuTu+ur/1BJQJ+ofsSQb8gCIIgdEEJCQn1OfgAWVlZbN26FYCbb74ZtVrNN998A8CECRPw9vZm/fr1ANx0002EhoayZs0aFEVh5MiRDBo0qL6tuqDfavPAZPqJ6upN2GxncTiKqK7ejMnshtPp7L7pPYJwDRJBvyAIgiB0UWPHjiUhIQGorfhRF4Sr1Woee+wxoqOjgdoJvHPmzGHw4MH1j501axYTJkyoLwM6ffp0Jk6snZxaN4pfUTEZp1Pb6JjFxYOx2wOvqZF+QbgWiKBfEARBELooSZKYMWMGAQEBxMXFMXXq1Ebbhw4d2uh2fHx8o9sRERGNbru5uQGcH8WXEkhNfZ6cnP4UF0VzJnUyxSWPoyiKGOkXhG5GZK4JgiAIQhfm5ubGfffdx/bt2zlx4gROpxNJkrBYLDidzvovh8PR5O2G99vtdsLCwhqV5dTq+mO29KPGVHtbpaoN+BtW75FlGZvN1uqxWjp2ex5ns9kICQlh+vTpnfxXEISrnwj6BUEQBKGD1QXQFwa6FwbkNpsNm81W/7PD4aj/bjKZ+PLLLy+rH15eXoSFhTUK6vND88gOzcapcuJj8qF3am9UDnWjOv0LFy7E4XAAoNFoGDlyJLt3774idfwLCgro06cP/fr16/BjCR3LbHNyMqeSE9mVJEX7cV2cWO/gShJBvyAIgtAtNBVUtxRkt2VE2m6343A46r9f+NXwMQ2/6kbG2xoUx8bGUlRUhMlkumibJEncdNNNGAwGlz5XsiyT759PTnQ2WpUWLVpsOhsn+p9gwMGBzS7ONWfOHHr27ImHh0f9xOKOFh4e3uJ2Z0Ya2T3iif2lhH7Vtm85duNUxriuqqfQDiVGC0cyKziaWcmRzApS842oVRKxIV68uyWNu6+P5oVb++CmFWsfXAki6BcEQRCaVBfAqtXq+gWJ2pqq0Zaf627b7fZmg+rmAuu6AL8ueG2Yey5JUpNfddvqNAxozy9WpVzxRamGDh3KtGnTyMrK4uOPP74o0J40aRJjxoyhX79+fPDBB9jt9ss+Zt1I/x6v3URQm/efZ8vDpJiI9oim0rMCb6NPk0H/vn376NmzJ2PGjCEvL4+UlJTL7k9LBgwYcNFKxBey73+bP+z5Hz6dHUXBhmeZePtpXjJPZUyH9kxoSFEU0ouqOZpZwZHMCo5kVJBXYSbAS8eQGH9uGRzOS3f2o2+kD1q1iuPZlfx+5TH2pu3itfsG0S/Kt/WDCJdFLM4lCILQiS41gK673dKIdUuj0021eWEAXRcQ1qkLmtsaWNdth/OBdcPvnRFYd2VBQUHMmzcPvV7P7t272bJlS6Pt3t7ePPnkk3h4eJCSksIXX3zR7mPVLc5lsVqRZZkVPT7hrM85JEnCrtSeTHirvLnv1H0EV4XUTuh1OBg7dix+fn6o1Wo0Gg2enp71bb777ruUlJS0u0+teeKJJwgLC6u/3eTiXCYj6TveZ/GKlaxKncDSD55i8IAehIlyJVfEP75OYcOhPIxmB71DvRgS48/gGH+GxPgRHejZ7OPMNievbzzFuv25zJ8Ux9wJvVGrpGb3b6uNh/NIL6xmwa/ixFWEBkTQLwhCt9dRgXVLKR8XPratgXVbg+i6n0UQ3T307duXmTNn1v+da2pq6q+wqNVqVKrz0eumTZvYu3dvu45TF/TXmEwoisJhr0Os77W+0T4B5gDmnZiPRG1fZKezxRV5S0tLWbp0af3qwa4UFxfHgw8+2Oi+80E/HHx3Pv/8qZrad4WDrANH0Q0dTmBhMLN/WMRMt2Yatuex5slXsP7zPWb7//I+M+3iL3fO4+Pq2az98Q8MFqlBbbLtZCG/++8x/m/mQG6ID8LHQ9v6gy6w83QJf1x1nMgAD16bPYioAI9296egwszNr/4IQEywJ3+fNZCk6K6xmnRnE+k9giC4TFsqdrQlp7o9+dR1t2VZrg/IL9SWwPrCcZALg+qOGidpLn9auDacOnWKn3/+mRtvvBGg0Uj6hSZPnkxBQQFZWVntPl7da3lA5UAKzxRyOPYwdq2dkLJgbjt3OxKN3wvl5eWsXr260XtNr9fzwAMPEBQUxPTp0/n888/b3Z/m1D0fTdPSM3wQox4fxnCPhqPDCqbD6ahbGuXXhhJStIdvzDD7l8whZ2koc749wZxnArl38284cPulB6/XGpPVwWvrTzFvYhw3D2p53kVLbuwTzLr/dyN/Wn2CB97dw+K5I+gT4dOutv72VTKjEoL495yhvPnNaeYs3Mu8ib15fGKcS64iXM1E0C8IXVTdaLAkSWg059+qnRVYt5QOcmEwLEkSKpWq2Vzq5lI/6trpqABYBNZCV7Zt2zbi4+PrU1mWLFlCTU1No/ff7bffzsCBA7n33ntZvHgxVVVV7TpW/XtWgUnGXzHqwGjMshk/be2IqELj90pAQACPP/44aWlpja5AeHl5AdCnTx/Gjh3LTz/9dJnPwnnR0dHExMS0sIdE8IzneR6QTWUUG9X4h8DptavIuWEGs1oZqVdJjdM+1D3iiMXOroA5vDS++YDfYrHUVzK61v1nyznctSruGR5MdXX1ZbWlAV6ZkcCbm87y8KK9/GtWP4bEXNoI/faUUvamlfHZE0Nx2sw896uejIz15m9fn+HHlCL+dGci0YHul9VPV3B3d6+fJ3UliaBfuKa1VO2j7ktRlCaD35aqfTQMpOvua+qxdce/MO3jwjQNtVrdrsC6pVSQjgyA6xb2EQSh7RRF4aOPPmL+/Pn4+/szf/588vLyGgXZdYtreXl5MWvWLJYtW3bJ7zWbzVb/GVP3OeCmcUOv6Ovva9gnuUH7Fy7+1dC4cePIz88nLS3tkvrTnDFj2j4N1/jFH/mtah4vVD7E4HdG8ModRazv9TJ3Bl7ayG710TXk3vMqM72b38dsNjdZZelak15sZvX+PF6b0Yua6vadfDbl8dHBuKudPP/ZSV66pQc39G7bBF+Tzcmbm9KYfV0IXiobBoMNgL7BahbNjuedH/KYs+QQz0+KYlxiyxPDO5pWqxVBv9A9ybLc4sizzWbDarXWB8t1X3W1qeu+Go5EN/z5wnYbjj5fOHLcnkBXp9N1ej51U//URWAtCN2P2Wxm5cqVzJ07F61WS2RkZLP7RkVFMXXqVDZs2NDm9h0OB2VlZZfcr7Kysvqc/m+//Raj0djoc3fChAnExMQwY8YMlixZQkVFxSUfo6Hg4GASExPbuLeCxSOJX/U+youjjPw1+T0WHF7EppamGDjLOZ18hBPp1Shh2dytnsPH25OIHL+dvtf9g80vfM/ymU3XkPf392+1mlB3J8sKL67dw7RhkUy5rq1/p7b77YxIeoRl8fcNp/jj3UncOTyq1ce8+lUK/l5uPDNtENoLcrsigUVxPVm1J5t/fH2KYX16tDt96GomJvJeA5pLAWkpJeRySuzZbDaKiopEGoUgCEI7DRo0qH4V2r1795KSktLo8zg2NpZbbrkFlUrF+vXrOXz4cIf2R6/XM2/ePIKCggA4cOAAKpWq/gqEXq8nISEBAJPJxJtvvnlZpUXvuusuBg8e3OS2pqv3nODTv75H+g2/4cWkE7z7Xi4T//YEI/RtO57VbEXv3sadBVbuzmLhd2lsePEm/Dw7bsbzt0fyeXnVcZ6dksDDY3s1u19yjoEHFu5h+YKRDI5p+YTsz1+e4HBGBV88Nxp33bVV2UcE/d2MxWJh0aJF1NTUXFLt6rrtIErsCYIgdAVTp05l5MiRAOTn52MwGNBoNPWBds+ePev3Xbp0KXl5eR3an4alRVtz/Phx1qxZ067j+Pr68txzzzWb/tBk0H8BuTCf4pAIUbKzA5QYLdzx+k5+M60vd45ofQT+cv2cWsILnxxmbL8QHp8QR0J449wrp6xw39u7SYr25Y8zklptz2xzMvM/uxgW68+f7h7QUd3uksTboZvZt28fNTU19WkuDV24DHzDJd/rUmysVmujZeDrRvObyjMXBEEQOs7mzZvrK/RERETQt29f4uPj6dWrV6OAH2DmzJktVvxxhdLSUtatW1d/u7CwkC1btvDNN9/w9ddfs27dOvbv3w/AwIEDueGGG9p1nFGjRrUx39nGd09O5E9H7BjWPETPwAACAmq/vMMf4Vtbuw4vtOKfG06RGO7NHcObTz1zpTGJwXz61A1Y7TL3vPUzTy47yMGz51PUPvs5k2KjhedvaVuakbtOzT/vH8zXh/LZeqKwo7rdJYmR/m7Ebrfzr3/9q0NqJQuCIAhXnpeXFy+++GL97XXr1jVK81Gr1dx1113o9XoyMjL45JNPOnyAZtKkSfWlNI8ePUppaWmjKxCjRo2q33f58uVkZma2uW0PDw9+/etftziK32ik3+HAodGgOreCZanTeOwWXyTAdHg/5wZeR5KYuehSu8+U8PTyQ6x+fjS9Q1uY7dxBzhVVs/ync3xzJJ++ET5MGRzO25vO8Od7BnDrkIhLauvTnRks+T6dL389hjC/zq/ocyWIoL8b2b9/P999951LlmgXBKH93N3dMZvNnd0NoZuIjo7mkUceqa/itW/fvkYVfcLCwurLfDa1oq+rSZLEAw88QFxcXKv7VldXs2TJEoxGY5vaHj9+POPGjWtxn4vTexQKX0vgOtNWsv4agwQo5aVU+AcRcG2XZXcpWVa4842dTEwK5bk2jqp3lCKDhU93ZvDJjkxGJQSxeO6IS25DURSeWnYQk83Jh/NHXhM1/EXQ303Isswbb7xx2XVyBUG4PHFxcUyZMoWlS5dis4n8AsE1RowYwW233damfVevXs3Jkyc7tD/u7u787ne/q7+9f//+RlXZVCoVY8eOBSA3N7dNpUW1Wi0vvPACHh4tr8baVE5/xbpZRE//gV4jYnBDwXDMk6crfuSZ9i/sek346Kdz3DI4glDf5pYuPm/z0QJeWXuSLb8fh5db11i4zGp3ote2fzJuWbWVu9/8mZk39GDBr5ovR9tdiAtf3cTJkydFWo8gdAHp6enk5+czffp0Vq5c2dndEbqJAwcO0KNHDwYOHAjA4cOHKS8vb5TqM3r0aAIDA7njjjsoLi6muLi4w/pjNpt577336kuLmkwmtm/f3mifw4cPM3/+fKKiorjlllvYuHFji20OHz681YC/OT59RvDIb+9k4igPVID54Dk8rq3CLJfswNky3vwmlQNny1n46PAW91UUhfd/SOe+0T27TMAPXFbADxDopefvswbx1LKDjIwPYkgrlX+uduo///nPf+7sTgiXb+XKldTU1HR2NwRBANLS0hg1ahTu7u5kZ2d3dneEbiItLY34+Hi8vb2RZZmvv/6a7Oxs8vLyKCgoYP/+/URGRhISEkLv3r05ePBgh5ZOrq6uprKyksTERFJTU8nNzW203WKxUFBQQExMDNu2bWtx9WCdTseMGTPqFx9rSWVlJT4+Po0m+6qCRzF1UhJ9EhNJTEwkafz1JIphzRb95cuT+HvqOJRRzo19QghpYbT/x5Ri1u7P5V/3D8atm5W5jA70oMpi58MfznH3yGg06u5b40ak93QDaWlpfPHFFyKXXxC6ED8/P+bNm8eaNWs4e/ZsZ3dH6CZ8fX2ZP38+x48f57vvvrto0q6bmxuPPPII27dv5/Tp0x3eH71eT69evaipqWk0mbfuZ41Gg1arRZKkRtsb7qNWq+nVqxe+vm1bebUtJTuFlh3PruShRXvZ8OJNLP4+nfwKM8sWjGx2/9nv7GZorD//c1vfK9jLK8did3LX6zu5dWgET9+c0Nnd6TAi6O8GlixZQn5+fmd3QxCEC/Tu3ZsZM2awdOlSKisrO7s716xLXaOk7ueWVvNWqWpHA11ZKUeSJFQqVf33usWvGv6sVqvx9PTEbrc3CqzVajVarRaNRlMfaNd9VVVVsXfvXpf1s64vGo0GWZZ57rnnOrxcaENNBf32gzs5nHQjI90AjBzacoLIyaMJ6/5zM9vlmeWH8HLT8Op9gyisNHPbP3fw5oNDuKlvyEX77k0r5allh9j80liCfVq/EnO12nm6hOc+PsSaX48hNsSrs7vTIcTFr6tcTk5Oh+ZtCoLQfmfPnmXPnj3cd999vP/++zgcjs7uUodxRWB94WKCdcHuhUFvU6PFdcFuw6C37vuFo8pt+bmlbXUBv6Io9SPcJSUllJSU1B//Utqr++pIPj4+fPfddwQEBDBmzJhGffTx8cFisdTfDgsLo7y8vP538fb2xmKx1N9u6MiRI7z11lv84Q9/6ND+N89O1jd/43fPLGFnr8EM0AJYSN1s5NmyQzwf0End6sLOFBjZcbqYtS+MASDMz50HxsTw1repjEkMRnVBFZsl285y14iobh3wA9zYJ5gJ/UN5ZW1yi1c9rmYi6L/K/fDDD906kBCEq93OnTuJjIzk9ttvZ+3atW1+XFuC6AsD6LrvdQF0w+0XBtFqtRpFUTCbzUiSVB8kXxhcXxhUNxxRvjCwbim4bSkAbup2XWDdlUmShJdX7YhgdHQ00dHRndyj5o0ePZqUlBQAhg0b1ur+wcHBjW43l2uvVqux2WwsXbqUefPmXX5HL5mWnrf+hl/vzafnkLsY6w6SpMHzzWGMaiHgV4o3s+izs5gCR/PsnMHoAexn+G5tJjptNW7jp3N9N53T+f4PZ5nQP7RRnf3Hxvdizf4c1h/M5a7rzr+Oj2RWcCyzgr/NHNgZXb3ifjOtL3e8vpP1B3O5Y3jHrzZ8pYn0nqtYSUkJ7733Xqtl0ARBaFrDYLouyKwLrJsbma773lRg3RydTse8efM4ePBgm9IsVCoVw4YNw8/P76LA+FJGjxvebnjCIFybZFnmnXfeoX///jidTpxOJ1OnTq3fvnHjRsaNG1d/IrN69Wquu+66+tV/P/74Y/r378/w4bWVXhYvXkxBQUH942+66SYmTpzY4b9Hczn9dkMBeWVmHLKM6eAJqmfcxagmC83Y+XZMf3atS2b8g0lsXnqa13tIyMm/5fYVj7By8ke8Kv0ffxvX/cZFM0tquPP1Hfz3mVH0i2o8h+KTHRl8siODjb8di9svVXGe/PAAgV56XrlGgn6A/+7KZMn3Z/n6xRvx9ehe80ZE0H8VW7VqFSkpKR1anUEQXKEuT7nhaHVrwXVL+dQXjnLXjbjWjTxfGCS3Ne2jPYH1zp072bt3b6vvw6CgIB577DGWLVtGSUlJq8+Zt7c3Tz/9dJuqmQhCWxmNRt5444362zqdjscff5yQkBCysrJYsWIFDz/8MJGRkeTn57N8+XLuv/9+YmJiKC4u5oMPPuCee+4hPj6e8vJylixZgsViqW/v0UcfrT9J6ChNBf2G1bcRdO9BYvsFogXMubH8vnAjc5taaFUp4NeqYfSz5jJ2npYZ0yycmKEFyvjitkhm1bxFzrYFRDVzsamsrOyqrZb37+/zqDA5+OvtF/+N7E6ZBSvSmdzfn5nDg0kvNvPC6nO8NzuOSH99J/S2c8iKwgurzxEb6MZzEyOb3Mdkc2KxywR4tq98aUhISKd8toug/yplMBj4z3/+I0b5hXoXBtYXjuw2DJQVRcHhcLj8hFGr1ZKQkIBer28UYDcXRLd1lPrC212J0Wjk3XffbdM6GQEBAZSXl7epXbVaTXR0NA8//LAYpRdcKjk5mVWrVtXfDggIYP78+bi5ubF371527drFggUL8PT05MiRI2zdupUFCxbg4+NDcnIyGzZsYN68eQQEBJCens6KFSvqP0skSeKll15Cr++4ILHJoH/l07wS8m9en1AbhDkz08mJjiOmyY+Lat4ISkCdk8MNs0J47eVi1o1QI597m9//dAf3583kLwnf8+W9TU/mtNlsV2VabUGlhbvf3seihwczqEfTlZK+O1HMaxvPsPbZkby28QxqlcTf7ul3hXva+U7nV/HYB4dZ+NBgBvc8/1wVVlpYuTeXlXvz8NCr+eGlMe1qX6/Xd8r/MhH0X6U2btzI4cOHRdDfQVrKp24YgF3KpERJkhpV4jCbzfXbdTrdRZP6VCpVk9U5msqpbilvurngedmyZS5fMVaj0dC7d29mz57t0na7uszMTD755BOXvx+1Wi3XX389kyZNcmm7V5LdIXMis5CsokqyiyvJKjaQVVz7c3SwL/fcmMS06xPxcr92RhK7gg0bNnDw4MH62wkJCcyePRtJkli7di0Gg4GHHnoIlUrFxo0byc/P59FHH0Wj0bB161bS0tKYO3cuOp2OHTt2sG3btvq2Llyt19WaDPo3P8N1T+wkpk84KsCWFchDh1Ywp6mRfqDq2+d46sRIwlJzmLv0Nl7SzmF1/nP8/v1IZt9wnD0eTzF/dPdK7fjbumTSi6pZ3sIkVUVRuO+d3fi4adl3tozVz48mIdznCvay63htfQr70stY9fxo0gqq+OinDLaeKGRAtC+3D4vkr2uTWf38aBIjrp7nRwT9VyGTycTrr78uAv52ujCPu2fPnnh6el4USF/OxMSrYVLimTNnWLlypctfRxqNhnHjxnHjjTe6tN2ubvfu3Wzbts3lI4AajYZ77rmHPn36uLTdK6HYaOGe9/ZyNKeSpFA3HNUVHD+VhsXWeE0Rd52GW0YkcO9NSdw2MhFPt+4VbHVVb7/9NmVlZfj4+NC7d28mTZpUn8+fkpJCfHw8Wm3tyJefDjMAACAASURBVHlubi5RUecnNhoMhkZ19e12O2VlZajVao4dO0ZeXh4PPfRQh/S7qaDfmbaY//0ilJtGeCChUHMoE+//WcCvWngpKQ4HikaDCrCarejd9SDbsMk6dN0snb+0ysqUV3/knYeHcUNCUIv77k8vY+7S/Qzu6ccnT91whXrY9dRYHEz71w5Kq6yoJJiYFMZDY2MZ2MMPgDkL9zAqIYgFv4rv5J62nQj6r0Jbtmxh3759lx2stWU0u7lJjB15aVOSJDw8PIiLi0On0zVZd1qr1aLT6eq/N9yvqUBcpEc07YcffmDXrl0dEqg+8MADxMbGurTdrm7lypWkpaW1+fnUaDRt2ler1fLEE08QGBh4uV28Yg5lVnDXwt3kVJgb3e+mVTEo3BOV1Ujy6TSMNY23e+i1TP3lBODW6xLwECcAHcbpdPL3v/+dXr16cf/997us3b1797Jp0yYmT57M6NGjXdZunaaCfjn3c2aPmI3hdROfDVjL0p+imPf0WALERz8Ar288xaFzFXz+7Kg27b9s+1nG9w/ttvXq2+poZgU7ThczfUQ0UYEejbYt//Ecm44WsOp517/GO4oI+q9CK1asIC0trT4nrGGJvUudxNiWUeyWRrQNBgNLlixx+e+o0WgYM2YM48ePd3nbwnmKovDpp5+SmZnp8hF/nU7H008/3eZVNq+0VEMu+0vP4KnWMyVqOB6ay08vsdvtvPfee5SXl7c6X0Kj0fD000+zatWqVhfXkyQJPz8/nnzyyatiFdLP9mYz96ODWBwtL1ylUUkMjPDCQ67h9JmzlFYaG2331GuZel3dCUAi7vr2TZoTznNUlaHSuaPS1wYwZWVlrF69mgkTJuB0OutTDx0OB06nE0VRsNls9dV+6u5v+POF9xmNxvrF6BYsWEB4eLhLf4eLg36FvMUvsWLESBJKpnLXFCuLx4yh/L/H+H2Pazvql2WFT3Zm8PamM/x7zlDG9rt48S2hfbJKapj2rx1seWkc4f7N5JF1MSLoFy7bzp07+fHHH10+WqxWq7nvvvuIj796Lp1djSwWCwsXLsRoNLa+8yWQJImgoCAWLFhw0YI+ne2jtO9ZlbkTALWkwl2t4/+GziHBt+lKDZeioqKCRYsWtWm+xMCBA5k0aRKLFy/GZDK1uO/VMF/C4ZT57ZcneHNrWrsePzDCCz+1lfT0c+SXNJ7w7KnXctvIRO69KYmp1yXgphMnAJfCaTJi3LsW48FvUOk88LtpFl6DJyOp1Bw+fJj169d3yHFVKhUvv/yySyctNjXSb9n1AYsrINAyif7Vv+Pm+RbeL/2KO71baKibK6gw84cvjpNeWMWf7k5iYlJYZ3ep27nj9R3MuqEn943u2IpVrqL+85///OfO7oRwdevZsyd5eXlUVla6tBqMoiicPn2apKQk3N2vjrPoq5FGoyE+Pp7Dhw83mnzsCjabjbKyMvr16zrVH3YWJbM0dTNORUZBwanIWGU7e0pOcUvkMHTqywsm3d3diYiIIDk5udX3Q1FREX5+fowcOZJjx461uK8syxgMhvp5KF1NWbWVuxbu4bN9Oe1uo6jKRpZRpkrjS5/43vTvFY6kOKk0VmN3yiRnFbNqx0n+s24PJzOLUKskYkP90aiv3JwZR2k5VRu2YPh0FWWvL6R84YdUfPgZxrXfYE1ORTYY0USEoXLrGhOTZZsZw951lH71Otbsk6DIKA4r5rOHqDm1C41vMNH9h9WvKOxqiqJw+PBhRo1qW1pJW1RWVuLj49PoRELTox8BJzby0ceL2JCVyP+seJuZ0V3/qlhH+fpQHs8sP0SPIA+WzB1B/2i/zu5St1RUaWH/2TJuH3b5A0ZXghjpF1zCZrOxaNEilwf+kiTh7+/Pk08+WT+hTOgYycnJrF27tkPy+2+++Wauu+46l7bbHmXWKh79+S0szotH4TWSmmGBcfx16AMuOdaPP/7Izp07W30+VSoVDz30EPn5+WzZsqXVdjUaDffffz+9evVyST9d4VhOJXct3E1GactXK9rMbsFDq0Gt96Z/lCeKEoCf1oxOqcZuqcJorKSgtILs4ko89BqmjezDvTclMWV4PPoOmoFpOXma8rffx7hqPUorV3EkD3d877+bwGfmoovrnHktitNO1ZHvMOxajWwytLivvkcS/hMfZuF/12MwtLxve/Xr14+ZM2e6pK3zI/1aqgrPUlh14f8cGyl7zzH0/mlEd70aCh2qssbGX9ecZFdqKf8zrQ/3XN+js7vUrR3PruShRXv56U8T8XHv+jGKGOkXXEKtVnfYaLHdbqeoqIikpCSXtis0FhISgtlsprCw0KV/Q1mWOXfuHL169er0/P7/pKwno7oIBQXZ4cBhtaE4nUgqFYoExeZKEn2jiPAIuOxj9ezZk+zsbAwGQ4snwoqikJaWxtSpU6mqqqK4uLjFdmVZ5tSpUwwcOLBLLNy16kAOt7+zm5Kqyyz/KjvBbECqKiYsIIzoqL4UVBYzMDqCcrOWaqceg9ObaikQu1sk+oA4wqL60TsmFlnSc+hcEat2pHAyqwS7w0GPYB/ULrgCoNhslP7t3+Q/8izWY8nQlrkvdgeWw8ep/PC/SG563EcMQbpCFbwU2UnNyR2UrP0HppSfUeytrx/hNBRTffQ7hiTEcKTYSkcMBZaUlODn5+eS/P7zI/0KB38zhqn/+Y6fPv4rv/n3Jg7s/Y4N67/iyw1Z9H/obvq6Xzs5/UaTnbvf2oUkSSx5fASjEoI7u0vdXoiPnlV7c4gM8CAhvOvnkomgX3AZDw8PQkNDXb5KsCzLVFZWotVqiY6Odlm7XZeCAkhc+X9WvXr1Ij09nerqapenap06dYrBgwd32kTUSms1r//8JdWbjFgPm3DqbSh6J7LdgcNiRVJJoFaRW1PKLVHDL3q8rMisy9rN2ykbOFiaRoxXKH765itbSJJEnz59OHbsWKsLd9ntdnJycrj77rs5c+ZMq6t9yrJMeno6Q4YM6bTFypyywh/WnuT5lcewOy/jtWKtgeoSMOTjptHSK/EG/AIiqLbUoFLMoAqEZt4LiiRhdmoxOj0wKv4YpSDSDB78nCUT4asmMcyjyce1lbOikqxb78O4aj3tioSdTmq27cS09xA+d01F6uCrlYqiULF9BZU/foxiufQVY52lWcQHuJFc0zEnk6mpqQwfPvyyPwPOB/06okfO5OHnn+GesGimLF3C3+c9yqOPPspUx1FO9Z/IMK9rJ+j/x9enqDI7+OSp6wnw6hrpZd2dJElkldaQmm9k8sDmT2gLK80cOFve6dWQrrELX0JHS0xMZPTo0S6fuOlwOPj+++/JzMx0abtdUxXg/CX0v7JUKhWzZ8/ukDkUVquVFStWdMr6ElU1Jl58ewlVXxqQi51QDfLP4NipoNTUPs/2GjNOm52zVQWcqrw4L31lxg6WpX/PuepC9pak8tz+JeTVlLZ4XL1ez4MPPtim1LTc3Fy+//57Zs2a1eoIvqIoVFRU8NVXX7XabkeoqLFx29s/89qm1PY14LRDVQkUp0F5JpK1irDoJBIHTMDdvXa0rKLawLDYEJRLPPn1coNDhaUMiLq8f67Oikqyb7sfy4Gjl9UOgGn7z+RMfxjZZG5958sgSRIeA8cjB8VhtDho7mSpKXZZotBoJXjIRCZPntwh/VMUhY8//ti1KaBBIQRJEgEx5ax/7RO2/PwzWz55iYfeOIa77toJ+I9lVbDuQC5/nNEf7RWc4yLA+P6h/Jxagr2FamV/XHWC744XXsFeNU2M9AsuFxsbS0ZGBlVVVR0yWjxo0KAOXeK9c9lRMOFAA6hRdcJov1arpVevXhw9etSlaT6KomCxWKiqqiIxMdFl7bZ2zA3bdvPC/y0iP6cUGv46ClADSjooMkiBIDvsqHQaSqxGJkUMrt+1xGLgr0c/x6GcP2FxKgqnDDlMbeKqQEOenp4EBQWRmpra6vOZn59PaGgogwcP5sSJEy3uK8sy5eXluLm5NVo0qaMl5xmY+MYO9mdUXNoDFRksRqgqAmMh2GpAceLmFUivvjfiFxBRv6ssy+SUFRAZEIbF0bYAxl0nkWOs4nRZFdF+Oh4ZGYqfR/tG1hVFIXfWPMy79rfr8U2xZ+Viz8nH544pLmuzKacXvYilJIfTqacoMtTg4eGJm7b5q0EOWSKruIJjp86glR34qmz0jI2l1OlGeXl5s49rL6vVis1mo3fv3u1uo6mJvOrIEQzT7mTJ6++x5qgbM/7yv9w+MATvayDudzhlnll+iElJYcwYKXL4r7RwPzeW/ZhBvyhfegZ5XrT9myP5rNqbzVsPDcXLrXPz/kXQL7hcXVrDkSNH2lS28FLIsszZs2cZMmRIl1zl9vLVBv12dIAGdScE/QDe3t74+PiQnp7u8vz+4uJifH19CQvr2PJxuw4l8+hv32DfsVSQVGg1OrTaZr4MOjTpOlApOHztlCtmrgtOIFBfu7z6msxdJFdmYzGZsJssOG12JLWKSruJCeGD8Na2fGUkODgYi8VCQUFBq89neno6I0eOxN3dnezs7Bb3lWWZjIyMKzZforjKyozF+0nJu4TJnnYz1JSCIR/MBvhlErWkUhMWPYCecSPQahufxFfWGIkJVGN2tm15eyd2jhZVUONwsPCunrx7ZxSB3m7tTn2q/GglFe980OI+6pAg/B+9H+/pt+I56SZ08b2wnc1AsTSfymU9eQq3gf3QJ8a1q19tkbbpUyxaL6KjY8FWw+m0NAxmO56enug15z8znYpEflkVR0+nIdktDL1+DKFhwcgBkXgGRzHi5uns378fu93ewtEunSzL9Se3QUEtrwzbnPNBv5PvnpzMJxGzGbr7MYbev5TDWYUU551i6/KTxL/0IEO6VrXgDvHxjgz2pZfz1kND0Wk6J93vWqZWqTidZ6Sg0nzROghGs51nlh9i/sQ4Rid2/hwLUb1H6DDFxcUsWbKkQ6rB9O/fn+nTp7u03c5id8pkVJoorrGiVpnRayqxqQLw1/kQ4+XR6B/1lbZ+/XqOHz/eIX/DuXPnXvakPlmRkZCaXHH5n+9/SWpWSZtXY1YUhdKqEipuKEHn6UFSSG/eGjkPq9PO/T/9i9KKUuQLAiA3by/uS5jAI/G/ar2vsszy5cvJy8trNcXJx8cHWZaprq5uU9/d3d156qmn8Pbu+IlkZ4uMxP12A+GBPlSanZhtzbw2zIbaYN9uuWiTm1cgPeJG1KfyXOhcUTbjEkPJrmz5ip5eCyeLKzE5HNzR34+Fd/XA85eBNHd393ZdEXRWVZMedx1yVdPPvSYqgpBXflebo39BbrpstmBctZ7i/30VZ2nTo+SaiFDiTu3usPz+na88gmHkTHSGAjyOfouPjw8lWafIyqsNtGMiwqg2WUjPzsFdrdBn4DA8dRKOvuPQJE1Czj9NkFbBe8gUrFYrr776qkuv2NbRarUsWLCgXYF/ozr9DgcOjQZ1+c9szxrO+CFuSIDp8H7ODbyOpGaCfqV4M4s+O4spcDTPzhnM+VdKFd+/9B+0r7zM2DacMJwpMJIQ3raT045QUGHmztd38pd7BjBlsGsXQRPa7pvDebzxTSrbXh7f6H/OK2tPcjyrkpXPjUat6vzLTiLoFzrUyZMnWbduXYcEjbfccgvDh7ecWtGV5VdZOF5s5ExZNQ5ZwWm14ijNxNe9DJtfIoo+COwKkd5uxAd6ER/giVcHlSNsjtPpZOnSpRQXF7u8KpOnpydPP/00Hh6XPtnS5rTzl6Ofc7AsDXe1nptC+3Nz5FD6+zeuX1+UmUyR08j7aZuwVNdObLw5dCg7SpMxO2tHZDWSmsmhQ/i64ABnnb8E9ZKEl58fjyZOpsBcwTfn9mCqqmqyLyEh4awa/ztUUusnZyaTiXfffbfVibqXSqVSERoayuOPP97hE3vNNgdDX/6K0wVGkFT4+Xjj7uZOQeUv5ToVBYwFYLo4/UdSqQmJ6k9YZPPpXQ6ng+ySc8SHx+NUmv4nqZKgzGwmp6qGEC8NX86JIym0cQDu5ubWrupG5Ys/puiF/21ymyY6kp5bvkAX03IKhTUllawpM5sN/CNXLMJn+m2X3Le22PnqfAy9RtWmrwWE4bbzMzzMJXgHR1B49jjZhcX4eLiR2H8gft7uKL6haIZOQwmIQmOqwGIoIVAL3kNq05CysrJYtmyZy/spSRK+vr48+eSTl3xy1tTiXJfGzrdj+rNrXTLjH0xi89LTvP7Lyr2GfZ/w7GNrmHJ4Pfc103zdCsRFBgt3vLmH9x4ZwpCYzqmD/8KK2on07zw0uPWdhQ5jNNuZ/NrPfDB3KEnRtVddT+YYmPvB4Ub31dFqtZ2SrXANXPgSOlNSUhLZ2dkcOnTIpYG/w+Fg06ZNhIeHExl5dSyKAWBzyqSUVHG8yEip2YbDbKbizGkqz57BUlqKu7sTe6SDMts5LCYN7j7+VMTEktUjhu06HeFeehICvUgI8MJb3/FvX7VazQMPPMC7776LxXLxiO3lsFgsfP755zzyyCOX/OH3zxNrOFaRgaIomBwWtuYf4YeCYwS5+XJPzBiuD+lDoN4bq9qHzaUnOV5tRHHUjq7PD0pisyGHM9Y8oLZK0gthI/io6HjtBFMARcFUXc3ytO+RAHMLQbqh2sCh0nRGBCfU37en+BQ/FBzj+uA+TGwwN8DDw4MHH3yQDz74wKXvB1mWKSkp4ZtvvuH22293WbtNcddpeGmkQqUcwcFiNV8fL6LAYECt1dMjxJ+inHOYmgj41W5e+IX1Iiy85fkclTVGru8VSrGpuYo9TlLKjFidTv5xaxRzRwSgksBprcFUmofFbCM4Lqndo9OVH3za5P0qP98mA35ZlpGkxleb9P0S6bHpCzJH39pkTf+KJZ90WNCPzQJIEBAKZblYgmKw9pmFJfsoXoW5jBo7GC+dA7t3KPINM9Gr1airSrBJEg7PAFSFZ0F7fuS6Z8+ejB07lp9++sml3VQUhaqqKr788kvuv//+y25PzviAu+48yjMH3mHIyY/58GgSTz06nIszrAGllK27qunnq6ZHWDpbDjh4vYcWynex1TKOu/uup6VrbBUVFfVX4aYm+fHXNSd5695YtOorO5K751wV+9LLeWdWLPn5+Vf02MLF+oW7s/FABgHqEJyywl/WZPKrvr4EqGvIz2/8PyQsLKxTFh0VQb/Q4aZMmUJeXh75+fkuHS12OBysWLGCp59+Gk/PJj/aO4+iAAr8MvpbabFzpNBAckkVVruDqtxsKk6fwpidCQ2eE61WS3iYF85qXwoqyzGcS8dwLh1JpcIzMorymF7kxMTyk7sH0T7uDAzxIS7As0MvG3p7e3P//ffz0UcfubTyjtPpJD8/n61bt3LzzTe3+XHbC46zp/gU1QYDyi/90WvtqHQy+U4rS1I38c6pr/HXeTEz4Hp0Dqk+4Acot1UTpPchtSoXSZKQFRmj3YS/zosK+/l/9bLdjqm6CkWWUVp43VrNZtZk7aoP+pembubr7L3YFSd7Sk6TYyrl4bhJ9fuHh4czbdo0NmzY0ObAX5KkVoNYh8PBsWPH6NGjB4MHd+yon7u7O47qSsYFw6+melPg8GdrWg3bkgtQVJ6E9PBH6zSRl18EihOtTxBT+vkhKyZSqsvx8Wp+HYSKGgOK6uIVh1USZBurKLNYmRTvwwf39MRXL6EoMqbibIpSj3Nw7cdE9htKcFxSuz5rHKXlWFPONLnNb869jQJ+u93OuHHjKC0txWq1Mn/+fF566aX67W79E/G5exqG/665qC3T3kMoNttF6UEuodWBfwiU5oLeHZwOlNJcTKGJWKKS8D7wKfYBt6EdNBlNZQEqswFFq0dTXY7D0x+nVyDQOI1twoQJnDt3jpyc9q+23BSn08m5c+fYsWMHN91002W0pFCwrYAJK//GBJ2Eaug9BP2/m1h480F+E9nEZ6PkTVQg1DgVKir8iOuhAmTSvljKyiNqsr9ci9eMTO6bFdPk0YKDgwkOrs3P/kNENHe8vpPtmTLzJ7U8V6PKbGf1vhwevDHmsivsmKwOlv93J/MmxXHDoI6bIyK03a3DJVbtyeFPsbF8siMDo1Xhf+8djncXWrRLTOQVOlzdxN7Dhw+7fFKY0+kkIyODIUOGtDl3+4pQZFCcZFdZ+CGzjO2ZpWQXlFB49Ai5P22j4lQy1sqK+trf7u56Bg/qQ1xcFN5eVdRIoST2jCIiNBCLxYqpxozNaKAqO5PS40epzsulotpMlkPDibIaTHYnPnoN7i1U6bgcvr6+6PV6MjMzXT6xt6CgoNE/0ZYoisLLBz+htLy4PhAP0ubyYC8VNwT6YjVuJ8MQiFNWCFSOkeDugZ/am73lWfWP7+/TA9nh5FjOaezVFhxmK6MjBpBTXUy+tTYdQ5IkVNgZ4XOU6/yNmKwFGJwhzfar2FKJSq0ms7qIT9O+x1Rdhb3GhN1m43R1AePDB+KjO5/GFBYWhtFobHPa1JQpUwgNDW016Kqr35+QkNCh+f0Z2dnUmGvTeWSzmZhnX2CIJYfpNyeRMCCBs6UmMivt6PwCGZoQzW0JGibEqIkPkDiYY0DSByM1kQ5ltdvw1VuwOH0avZ9rHDbOVFSiUyt8/Wg8z48Jwk0jYTOWUJmVwqHVy0gtMuF7x29xJP9A79E3o1KpLjn9w7RrP8aV6y7eIElELHsLtf/5FI4333yTkpISdu/ezaRJk3jiiSe47bbbGr2ONZHhVC7//OL2ZBmvaTejDQ+9pP7VPtQBitLk8weQveNrrHpfcPMET18oyoTIeFCpUSoK8as4h1tUPFovfxw+IahrykGlxu4fgba6DLmqDHetGn1440ByyJAh7Nmzx+Uld2VZJjs7m+joaPz9/dv0mIur90joLcfZcMBBuHcVR1f+Pxa8p2L2H+eQ1GSGl44BSdl8uKGSHNMAfjsvgHnqqTyxcRP3TptKRHIySS/PZ0AbPk61GhXRgR689vUppgwKx9ej6dec/ZcKO2v25xLp707fyMubeP/GN6cpMlh4ddagLpErLkCQt553tpxhaGwAf11zkj/c2Z+k6M5J+2pOdyx/InRBnp6ePPjggy6v3y/LMkVFRWzatMml7V4Ou1MmpbCc9ck5fJ9ZxLnsXLJ/+I7UlSsoOXIQR4NUEU9Pd4YM7kOfxFhSz2Tyw/aDZGZmcjI1h5+27+fEiTSiIkOZMP46+vSJRaerHTEwFRZQsHsnp1csJ/Xbb9i+9yjLj2TxRXIeKSVV2FsNJC+9qtL1119Pnz59OmQNhrVr11JSUtLqvj8Xp1BQUYQi154sSTgZ6Z+MzVmFyV5CjI8n4ZoUguWTTA0PIsjTjWgPH4K0WSiKgtNqJ7M0j0hdAIpDrj3pkhUqzFX4ye5Yy6tQnDKKojDcdz8Teo4lMWgwYyPcCNWm1S7kZbLiMFtrrwD8ctJmNZn5PO0bPk1ZhtlQjmyvHcGXHU5MBgMr0rdf9LtMnTqVkJCQNqU27du3jzFjxtCrV682PZ+ffvopJpOp1X3by71hrrxKhdpYjfuOffg89yIJJQf512RvPntkEL/qE8yoUDPDw2t/R41K4oH+EiVlZ5tst7LGQHxYUIOAXyHDYCS9wshLE8JJ+11/RkTWHttcVkDK1jVs/uh9nAGxxEx9FAIjqa6oTS1qT3qP9XRak/fr+sSji2189SE+Pp7Q0NqgPSkpCTc3N9LSGj/efdgg1CFNT1S1NXOs5iiyE1NlDuVZ+yjPPoClqrDp39FhB3dPcPeGslzQ6gEJDMXgX1sxy+kZAIqMpqoU2d0XyWZCbTVh9wlFsjf92SBJEs8999wl9bmtnE4nn3/+OZWVle1uQz9qLo/4fcvLj83lL5sC+dvB1dzbQlztPfU/fPz/7uW1Zb8lQdOf/5p2/7JFy62r1zSbz9+U8f1DGZ0YxP+tTW52n1fWJpNdZmL26J4s+/Ecsnzpr09FUdieXMSchXtYtSebP05PQtuJhR6ExsL93UkM9+bxpfsZ1NOPqUMiWn/QFSZG+oUrxtvbG29vb86ePevy0eKioiL8/f3r/wl3hkqLnb25FWw+W0xRhYHqggLyU45TdOgAhtzG+Zbe3p4MGBCPl5cHp05nkJdfjM1mR1EgMsJMdqU/6hoLdpudwqIyMjLz0Om0JCXFExUVitVqo6bGDIqCtbICw9k0yk8lU15hIMsKyQY71TYHXjoNnhdM/lWwI2ECfgkGLkFCQgInT57EbHbtIkOyLJOamsrQoUNbPKn4/b7lVFZV1AY7CiR5H2Bk5I3U2ErJMxyi5lwRfodUBJRXI2XlU5l2DrId2FMOEZheiV+xAa/iYgLLKjBnniGi1EBCXgnaynK8i0tQsjMIzi8jpLCCno5iHEEmjNY8ymrOYLFUU1jih8MqI1trg39JkpC0avQqM1ODkhkVGAj2n8k190BpUFUos7qQO3qNxk19PpJQqVT1V8BaS/OxWCwUFxczffp0kpOTW13hV5ZlsrKyGDx4cIdcASssKaZq8/d4bt2BIzIMjx/3IjmdyG56rIP6Uu3ticNUzmfHzch6P1JKHEiKkyAP8NZLuKlsZFS5o9E0HoYtqizCQx+EU5EoNZs5azAyJMqN7QsSmRjnCbIdSVU7/Go2mdm5/kt6P/seWtmOpHPHoPWjZs8aBt5cW9nrUifymnbsxvTjrovu18XF4vfQzEb39enTp37+xAcffMDu3bv5xz/+cdGk1Mrln+Msv3iOg+fkcbgPGdBqnxRFxlJVgLEwBVtNKSgyiuLEVlOGtaYUtdYddYOSsdl7NmONGgDl+eAVCKU5tYF/QATYLPgVpeAWHoMSPRCVzYTKVAE6D1BkJEXBLst4SI6LRvoBdDodUVFRHD9+vNV+XypZlklLS2Po0KGtTkZvqk6/nPExc5/K5Zlda3khqZQ9xzQMGRJBS7G7pDq/EopGe3mDGUNi/Hlr0xnC/dwuqubz/razrNmXwwfze9OObQAAIABJREFUr2NiUijvbztLVIAHcWFtuxpnd8isP5jLSyuP8dWBPMb2C+GfsweTENF5VYOEpp0rruZEjoHFc0c0e9WnM4mcfuGKGjp0KNnZ2Zw4ccLlE3vXr19PaGjoFQ/8swwmjhQYOFdpQlEUjFkZSKePoaoxYvT0Qmnwj8nPz5v4uB7UmCwcO5aKw9H4Urnk5sSgtaPzrECqVKDBwkT5+SXk55fg5qYnrnc0A5LiKSwsJf1sDlZr7aTg0hPHKD1xDLfAIPIS+3AwLpGoQF8GhPqQGOiFVi3hxIoaGxIO4NJyDbVaLQ8++CALFy50+RoM1dXVrFq1igceeKDZQDWnJBdFUZBtDhw1ViJDyiisOkGNrQSTvRy/3aFUOdVYZR1mWz52yYrsbcUjF/RKNU4/b+zVBjTuwbjZHHibrQRWmTAZywl298Ptl/KT7lVmtDlqshL2IKlqp12M63U7A8My2XjKk9Ka2lQfHzmbmb3cyKlKRZa9KKw+jpeqGK2jErPdC0mtQqXTYDNb+Pj0Fp4b2LjMrJeXV/18idbeD2lpaezfv59Zs2bx4Ycftrh/e+dLtJW7mxue3+9Cl3oWj537kRq8jlXGBlMgFYUfUmpXoSztGcBxgwZ/ycDISBWVjkLO2bxRfrngbLKaiQ7woNouk2moQqVysu7h3twU44HTaqKmIJ+ze3+g58ib8Y3oiYT0/9k77zgpy3Pvf58yfXZmdmd7X3Zh6b0jYsGOXYI9GmOJEmPOyZtzEk/ec2L6STGaWNIjKmrEiFFBVGwYRJHeloVtbK/T+1PeP4YqCzsLA+Kb/X4+8/nA7P3c89z3PPM8133d1/W7kM1WRElGMdkQ4hGiik5UM+z/aB1d1we16BGOsUjQjrNrMnLkSHbv3s3Xv/71fkOqtGMkgYuWgRckEX8HYU8TmtJ/Er0aD+Fr34rRmoU1axgGkw0SsaTB78gmuZmvJw3+aBDCyfoKuq4h+9pRnPkYYgEEJY7iLkP2dSCGesF+7Byp4cOHM2PGDD7++OMBz38w6LqO1+tl+fLlLFy4cLBHDy6m/xSQ77Kw+KLh/PzVGuaOzDlo8K3c3MYTb+/hsdunMny/kX/DnDL+8E4dF03IP+71qes6T69p5KkPGlA1nRvnlHH9rDIcJ1h0bohTzzcuqeaKKUWU9lOk60xgyOgf4rRz+eWX09bWRnd3d9oTe5csWcLixYtPS1b8nr4ga5s99Ebi6JqKZ08tPVs2EfN6yDdLWE0GFFFEFQSyspwMryrF5w+ycdMuVDU57qKifByODHY37UTOCyE743QkBGyZ3eguUL0mlF4LWtDAAa98NBpj+469bN+xl/z8bKZNHQOCQF1dM+3tyRCZaG8P7Ws/pGPdWlpLy9gzaixZZWWMzLEzJlcgz5ZA4sTm3uVyccMNN/DMM8+kPbG3sbGR9957j3PPPbffNtMcmRSJBtS4ApkQiWfQrmwGIGt3DnKXETdR3L1RwA5AM6s4YIq5wjGgh86GJo7QkNm9kxAc+R4its5yLAYfwVyZULwTTY8yq9iDTZsDAsTEGmKqGaMQxRvuAkFB1HO5NGcEAsnFniCKCAaJtratMP7o2hIlJSVcdNFFrFq1akDD//3336eoqIgFCxawfPny47ZVFIVPPvmE4uJixowZc9y2g8ViNqOUFGDaXQeHGfyComJb9T6qO5PE8AourID395lo7IuxqSmZL5FtN9GnO4lFQ1Tm+Nnrc5HvkNjTHaHFLxHVPXxjbh4PnpeHJOhEevbR01DDhpeewh9OkFs9BWdhMtTGqO3f8TBaIeYnEldRNA01EUcyDN7LJrv7jymP76lH9fqQXEfHi9TU1NDT08PZZ5/NX//6V2677baDf0s0t6J09B+2JjoG9vLGIz5iYR+SfGx5P13TUGJBdH3/71nXwZEL6MmQHtkEkUDS6HcXQx1otix0gxnZ14FusCLGe5EDPSjOAuhsGPC8Lr30UhoaGujq6hqw7WBQFIWamhrWrVvHzJkzB3GkQPZoF+0fbGCnmE3bWz/k2++5ecx+emPdb5xTzusb2/jV67v5/sJxbGr08F8vbOO/rh7DrBGHwrxuPqucpz9o5P1dXZwz+thOqqfXNPLk23v55qVJQ9J0inK2hkgfFqPE6OJTXyjxRBkK7xnitHMgrCHdMp6QNBybm5tPWVgDQLM/woo9nWxo9xGOJ+jbtYOmt97At6cWdb+spR0dgyAgFOVTWVGMlEiwffteurs9B+Nwb77pGm695VqmTR/P5Olj8Ca66PEdeogKAogWFTkriuSKgQBaTILDtMuDwTD7mjvo7OylsDCX8eNHYLdZ8ftDyV0EXSfm9eLdW0vf3j30xjU6DSLtwT5icQtuqwXxBOYpMzMTQRBobm5Oe6hWc3MzRUVFZGUdrfBykdzHrOwc5uTlMScvj7nZc3E1GJgszMTUYKO7o4dmOZde0YFBVzAyuOsrLJholnPxiTYytDBzy+dR5s8koyKHnb41hBO9zM+5iOtL5zA7O5csg4kt3ndwyS7uLP4uRdscXDvpTs7KLWRWdk7y5c5mpsvNBdl5BKzlmOSjvXRFRUV0d3fT19c34HzW1tZy3nnnoev6gDJ9mqZRW1vLqFGj0qpwFYqEaf7oY4y79iIcFlcuaBqi14flo43Y3v6QvHljOWuUnbG5ElZRoT0o4IuqNPQE2eeNYzNCZb6D1/f00hfTGVtg4517RrBgVAZKsIdASy2blz/L7g0fU/y1X+GP6uQ7jLiKhxEPh2nfsgbL5EvRoyG0fVvp+PvDVFfkUTb9PERJwmg0DkoOVsrKou83fzj6D4qClOPGOmPKwbf27NnDyy+/zOTJk7FarWzdupXNmzezaNGhMKDeXzxOZO0nR/cniuT98iFE6/GdE731HyCLOrGon1ioD4P5UILzgRh/EJEMBiSjDYPZwb51bxLLGQb+HsgqgK4GsNjBXYwQ6MHVsxtzXjEUjgJ05FAPmtkOogExHiKhc8zwnsOZOnUqa9euTXv9Dk3TaGxsPG6V6f7Ce+SS8ZTU/Z7vPvgbVjSXcsdvfsmdY5yntaa5KAiMLnbyk1d2ku80839f3MaNZ5Vx27wjc3HMRglvOM6KTW1cO6Ok375q2vx8+9kt/Oj68Vw+pQj5JNV+hhgChoz+IT4nTCYTpaWlbN26Na3VHnVdJxgMEo/HqaysTFu/kIzZX7m3i3829xGMq6iJOHWvvIRn966jKrXmO6yMKM3Fl5lF7a56upvaDxunzsIbL2HipFH874vf462Nr3HZjGuYO+48Vnz8934/W5B1JEccOSeMaFLQFRE9IXLA+6+qKt3dHhoaktrzY0ZXUVZWQDyhEAwmQxPUaJRgazOxvmbUmIe9YTvbPAl0dHKspkErQJSVldHS0oLX6037d1hTU8O4ceOO3rHx7jriv4IgUFA0guy8MnJKivHEBdZ2GQiKVrIK85kztYqCYWUpv5rIZG/ISEC0MW3iMGafN5PyiVMYnjEe9z4rUw1zmVhyzsHPzzUVMTfrMqa5zsUsW8kbNgLxOPHIEVsl5mN4oEeMGMGOHTsGzJc4oFh17bXX0tTUhN/vP257TdOoqakZMF9iMMTjcXYqUXSTEam7FyEeRziYXA2CqoGqohTmoVSUkmURGUMt5zf9lApDgJDooFtz0OYNY7Pb6Azp/GS+k0evHUaGSUSNR2j46G0+WPpH9ElXU1xciH3cbJprdpFviJNdOZp4OEzvnq1oZZPpXbeS8PqXmXfzPUy4+g40XaentxerxTIoBR/JYSf01nsorR1Hj3lvI66v3IiwP/b7gQceYNmyZSxevBiA559/HqPReLBSuOrz037Xv6FHjg7Nsc6dSdZdtwx4Pt6WTfjaNiMrHszOCnwdO1DUGIlQN9FABxnuShLhbmKhXuzZVRjMGexb/SIxew64iyAWAm8nlI8HXxcWIY69pw5j2WhMJjOqLRNRiSPGQiTcpYiJKHpPExaTaUCjXxAExo8fz7p16wYcx2DRNI2dO3cyceLEfgt39Wf06561/PGRV6lLGJHVXl5/6K+Yv3E300+zFHqOw4wvHOfRN2o5d3QeD149pl8H1PD8DB5ZWcvE8kyKs44sUBiJq9zzx/XMG53LHeem9zk2xL82Q0b/EJ8bLpcLo9F4SmQg29qSJedPpMR7f2zt9PPK7g76onEkAeyyjsss4CoqwN/nIx5IGl5ZWU7KywoREgl665qpN1lQg2GIxMjNdTNh+nAuvHIW0ydO45HlP6Isbxh3XvYNvME+/rDiUbzB/it4HuCg998dxZYjUFFWTk+n7wjvfygUobmlg47OXgoKchg1chh2uxW/P4iqgdEuIAWaafhoB4G+IN1mJ9v7wqiaTo7ViDwIz2h1dTVbt24dMLF0sBzwUE+ZMuWIB/uLO7bTk4jRFFGOenUgE7RnsnNLUp7TXVFI6XnT0UpKU37t643S2ZZMuqw6ZzIhR8bB/qOuMgLWvH4/O5XXRi9UF084pj63KIpUV1ezYcOGAcOmwuEwHo+HK6+8km3btg2YX6EoCq2trYwfPz4tO2CqprGzsZ5EdSXhi+YhevwYGpoRAF2W9i8AdJRhZcRH7jdalChy03uMMHg4R9/G2cJW7A4rlSX5fGOSQoE5QnlRcXIuJAPb3ngJyxX/Sebw8YgN6xGrptCxr4nsWBf5oyYTD4fx7KulftkjVJYXMPe+h3AVVxIKh+no7CSRSJCdnY3BMLj4Z9XjI/TOmqPe17w+Ius34bjmMgSDjKZprFy5Eo/Hw7PPPsuaNWtYsmQJLpcL1edn3+U3kahr7Pczsr5+J5ZpkwY8F1/7NlqVAnqFcjTvThxGBV0yYbRmYRAlIgY35EyFuB+7Mz/p6X9/ObHhsw6F9ESCICcXPhlV4zDX/hOtqBq5sBpDsBcAQYkhaCqKIxfN14W1H8nO/jCbzWRnZ7Nz584B2w4WTdOoq6tj8uTJR+3WHG3067T99tv8NmMqzl649LrZGB1j+fKi2bg/Bwf55PJMXDYj918y4pgeeptZptMX5d0dnVwxtfiIv/1k+U7aPBF+/eUpJ63nP8QQhzMU0z/E58qsWbNobm5m9+7daU/sXbZsGV/72tdwu90n1dfu3iDvNnZRZkuQa9aozFAJqwI1PpmoM5OzFl5GsKOLju076W1tZ1dNA1ZVITeRICGKiIkEBleUn/30QQC21m/g5Q+f4+b5d5HjzOWVtS/wSc3RiiH9owMCI0vGctP8r9LQvpfG2G9RPeZk7H9Y5oD3Px5PUFPTQA0NOBw2RowoRzDIeNUAktqNmpDoq9mJt34vwxZcxVpF49N2HxPzHEwrdGGSB44fNZlM3HrrrTzxxBNprcGg6zp+v5+XXnqJ66+//uD7G9qH7/+XsH8ujiTu6QA+AKAl4GJlw+Bi2ft8HUA9AJ+0l7NN6784T/IUhEOncFBhUj+6zWHvXzqAwe10Ornxxht5+umnBzT8d+zYQWFhIYsWLeLPf/7zcXdbVFWlqanpuPkSg8HymYRXpSgf3SAjJBQERSU+ogJjbQNC4LAkVlMyx0LVNCQgT/ByVfA54l37iGZfh8SR3k6TzUEsFgbZgKaqxFQNyZFFrGU7AAaLhfxRkxg+7zKyykaQUBQ6OjuJRCI4HQ5KSkoGrdMP4Ljucrof+iV6PwvZ8Lsf0nzt7RQ88b9cd911jB07lqVLlzJx4kQeffRRrFYrsdo62r76ANFPt/T/AQYDGVdcnPL5SIkAihajwzSBSKKFAqOGLOqEc2ZgFAVExUtMOOy3arJCyAexcDKGv30vIGAurkBsSOa/aG27iVdOBWsWxr4mNHMGmtGK7G1HMVr5bHGu4zFu3Dj27NnDli3HGO8JomkaPT09vPbaa1x55ZUDtBaw5BSQ3TeNOy9q53mGUbD2ezzd9e/8oOD0a9hbTTK3nl0xYLuvnDOMy3/+AVuaPEwoS+aTrN7ewfJPW3h28SwsxqEY/iHSy5Cnf4jPnREjRrBt2zai0f4VKk4UXddTkoEciLf3NjA9O0by/iuw0yfTGxMZ61IYlqHSExXpEJzIxcPQzVaivT0osSgGJYFneCZWRzPGzCBrd7yHxWhh8oiZjCmfwPratfx55WPs6xo4ca4gq5iqwmqGFRYzd9x5XDbjOl5dt4x/fPS3pPffqiC7o0jOpMf3s7H/sViCrq4+Ojv7MGc7GF4soCayCYeiyE4HeSOKkRU/CclGazDGrp4AWWYDmZaBjSar1Upubi41NTVp37Hxer0YDAZKSpJxrxs64giyEYPJjMFkQjaZkY0mZKMRSTYiGmS8O5MLKGfVZGz55Uiy3O9LlGRESUKUJARRQpREtGiIcOtuADLHnY1stiLsbyMZjMhGEwazBYPZgsliw2S1YbRYk+8ZzcnzMOw/v8PamG0OLBlO5pbbBsyhyMzMRBRF9u3bN+B8NjQ04PP56Os7/g7Rgfk8Xr7EYJBEkcaGBuKKgg5IPX1YPt2KoOmojgx6fvodwvNmEps6Hg54aUUZalcgIiKJ+xPTBRXFmoWePxFN0xg57FAoQ3ddDT7ZhTW3CBo3kygdj6exDmv7dspnnI9sNOIqKsfkyMTv99PR2QlAWWkphYWFA8o+HnNsTgeC1ULo7Q/6/XuisRnP438humkbOUVFzJs+nclFpSgbNtP57Yfo+o+HUNo6j9l/zve/TcbF56V0Lr72rfhDESKmUkQ1iDnRhd1iwGCyIIgmVJMbAR2CbVhdhUlP/+oXiTkLIbs4mcgb9EDZaDJ66hBsTkxtO9HyK1CjIczZxYCAFPaiuPIBEbobUgrvOZxRo0bR2tqa0nU4GDRNo7u7G4fDQUFBwcH3+wvvsYwspm/5WrIW34rxV/fw17xv8JPbpnwunv5UcVgNNHWH+GhPD5dOKqTDG+HeP23g3guGM39c/ud9ekP8f4igpzMYd4ghThCPx8Pjjz+edhlISZKorKzkpptuOuE+Xti0kT0+gcvLDXjjIp1RkTKbyr6QTFtEQhQg36xSYFUJKwI7PRJdO7fh73gdf3kutr42RP2Q8eZ25KCoCr7Q0drdn8VucbDonC8zpnwCff4e8jJNeAIefv+PP9LmbUc7xs9XV0H1mEn0WtAjh8IbdEAoyGR8XiPbtjhxFRWQf96lyGYzUqQLc+8niHE/scxxxJ0jmVacw9zS1HZK3nrrLdatW5f25GxJkrj11lspLy/ng8YQ69siKOnNHTwt5Nokbp+UWsVRgOeee449e/akvQKq0Wjk3nvvTbn66bF44okniEajFBYXoWkahqdexPZOcsHVvuTX/R5jqHsbdr2MLMrIkglVU4i6q9Cm3wvAFefNP7hA37Hq7+xRMsmfcQHK+0/T0tGJunkls2//NypmJ2VIY7EY3T09xONx3FlZFBUVpSVvQVdVmi78EpGP1p90X4djmTGFsreXIaS4INm34Vka/CbiCQFBi2CRVYrscSwZWcRtVciSTMLgQuvZSm7JOKzOYtb84HZ8M64HT0fyB9++B3NhObYsN2QVkPH6L9FHzyJUOYc8xY/VagMlgW6yoTjySLTsJNugkzEp9d2IAzz88MP4/f60J/fKssxXv/rVg4Z/Q0MDRUVFJ7STc6ZR1xngml99yPP3z+bnr9ZglEWeuGPqmVVhfoj/bziD18BD/CuRmZnJ9ddff8LeuWOhqir19fV88EH/XrtU2O6BqKrQEU6w26sxxZ1gb8BAa1hipDPBtaVh5uTG6IuJ7AlIlDtVrji/mjmXfpOcSAFC/MifWa+/OyWDH+DuBd9EEmU+rVmLy+6irbeBts5aAkEPwnF0KQQJ5OwolmoPphF9SFkREHUEIK6Apuq4qkdTdN587L5PMfd8gmZ0ECpeQLDkcuRwC1nbf8am939LNJGaET9//nyKi4tPyXe4dOlS/H4/s0qsGL5gJecFQBbhwkr7oI679tprcTgcaX/4JxIJlixZctLhWOPGJQtLNdTV09TQSGDhAoLP/IauXx9789iSPYyEphJJRIkkgih6HOKHQoAShy0YjTYHSqCPri0fsffN5ykWPVzz86VUzL4ITdPo7eujdb96UVVVFWVlZWlLVBYkicLf/xLBZh24cap9Wi0U/vHhAQ1+JRZE1w4t9ORYD4IWI2EqwKAfqhegiWYU2YYh4QVdOxRqJhuhrx0QIDMP1ASWrOykVv/eDQBIwV4MwR56TG5IxNCNZhSbG9nfiaCf+CLz/vvvJz8/f1CKSalwOqpMA6B38cZjD/PYz5ewOb1pSsekMi+Dc0fnseiRtdR3BvnRovTk3QwxRH8MGf1DnDFUVlYyb968tD24D6AoCu+99x719fUndLwmmukI66xpV2gORKjxqtT7VSa54+SaNXZ4DbzZZibfrnB9VYiJ2TFqvQbaY1aKxi5g5MxvYbPORE8Mzis1dcQscpx5FLiLyHHls3rTSnKcWazZ9gaSph8hlXg8JKuCqTSAZUwPhuIAglEjnH8lxWefi2B2EM07C7QE7s3/jWPvXzAEGwnlX8CmksXowVY6QqntvgiCwPXXX4/Vmj5D6QDxeJynn34aQVe5YZwTl1lEPsOfiwIgCpBlSXr4ixyDSyg1Go3ceuutaf89HJ4vcTKcddZZLF68mAULFlBcXExnZyd1e+vwxmLYRBlzP9Kk/i0vYjYYsJucSIKBeCKBHg/B/uJTscSha81kdxBY9TjK6z/jwsXf5ayvfR+Ly004HKa5pQWfz0dubi6jR43C0U9RrJPFWFlO+VvLkAtOvtifXJBH2Rt/w1h57BwRJR7G17EDT8sG+prXEw0k5Xt1QSJhykOOdWMWDoVAyooPBAlFtiNqcQ5a/bEoSBK4cqG3BbMeR8zMg7oNkJeMM1czcpECXYieVvyKhhgNADqKPRsxGuREkSSJm266qV/FnZMlEomwdOnStO8iHE5i5TXc33Yzd01ayqIH952yz/ksd52fDGt76EvjcGekf+6GGOIAQ+E9Q5xxPPPMM9TX15+SsIb77rsPl8s1qONe39vB+qYWdvtUdGBBmYwnoTEjX8YkSWzoNlFg09B1jXBMozliQQcKjQHKTB62hAoIa0Y0TaWndg3+no8QjMfPX5AlA1++6GtMqpxGp6cNSZTRUVm1/lF6O1vwekx49DhKP8msx0NXDORUXIOzYPTRnxlowLn3T0gJP0FjHu9l3kJWvJn/uupLFGYMXD30AJ2dnfz+979Pe5iPLMuMHTuWq6++GkXT+bQ1wq6eGN0hFVFI5symGvbTfxrwyXHAo6/qSWN/ZLaJSQVmCjNOrnrm7t27eeGFF1L6PRQXF3P22Wfz3HPPDSijKssy559/PrNnzz6p8ztAb28vmzdvZvv27QdlR/MLCrC5nARi+6/3jx/H0L0Ds+xI5pwIGgEUxLP/A82aw1lTppG7P/He09ZM09oVjL3iNmSjCVVV6e3tJRgKYbFYKCstPSULzM+SaO2g+brbiW3ZcULHm6dOoPj5P2Ao7D9GW1PihDxNRP1H11xQlRhN3UECwSiibMBti+MkjMWRRcBUjs1kRpEzUPp2klc0BqurhDU/vhPflGuhtwXMdjK3vII4Zi4UjQBEMlY/AVWTCI67FHPzZgzBHrKqpyKYM1CsLhJdTWSL8RMK7zlAc3NzSlWmB4ssy0ybNo3q6upTEN6j0/5NkSmjY7TMuwvDtZejbru235Z+vz/tOWiRuDqUuPsvxAH1wtPNkHrPEGccCxcu5LHHHsPn86W130QiwdNPP80999wzKBm/WUVZbG5pZYJbJqHB2y0Kt42RUXWNl3YFOScvRr6ewK+a2RfLJ9sQZqKtA7sUZ42/lLCW/GGLokTuyHPI0efRV7cOb/uHYDraq1aeV8mtF95NIBJg6Tt/QtM0gtEAOxs3UZyTwIqEpKgg6qRaeUbXBCzW0ZSOmIdq7t9zqWRU0Db8Pop3/hRLvJcMpZsRobVYDTekPFcAeXl5XHXVVSxfvjztikzbt2+npKSEqVOnMrPEyswSK4qm0xlUaAsoNPsStAcVgnENSTy0lanpSWPcZhDIscnk2SRAIJzQCCc0vFENb1RF0+GAQt6BqVW05HuZZokcm4TdKBKMa4TiOoqmI4sCRkkgy5L8e55dxm2R0rZFX11dzZw5c1i7du2A89nW1obFYmH+/Pm89dZbx22rKApvv/02hYWFlJcfR6UoRdxuN+effz7nnHMOtbW1bN68maamJmhvx2q1kl9URNjs3L/iSqpQoQsQDybDU4D4YSFHmYUlZF53N7quEwgG6enpAaCwoIC8vLzTFgJhKMqn/K1ldP7HQ3ifegFS9TQbDGTeeTO5P/wOorn/RbOqxOlr2YKuhPodjySbKM83UdcWIGZ0IUfXH1RBikRCGO25GBJ+NDXGwWWsricNfosdc1YOoqpAcbIQF/uS0ppiPISpo4ZoySTknasI9bRhGn02Bn8najQA1pPzNg+myvRgUBSF9evXYzKZKCoqSlu/SQQyit0QUtE9HlxVpcdsKUnSoKVgByLd/Q1xZvN5hXANGf1DnHEckIF88skn0y4D6fV6Wb58OQsXLkz5uCyLEYPRQpYYJc+SDCt5q0mlwimQbdYYnqGyutNGWyKTee4eSsxJQ35rMI+exOFVUHWKjH5cUpQdVTNxV83C27iZvpb30I0eZElmwczrmDtuPq+vW8a7m1ehH+GP1jFIGnoCJEVFT8FJoOtgEIsoGH8tRqsbp38LTs97eOxj8Nmq0cVDD5qecIxanwGXlMU+63jGBN5FFYxYTqD0+7hx49i3bx8bN25M+0N/5cqVFBQUHHzoy6JAkcNAkcPAtKJkJZ64qtMdUggnNEyyiEkScJlFTPLxIxr9MZVQXEPVQdWSs59lkXCYPl8P3HnnnUdLSwtNTU3H9fhrmsYLL7zAPffcQ2tr64D66QfyJRYvXozD4UjLuUqSxKhRoxg1ahQej4ctW7awbdvADTp+AAAgAElEQVQ26vfswRZScAIaGuLBJZkOif3hPfEjA6kTiQTdPT1Eo1HsdjulJSWYj2FAn0pEu42Cx36G+1v3sm/BzSQamo7b3jR+NCXL/oKhuOC47eKhbrSYh0iwF8loxWw9tAupaxrRQDuIZmSTA2N83yEJWEAItaG5CkgYXEfG9CcSYHGA2YalvQYsGaAp0LoHKiZA7fsorkLQwdS+EyWzmHjLLoylY0k48xE66oGTDzGZPn06zc3N7Ny5M+33gDVr1lBdXU1hYWHa+gWw37WEhfc9ygttbr79synHbGez2dJa4XqIIU4XQ5KdQ5yRWK1WcnJyTokMZF9fH2azmeLi4oEP2I/DZGTZ7m4mZ8vYjQIxFbb3xOmMSszJM/GPFplri7wUWRIIgkhH3MamYO7B40tNXmZktJBrCLMhVIS23+BxZ2ViLzkLs7kCKRxi1php/GHFI2xv3NzPWQjkuBRiEQF84DMKRxgBn0VSnOQNX0TO8AuQDMkwiIgpH3OkBbdnHS7/VgRdIWrIpsEfp8EXwh1rxGsooNUyign+N9jhvpLLx49NeZ4Op6qqitraWkKhUFor9mqaxq5du5g0adIxt0clUcBhknBbZZzmpHdeTiEB2CSLZJiSRr7LnHwNtFA4HQiCwMiRI9m8efOAhdDi8TjNzc1cd9111NbWDpj8eKAI0qRJk9KegGmxWCgvL2fatGnk5ubi6dpHom0joqghiiAIIjElilg4Ed2Wi8vhJDfLjaZp+Hw+Oru60DSNkuJiiouLP3dvqJTpQlcUQquPLwyQ+8PvYDtrxoD9xQKdePeswmg0g2gm0F2LZMwg6m9FifoxGC3oCT8COjGTGxEdMwkMJgteMReDGsJosqHEA9gzcjBYnOxbt4pY0WjMvlZMpcOh5iOwOqFqMvh7MDVvRbTaCA8/Cznch6G7ATUjG1VVsVgzSOhgRRmUZOexSLXK9GDRdZ3a2tq0VpkGwDScS66ayaj5V3N29hmeNDTEECfAkNE/xBlLTk4OsViM9vb2tBv+DQ0NDBs2DKfTmdIxeTYzGzr89IRjRFWYkWMgkfBzeWGQLX4HWzw6vXGJKW4IKhLPNDmwGIxkyTFmOVoYbvEiCfCBv4yIZkBEY6y1kypzH42xTAxWF5a8cezui+Ht6iYR7QPxaI+u06YQiQgYPRpe6zEedqqJzPwLKRx9OVXet1ElC3HjIV32oKUc2bMbwj0YAo1YezcQiYXxCRmc3fsUuiASMOQSE21YS+dybnnOCc3zAUN148aNad2xgaSHuqGhgUmTJv3LKF3IskxVVRWbNm0a8Pfg9/tJJBJcfPHFbNmyZcB8gFgshsfjYdSoUek85YMIgkB2djbjZ11EwdRr6PaE8HbuQdTDaLqG7B6FNa8Kk9lEpsNJR2cnoVAIp9PJ8KoqMjIyzpjv2VhZTt9v/3TMMB/RkUHhk79ASGGBEg/30dPdQrswDCFQi9maRdTfgsGWj4BG3FENJjdqIkbM4MIc2IVRNmEwWQjHNUKGfBxGFT3UgdVZgMHspKtxD46y0Rhc7qQK0J4NMOc68LRDXzumngZEVw6CEiNWOBbZ14YYCxAom45JUxBiESyimhajfzBVpgeLqqpprTJ9EEHkCyYQNsQQKTNk9A9xRlNRUUF9fT3BYDDt3uKdO3cyceLElJUmxuY6eKWul72+ONNyDHSHo0zJUvDFEnzSZ6IjKqLqAhs9Mnt9KjNcfZzt9mCTNQRBZGMwn66EDacUYa6jnnyjn6BqYF/8kEEuyiYy8kaSWXwWgu4i5utFE8IHHfoWk0okJmLxJvDaDnm5dU3AIBWTVTKf/OqrsWaWgihjizSR412HLdxAQnYkQwEEkZC1HLV5HfFoiEQsgiHqIVdpwKl2Y1M97Mw4ly5zFWeXuhmXm9rCqD+MRiMVFRVs2bIlrQs3XdeJRCKEQiFGjBiRtn7PdGw2G263m9ra2gHns7W1laKiIsaNG8f27duP21bTNHp7e7HZbGkPmfgsdqebkTMvZfxli4lZCujrbscXFegKGjCKEkajEVEUKSsro7CgIO0SsCeLaLMS21lLfFdtv3933X4DGQsuHLCfWCxOX3crMW8dMc1C0FiOHuvDmTMCMd6LXjgPk6CiJYIIgBbYB+iYJBGDyUIkFgNdQ7AWIEbaES0FdHujGIpHYrJmYLG5kOJRlN5WdJsT/D1QNRlT7T9Ry8aRcBZg7K5DN1owmJ1YsivQTQ40axYxOQOT1YbBcPJedLPZTElJCdu2bUvrPVzXdQKBAKqqUlExcPXbIYYYYsjoH+IM54C3eNOmTWkv3HUgrGHy5MkphTXYDDJnlbjZ3OnnndYwHVGZaW6B8gyR9ohAR1RkVEaIqKJhlUWuLUkgCiKCIFIXtrEr7KZA9jLTVo9ZSICu41EstCUOFUkaaemiV7GCIGJxFpBZMgObaxxKKIEajRNXEoQTIjFNQhEdyFIOztyzKBi9iPIMIxkmM3HTobAiRInM6F6MepjM8G5s0WZ6pTy2B0TaNQcZnRuJx2LUu8+iOpYsRNRmHkmLdRx2o8z90yoxyydndDkcDux2O3V1dWnfsens7CQzM5O8vJOXVfyikJubSygUorOzc8D53Lt3L7Nnz8ZmsyWTao+DpmnU19dTVVWVtvj+4yGKEkXDJzLhwtsZNeNCLBYLgWCQ4cOHUzlsGLbToMxzokhZLnzP9i95WvD4z5FzswfsY8v2OmRCqIEmInI+umTCFO/AmpGNoIUQ7MUgiBD1IMlmVPtodC2OUQ1iMFnoEwuQ1SCapoKllIhqRP3M9SBbHZiHT0PUNZS8CmjegaljN5LZRLR0ErLFhSW7HLFgFIJ0aGdCEw34g2EisRhGgwH5JO8Bg6kyPRg0TaO1tZWCggLc7tSKCA4xxL8yn3+w6hBDDIDFYuGWW25Ju165pmn09PTw2muvpXyM02TgB/NGcVZJLr6EwJ/rLYiihRk5MmMcEc7NCXBNkZdgQmOT14ggSngTMk/WijgS9Uw17UbUomhqHE2NE1IOPUyrTD2MtnRRavQe8ZkmezbFYy6jYtY3KJr8fYZNf4jC839I5Zz/Q9n0u8gqn4koGkCQKepeSXHHciQ1GUMbsJSDwYosSciShFPpZGTvcoRQCzNCr9NUdAG12echm5IP/E7TMDZkXolFlvju7BG4zOmJoZ4yZQpjx449JTUYXnnlFTo7O9Pa75nOxRdfTEFBwYCLVUVReO6555gxYwZVVQOHayiKwjPPPEMoFBqwbTpxOBzMnj2bLy1cSFlpacrXidbwJJdUXMRjdYMLHVF7N7H0wauZcOmvqT8BG9R69iwMw8qOet8yfRLmsSNT6sPjC/LyGx+DIKAaHMhxLwc0owRBRFLDaKIZTUh+x5JkwJg1gUTWdBTRhjHeTcRSitcbpafLgyT0Pwdq0EPClg09raDuT6h1l+M02bBmlyFYj12ZORyJ0dzeRWdvasUEj8fcuXOpqqpK+86Noij87W9/o6+vL639DkyC1pfu5J6lntTkfyObefKOuYy68AkaU73mOp7jlnGjuOjXx0/IB0Dv5HfzJEwWE8L0X6XQeYLaV//K009+nyc+HqA2Q6KVl+68h6Ueff9/X+LOe5biOdbAj2gfYfOTdzB31IU8cayBf6b/gcd9+NzrdP5uHpLJgkmYzq+a+zupI7+rRO2r/PXpJ/n+Ex/T78jD/+T7F45h2OwfsTnez/kN0D6y+UnumDuKC59o5EwrHj9k9A/xhSA/P58rrrjilBiNW7duZdOmTSkfY5Il7plSwX/OHkFXXOa3tSKlGSbMgoKaiIES46aiDl5olGgOSyxvMeCQ4szNaEZTo6jKoVdQTY4nT/Yz1tKKrqtUmY80YM16mOnae0dVyszUuzHqh7SiE7IDURRwxJqo6HgeU7wXBAmffTSyLB18BSQH0/uWYdX8jE5spDt/DqpgoMtYwUdZi7AYTXz/7JGMzE5vwaPLL78ct9ud9thsRVFYsmRJ2pMFz2REUeSGG25IScnG5/OxbNkyrrnmGjIzj23gHSAajfLss8+m5JHVWh/nfJOAIOx/GcbyvY0Kes+fudR8+Psj+c769Gq2A4gV97CyYRX3VQ7GkFTZ/ecHuO+Xr1DjP7FHsiCKuG4/WsrWdfuNKfchiRIZNjMIRkQlmLT3jft3NwQZXZCQ1BCaZEVRFCKRCJFIhLBqoUcfhioXIAdbSUhOXnxzGytWbyESisP+4lqqv4dATwdbWsL85eWPAQG5cgryhfcij7kQ0TJw2J5BlgmEogRC6dGkP1VVpg9U7E33bvDxMZCX28lHW1O77+hqBTf9cTXf1V7mk5R+CnE+/MGfcDz6Lq8/cHRdlaPQEpy/JEbM9zy3Txg3cPvwn7jlF1YWfXUOr9z4veO3NeSR2/kRB4ZqyMul86OtHHPkh7fXVSpu+iOrv6vx8rEGfkT/qYz78LnXSJy/hFjMx/O3T2BcQX/X1uHtw/zpll9gXfRV5rxyI9+rO/oeoPbkceuKbaye8AvufCNx1PiP3z6OWnETf1z9XbSXPyH9d72TY8joH+ILw4QJE5g0adIpMfxfe+012tvbB3Xc9MJMHr5gHAZTBk/UJNjky2B1pwU1HsSh+ygyhXl8t8Q8txeDJLLLb0RToke8OqMSFiHGZEsdupZAUxPYCZIhHrq7VGubycBHmb7niM+v1jYzVXsfg55Uc1Fl+0GPvlUPUdW9DDG4j3diI2miAEkSiYkWWr0BMtSkVyxD7aUksp1Wyyg+dN9MsdPBT88bQ1WW/SRn9WhkWebmm28+JQVJIpEIzz//fFpjhgePSu+mpTx49QQufrjulHt4bDZbyjtg9fX1vPrqqwMq+cChsKmVK1cO2FYsupdV3dv52Vwj8rhv80HnJn4wWUbI/gqvdtfw8PkW5Or7eat9Kz+edjoUojValvwvT7ceb/YlRv+fd1j731NOSrPadfPCZOXb/Yh2G47rLh9EDzpdvX7Q44hqBMWQiUELoCgq6AqKZEfQFUQtSiQSw9Pbe8TLF9QJxJ0Yo53YrCY+WL+L3y5ZwfsbGtESCnt6FP64YgdrN9WR5bBiKazCac9EzBt4x8cgy4RjCVZ+uJ3l72w5gdnpnzO9yvSgEQVSXW4Kdgd8/G0eWO0kN8WNqYpb78D1rQJG/bx54MZSMVVlMvGVKzBef+7A7UUnsTUvs6nTS2993cDNhcNHKiIMMPCD7QU7Dj7m2w+sxnmcgR/ef0rjPjj3EsVVZcjxlawwXs+5x7q0DrYXccbW8PKmTry99dR1Hn2vkEqrqJBV2rJu5TvnGo46v+O3N5L8qh9gtTOX9KavnzxDRv8QXyguueQS8vLy0i4teMBTlIpRdDhZFiP/96xqLqgqwSRLrOrL592eDMKREE0RC9cXeykyx/hyaR+v95UQjKloSgxNibHWm8l7nSKjxe3Iavjg+5oSo0DsBsCh95FHslJnuV6LpCf9Bpl6Fw582AkwQVsHuk5Csh3h0TdJGu2+Hi63bqTbUMIaZSx/j8/BEW44eP4JwYTXUIAmyMwry+Fn542hKMOSplk9GofDwU033ZT2LX5VVWlpaeHtt98e1HGf9VSLoozZVcTYC+/jjxt9g6vaq+7hr9+6n4dfqeEEHciDprCwkMsuuywlI2rXrl0Dyn0eQFEUNm7cyNatWwdsKzuqqCyQkHIrqMw8FA4mZZRTVWRGyqmgMsuYah25kyKx90987cFV+Af84gQsVstJnZOcl0PGFRcd/L/jhmsQbannIaiaht1mTibpSlZkQUXU4yiKipaIosUDqJIFUTu28pWAgGhy0d7lwWoxYbeaWbe5lrgGnb1BRg4rwG4xs7e5G9HbMfCYZJl4QuODDXt46uW1/HNjHZlpvh9kZWWxcOHCU+K82bt3L//85z/T2m/6EMiY+TA7HtzAg6tSUTMzUjTjBn708VucveOTFD8jzhurjHxpXgpza76BdXvupP7ph6m79P4U+z8xhIyZPLzjQTY8uCqF1icyboi/sQrjl+alsJA3c8O6PdxZ/zQP113K/VP7PyK4+SVaFv6Ea1Lc8D6ivZDBzId38OCGB0npqz6NDBn9Q3yhkCSJG2+8MWXFncEQiURYunTpoBPNBEFgwfB8Hrt4AvPLc3jLV84jHROJ6TKhuIKaiJApBrkgx8fLnmFEFY13vAVsC7mZ4+wmT/IeEfKjKlGc9AJQqe06+DlG4hTpSYM9X285+H4W3VTpO1AEAz3GCmRJRJZEtujVVNqilMh9nG/bi1/MpEt30WoZA0BYzOD97NsJm/K4Z3IF35heiekkE/ZSoaysjPnz55+Sh/5HH31ETU1NyseIRffyVt8OfjLHiHHuL9gdCtG29lHO63mKey66laf2DeJakEby72/+k/97jIfIqWLy5MmMGzfui5EvoXbyzo+vZWKuBaO1iBm3PcYGX9JC17tW8a05ucjWCTzwygpefLWJaPP7PHn/hYy57Q+8/dMrqM60kjnicn68pg9d6WHDM9/lqgmX8ut6Da35BW67YDGvt7zD4hKZjBtfRut8i+9dMpIso4jsquSC/1pNTxo3g1xfORTOk/mV1EN7AGwWM64MKzqgSTaMWh/s90XqAiQCHeiCjCbIcJzlp2S0cfa00QwryaOxtQu7NRnyZbUYQRc4d+ZIbrtyNpJw7Me9LEloOny6o5FfL3mbj7fW43bZEUXo7A0MalypUF1dzezZs0/JNbt69WoaGxvT2m//qPTV7GDTtr0EU7imEp/+mq//+Clekx/gRxekkCulbeOxu/+T373YzFXfSnEHKf4mq6SFnJ3StCYIRUI09yzizWXzj99U7aNmxya27Q2iA2pfDTs2bWPvsQZ+ePvEp/z66z/mqddkHvjRBQO3T2ncn537OG+uklh4zIEf2T4RihBq7mHRm8uY38/Gc/C9L1M06ds8fPccbn+h96jxH799B5/++uv8+KnXkB/4Eal81acTQf9898OHGOKEaGlp4S9/+UtaKz1C0tM1bdo0Lr744hPuo8Eb4k+bm9jZE0BC4+a8BqqtAcKqxA/3jaNA9vMV9xZkQeM1/whmO7rJMx4K5wmoBv7uHYfNbOMa45tH9L1XGE29OJo56hvYDktB6lEzeKpnPGhxrjJ9RLfmZLtWwU229QflPlsVF0+FZmFSQ4wKvEdNxlycjhy+NXM4lZmnv7rkCy+8QG1tbdq/Q4PBwD333EN29sAKKklivLQok5t6f0X9W/dQKEDotduouPI5xj5axzv3pV7EDW0fj547muev2MKH/1552rwqqqry+9//nq79xazSid1uZ/HixVgsx/L4Judv4d8i/T4QjWc9TM37D1Ahxtn2w5lc/MmdrPjLlxnmeYvvXL2Qv+Y/zs5VX8H7vXF8s+BVXr07H8/an/OzmkVcvHE+C//URmLcHfz58f/h8so2ltx5Ff++5Qr+8VwR37/kB3wcmcYvdn3Avw0TUWv/lzmT3+CWmre5rxiafzefaW/czsYXriPx3E1MusPLz5pXc2eBTuMj5zD2xavY+sG/MewEvyhd06gbMxfJnUnFh6kLAgCEwlGadm9A927EI5VjNqmYFA9mSz4mvYc+sZCcnCLi0QAhj4eoXEQkEkRVj/x+bVY7v3n6LRx2CxNHldPdF+CyC6bR0uXF7cqgs8dHQ2sPV547gfhn6mUc2DHdVd/OG2t2YDLKmIwykWicUDROTqYDs1HmxstnUlV6/OrCg0XXdZYsWTJglekT5etf//og7gGngwRBn4LFaUk5JEiLRtHM5tTD0PQokZgZS0pFq+MEgwI2u+GU78Ilgj4UixNLigMf9LjRiUZimFMbOPFgEMFmx3CqBp4I4lMsOFMd8GlkyNM/xBeS4uJiLr744lPiKVq/fj07duw44T4qXDZ+eM5ovjWziiyrmWc6K9jqM7PJb8UoKNyctR2TqCIJOgsctXzgy6E2ZENTE/TGRFb0FuLWO9naG+W9wCGFkCa1gHWRcpp8Id4PVXJguZ7QRd70lXJ39qdcnlnPU7HzWZGYRoXWRCjkJxj0Ewj4+Sic1F+PSTZ2ui/n6vGjeeTC8Z+LwQ9wzTXX4HQ6T1lSX6qhLP0hWywYSRom/XuLFbo/fZrvXDWe+fd+n9um5OEc+U3eOUL0JsLfFlqSoUNSMfe9e+qSDCVJGlS+xIFE4FSkOVPNlzCe/wStmo6uH3hFefXWzEMGRWQ1v/hlM1d966tMcFvJqLqSX/z2TuyrH+avu3SyijPZ9sKfWLkrQt68/+bRu0dy6e/28vJX8jGOuJiFs4pw5k7j3p/ex/iOFayI/wcfrvsfphzzFiBScvc7dLx8C4VGC6WXLGCKIUQwkj4/VzKh9/ojPP6pYrOaKS3OBS2ORBzNUoikHPCq68QNmcSjASQ1Qiyh8tIb6/H6VWx2O+Jh1aN0AfJzXEiSxD/e+ZRAMIIARGMJ1m2uAwRy3Ud+z4IgIMsyzR0enlr+Ef/cVIfNYsRsNlDT0El2VgYuu5W65i6K8zMxnIIdQEEQWLRoETbbqbn//O53v0u7Q+HkMGAfhMEPIA7K8AWEVA1+ACP202DwAxjsqRv8cALjRkjZ4Acw2k+hwQ9gsJ+RBj8MGf1DfIGZNm0aY8aMOSWG/9///ne6u7tPqp/ZxW5+c9EEFo0pZblvNK97h5HQJRriroNtJEHnUkcdz/SOZrmnktW+Eq5x7eZS515uyNzBB8FSXvMN59NwAct7i7lIfo8FpjXUhMz8zTuaulgmf/dUc5GtFoseplLu4mxrcmu7OeEg4Pfg8/t4PT6ZWj25gJhTnMVvLxrPwlFFGKXP7xZgMBi45ZZbMKRQuXQwHCjas2zZssEdFw8SiMQJ1K3kof95gXbLNBZckE/r8p/wB/ODbA+GqHtkAht++iNebtnIb+5ezK/+sZOazmK+82EnvpqHOe+g/aIT3fMKG9wPsqIxTDzezGPnpj+B+XAyMjJSzpc4kKy7aNGiAdufaL7EUZ/ZvptdfhMW86Frzjx+FpPEFlo6dYrvfpU37ojy52vKyJl0F8/sjgASNvuRsfdSxQgq5SD+oIZgtmIZ4OGt9GzixZ/dzUVzv8nbsfRvbLtuXYRj4RUn1YduciIpPtifsyMgICc8+BIygq4iAPvaelj14VZWvLuVcEzEZrOCsF/kU4em1i7KCnPQ9i/ONE0nL9uBxx86Yv6MBgM9niBvr93Fhh1N9PlDWC1Gaho6sFtM5Gc72NfeR3F+Jt+6/SKuvmAqpQUnVpV7IMxm8ymRYwaIx+P84Q9/SHu//1Ik1vCtEVayb3+dE3ehDHEmMWT0D/GF5oorriArK+uUyUBGoycnVWeURK4bVcRvL57AeeW5iILIMu9o3vBXoukQ1mSe94xBQ2RXJJsrXbVIQvKhXW3uZYFzD5+Ei1gbLOZ29xZy5DAFhiB3Z2+kW7HyVN8EKmjDFPcSiUSJRKJkacl8gEapgsaEkzfl86mXh1PutPKDeaP495nDybamPyfiRMjMzORLX/rSKUnsraurG1QNBrVuKV+dUUr+6Ov4o2c23176LPdXG/r3Fiem8tAnH/Hfk00MO/t8hh8R+aIT3PBrrr31dSZ/5z+5pMyCQTod/jQoLS3lggsuSMmIevfdd4lEIlx22WUDtlUUhXXr1g0qX+KziDkllBha+WBt00FlIz0WJSaPYXyVCGImk2/7Ja/v7WLdXY18bcFPD7RCV5WDKhhaVzudDKN62EBj1Ol87W6mnvPf7Ci+kUde/l8uMnG88PgTQs7PRco4CbUrQUQ0WpFiPeiCEZvNgg5ISpBEIo6iJxeyXn8Ih93M9tpmVn2wmXfW1qKqRmJxlY4eL8X5bhRFpa0rqczlDUSIxVWcdgt9vjCKqhGKxHh3/W4aWvuQZZmRFQWU5LvJdmVQXuSmszdAQY6TO66Zw40LZjF1bCWZDnva76+Hk5uby9VXX31KDP+Ojo6TXqz+S2OYy0+f+zdGnplO6yFOgCGjf4gvNKdSBjIUCvG3v/0tLTKQWRYji6cO48lLJ3J1dQGb4+X8qmsmj3TNoCGe1E4X0NH0Qw/XhC5SE03GpM7LaMIhHQoPsYkJCg3JmP72mIlAMEQgGKIxKLEiOh4ATZB513UDUedI7ppUzs/nj2VMzqmvtDpYhg8fzty5c9P+0FdVlfXr1/Pee++l1F4edRcvbO0gFAvRuf01fnJFGQf2IPr1FgtmzOb+jCEBo1Eh0NxIfd/pl26YNWsW1dXVA86nruss+3/snXd4VHW+/19zppf03iAJIdSEphRRBGmuoqILisCusoqIsHtd97p97929u/vb4qq7K8XeAFdUxIYKIgjSFQgJJCSEQHqv0zIzZ+b8/giJIZQkcIYEcl7PM0/ayZvvzJBz3ufz/ZT33iMpKYkxY8Z0qts66Gvbtm1nfd/nKOBkmRdvVQH57Z6vz1lEfrETb80p8mvdSAG38l9LkvjmD0v45zc1uJxl7PzXi5y450nmJUgcfGYZ/9pVjNWjITg2CqPju1wp9963ef1wLY76Y6z77XMcn7KUBYMEHMVFVIs1FJc4kACVVovGV0nRqZNsemcjHz3zOrZpP+PxuddhrjpNtddKXf7X7MqzUVJcg1hTQomjZ8vaVIIKg6sUnzYAn8aMTqcBlYBXE4jOXY3D5UalUpGUEIXLJeJyezAZ9OzJyOXTHYc5mHWamTeORKvRUFZVT0xEy/kkKMBIg9WBWi0wfkQS3xw9TWZeOR7RR5DFgN3pwuP1kRwfQXhIAIOSYrhn2igWz72Z69MGEhEqf+rdhRg+fDhjxozxi/Hfu3cv9fWXP1ysT+M+zkv3phI17L/Y0ijhznuNBYPNqAzJ3PXcEZq2LMKs6sfPDzjZviQEIennvPGrFPTB3+ORHw4m9ae7uZITFBQujGL6Fa56goKCmD9/vl+ixYWFhWzfvl02zTCjjh+k9eOl20cxJwLHLnAAACAASURBVG0QAcbvIoQOScdb9cMRJRV2n5bXa0dw3NVi+r+xxyG2uyE4YI8lwxkFwGFpEOUODcebw/hQmoyblhugfoHGthuNWwdEob5CF/BLYfLkySQmJsr+HkJLRPvSu3lcWrRYl/Y4r/zWwnMLnmRL7ZU3lXfffXeX6iWam5t5++23mT59OnFxcV3S3rFjR9vr6StdxfSQofxilxsx6ylujh7VNpxrVkgqP93ejHj838yITefX3+iZ9NRW3lsksfKWaAKiJ/EH6zI+e+luwlWgHjSZtPzfc0OQnv5P1PP4+t+c+RdV6NL6U/zTdCLipvB32yLWv7aI+FPPMGPaMxx35fLPadN4Ks+LED+Ve25s4uUHf07x8Nu4dck8DK/fRurEZWw2TWZ6cjUff2LFsnk2U5/OwZX7LFPH/oZveyj1W9DoMQheBJ8TUReJ2l1z5idSy7A9n4tAVwEqjZGq2kY8okj/uAjsThdatRq9TsuW3Uc4dKyAwclx3DXtetSCAKhQCyrGpycRFmwm+2QFNoebsCAzoujD4fIQHR6I1+ujqraRsCATd04ZycTRg4mJCJW9JXJX6OqU6e7i9XpZs2YNHk8v6514FeEpdzH2X9v454jdfH6kiNd//AbD3ynHevzPmP6+mJcHvMiOXw1AQMeUVZv5eaKGYf/3Ef8zVMfEvx8j79mJ+De5UaGrKN17FK4Zdu/ezbZt22Qv3hIEgWnTpjFx4kRZdQG8ksSB0no+OlFObm1L5D5CY8fh02L3nX2aHGaoYnZQLvsdcWy1Jp/1M43kRlS1HJ8eGcidqTGMjg7masLlcrFy5UoaGxtl1xYEgf/+7/8+b9Gg5MzlHzPS+XX9j9m2+2/cFNTuxkOq5KWp/fhb+ha+/ft1NO35E3fP+IDbPn6e6ZEqPlpwKzt/eJi9vxyEGvA17eTJ8TPYdNtWDv2tPx8unMQvmv+XHe89SNIV3iJvaGhg5cqVXZpSmpaWxvTp03nhhRew2+2dHq/T6Xj88cf9VoT5HR52PzGYW0v/Ts3679M7ktLkpbmpgtr8bTjr8/GiJiz5Zlz1pxCbGzGGDcASnYbaEEF+QRk79x9jy+4jJMVH4vF4Eb1eGq124mPCOXG6nLioMK4bPoAxIwdSZ7VTUFyLRtMy+bem3oZRr0WnUyOoBEoq6klOCGXogDjio8PR63q+t6DdbmfFihXdnpfSGRqNhkGDBnHvvffKqtsXEA/+lsmrJ/DlyzM58uupvDHpVzQv3cgPTrzAZI3IV4+msm5uDku+vJX3Zm/lr2MO8stpHzBny0I2z1jFxC9WMPnKdjFWuAhKpF/hmmHixImkpKTIvkXs8/nYsmUL+fn5suoCqFUqJsSH8pcpw1gxcwT3D4vHaAo/x/ADHGuO5P9V3niO4VerVAyPjmDJ6ERemTWK308actUZfgC9Xu+Xwl5oeQ9Xr1597vdLVzEteDA/3+VGPPY0k8LH8IfMdjeNqojzR4s/OsYni6bxdE4zmc/dztj/+gK3Zx+/vO4Wnslxkfv0FEb/9hSSWEHxh8u4cWACKcu+vKJb3MHBwcybN69LuydZWVkcO3aMe++9t0uRVo/Hw7p162RvD3oO3kZKK6yI1SWU+aEItzdgCIwmduR9RAyZjUHfMglIH5RA6MAZhA24BVNQPHq9nmFDknjgvun8dtlcEqLDKCipxGwyEBIUQGVNA+HBgQiCiq/2HwUV5J2uwmzSo1UL1NTbCAk0odeqKa1sQKWSmHHjUKZOSGNAv5heYfihe1Omu4MoiuTm5rJ3715ZdfsaKlSgSiQt8mP+teYEVmse+/MGMX6YGp3WwamCaupzM8iT955NQUaUSL/CNYXb7Wb16tXU19fLkovfHkEQeOKJJwgI6OKIvsuguMnBgbJ6cmqsnGpw0OQS8UoSZq2aaIuBaLOeaIuBfoFGRkcHY9ZdO6GU7OxsNmzY4Jd2e9OmTeOmm26SXbc3s2PHDnbu3Nnp6ykIAj/84Q+pqKjg888/71RXo9EwevToLhUCXxJSHa/PimXRpy19Q7Rj/0rWnl8w6BouKhRdVhwNxRgD49Aagy54XJPVwZFjJ9l1IJsd32QzbGA8otdHYWk1A/pF8+B90zh8vJiGJieJ8eHYHS5q6m1EhlkYlBhFckI0gZauTw++0hw6dIhNmzbJfg5Qq9U88MAD9O/fv/ODFcCzj58Pu5GnTmiZ9dAcvn1tLVURi9n4yTBevOfnbKpNYv6Kj3htUSrePb9h/J1vkfyHXxP3t+W8ExNG9UEL43/2Nz79292E9PRzUQAU069wDVJXV8eqVav8ksNpNpt58sknr1iBW3vcXl+Ptti8kmzevJkDBw74ZfjawoULSUpKklW3t7N27VoKCgo6HYJkNptZsmQJW7duJTMzs1NdjUbDXXfdRXp6ulxLVegGdfVNfJuRx9ff5JCZW0hCTBgBZiPz75nM8dOVOJwefD4fWq3AoMQoBvSLISTQ3CPnr+7ywQcfkJWVJfs5wGAwsHz58isSvFFQ6G30DQeh0KcIDQ3l3nvv9UsnCLvdztq1a2XX7QqXYvh9jdls/L+5jJr7JtUS4DvF899LYubKk8g/A1M+pk+fTmxsrOyFvaIo8tZbb/mlbqA3M3fuXCyWzlsv2u123n777S7nVIuiyIcffkhlZaUcy1ToJqEhgUyfPIZlD97O4vumodGoKa2sQwXUNdhxix6GDIhixsQ0xgxPITTIv+035eSOO+4gPDxc9sJet9vN2rVr/TIFWEGht6NE+hWuWbZt28bu3btljxSpVCoWLlxISkqKjKoeij7+X5Y+uZovCmDAbf/FU3+7A3uWgTlzhnVriuN3+Mh56iYm/nYP9imvU/LZA0RcHdd7ABwOBytWrOhSYWl3UKlUhIeH8+ijj/rlxrC3UlNTw/PPP++XHTCLxcLy5csxGo2dH6zgF3w+idLyag4eySdlQCxNjmYS4yKJCg8+09Hn6sNqtbJixYrLnpfSEbVaTXJyMjfeeKOsugoKl0JiYuIV+7cU069wzSJJEmvWrOH06dOyR3V0Oh2PPfYYISHyZCp6j/6REeM+4Pb3N/C7yeHYCr5h41+WszrpPxz+QzpqfJS8+Q+2T/1vfhDXnQu4jxN/v56R237C6avM9AOUl5fz8ssv+yXNZ8iQIcyZM0dW3d5OTk4O7733nl9ypRMSEnjggQd6pN2jwnd4vV7qGqwEBwWg1Vz9BRBFRUW8/vrrsp/DNRoNt99+O6NHj5ZVV0GhN6OcnWXE6XTyr3/9i/Ly8p5eigItEd17773XL20FPR6PrL2f3SePUpB0Nw9OT8SitxA9ZApLX3mLJwa2/Il68l9h6W8203QJt+gGi4mrzOu3ERMTwx133OGXbh45OTkcOHBAVt3ezpAhQxg3bpxfBqGVlJTw5Zdfyqqr0H3UajURYcHXhOGH7k2Z7g6iKLJp0ybKyspk1VVQ6M0opl9G9u3bR11dHWvWrMHpdPb0chRoKdr64Q9/KPsFQ5IkGhsb2bBhgyx6xlt+zE9Uz3Dvw69wqPZMREs7ggcXDkdVvJ4Hpy9nU8k2lidoCJi/EXyVfPG77zE4VIegCWbA9N/yZc2ZOwKpnr3P3M+oGAtBqffzQpbrzL8iUnNwLb+ePYLb/lmAc+N8AgQVKuNs1lnBveURotUqVMY5rHd4qT38H343ZxQz/76Xr5++lxGRQcTc8HM2V1ax8//dxeBQM+EjHuLtQv/mxo4cOZKRI0f65aK/efNmiouLZdXt7UybNo24uLgu10uMGjWK5OTkTo8TRZF9+/aRk5NzuUtUUDiLrk6Z7i6iKLJmzRrZUwgVFHoriumXCY/Hw549e4CWKZdvvfWW/3tYK3SJiIgI7rnnHr9cME6cONH2vl8WATfy1317+G3oOu5MTmXWr9ZyqKYlBUNIuI83N/+RseYprCgWsb51N77SD/jLSwZ+c9SG/eS/GHHwr/x5YwUSXgpemMP33+nPU99UULz5BzR+fQQRQDzG88uX8/RHx2nygf7uNZza8ENiz5wFdDNWkrHuPiIEwJvLyz9ZylPvZ5G/fwfVk/7JV9++yq0V/+bxx17g9I3/Zv+JrSwW3uJPL5/R9yO33XYbkZGRsqeOiKLIunXrsNlssur2ZgRB4P777+9y/n1WVhZjx47tUhqEKIps2LCBmpqaTo9VUOgOXZ0y3V2U67VCX0Ix/TJx8ODBtr7wXq+XsrIyvvjiix5elUIrw4YN4/rrr/eL8d+6dSunT5++fDHzYO77xzYKcl7n9tpnuSXxOn7yWSXnuxQJCUvYVrGRH8TqMPb7HrPGaLHbnEjuvfzzz8e448+/Z1q8hcCk23j84ZFoADQj+O2uffx+TOtroCY4qT+hbWcBLeEpyYQLgHoov9jxLX8aryd87N3cdX0sIf1uZcZIDaTeyvxJ/QkKG80N6SYaauvPu0Y5UavVLFiwAL1e/pmsLperz3XzMBqNXR6CJIoi27dvZ8aMGcTFxXXp+DVr1uByuTo9VkGhq2i1Wr/s2vp8vi7PplBQuNpRTL8MeL1edu7ceVZ+tyiKHDhwgOzs7B5cmUJ7ZsyYQUxMjOzRYq/Xy1tvvUVTU5MserrYm1j64j4OPRXGK/f/jE+tFzhQrOHwu39jycyb+OlWFxLgK8/gYE0ECTHfTfTV6dpN91UZMBm7GikzdjhWQK1W0b6sQBAE2YegXQiLxcKCBQtkb+Pp8/morq7m008/lVW3txMdHc1dd93VJRNVWVnJp59+yn333ddpjYwkSVitVt577z25lqqgALRMmZ45c6bsuqIocvDgQY4ePSq7toJCb0Ix/TKQlZWF2+0+5/uiKPL+++8rW929BEEQmD9/vl/aCrb2fr7Urijijhd59VT7eLmWxNvuZLjtKMcqzo2jS5WfsOS6yfzvsXjm/2sjf5+pByRU5kACpCKO5Z2doyo1Ozlv3FWlQiV5OSvILTXjbO6dTb0SEhKYOXOmX3ZsMjIyyMjIkFW3t5Oens6oUaO69HpmZmaSnZ3N3LlzO71x9nq9FBQUsHPnTrmWqnARfFXb+cuckUQHBNHvpmWsz3dRtf0vzBkZTUBQP278wcNMSpzJypNX/27W9ddfT1RUlOy6oiiyceNGqqqqZNdWUOgtKKb/MpEkie3bt1+wi4vH4+HNN99Utrp7CSaTqctpDd1BkiRqa2v5+OOPL01A/Ib/+f4yXt99mga3D7Epjw1/WknGoLv5XpKASqtF46uk6NRJNr27naqPnuF12zR+9vhcrjNXcbrai7Uun105KSyYIbDhZ0t49XANDusp9n9TRvPOJxh162pO2oopqhapKS7BIYEQHEqw7yg7dpTRWLqX//xnL7XOz1k26E5W5xdTUi1SV1qGQwLcFZTXiDSVl9LoBTxVlFQ4sZWVUOvvpP52jBs3jiFDhvjF+H/88cd9rvvW9773PaKiorq0A7ZlyxZUKhXTp0/v9FhRFPnqq684efKkHMvse3hr+fbV/+bu6/sTYtRjCk/l5gf/yqenO/Sslyp4a+kyMu/5hNzDr3KXaxNvbFzNo8syueeTXA6/ehfur8tZuOMzlg24Njr6PPLII2fvYMpEa2qa3HMBFBR6C4rpv0zy8vI6rfy32Wy88847VywNQuHixMTEMGvWLL+YxqNHj/Ltt992/5d1t/LchieI3PlLbo41oA2fwP9Vz+fDzb8hXQNC/FTuubGJlx/8OcXDJhJx6xLmGV7nttSJLNtsYvL0ZKo//gT7oPEsfHMLT407zu8mp5B+/1qa4lIZed9veOWfN/D+rdN45riL3H9OY9pTeQgJc/npgyF89IPR3PSTr+k3cyIDR83ll6v+i8aHb+YvWS7yn5vO6J+9zdPTB/P4V82Uv3EPqQ+t46Xvp/Lo53aaPnqIEUs3c+5el/+YPXs2QUFBsuu2XvS7OpH2WkCtVjN//nwMBkOnx/p8Pt555x2GDRvG8OHDOz3e6/Xy9ttv09DQIMdS+w7ufF6dM4JpK5zMeXE/pVY7tcc38rOEzTwwagp/2Nsu569pOxu3h3L9+FiCUr7PcwdO85/4r/kq9HrGxwaR8v3nOHB6E4/0v3Yu9xqNhkceecQv2na7nfXr1yvXa4VrEmU412WyevVqKioqOj1Oo9Fw0003MXny5CuwKoWu8OGHH5KZmemXQUUPPfRQl4oeFS6dqqoqVq5cKbuuWq0mLi6ORYsW9alBUyUlJbz88stdMjtxcXHcd999PPfcc53OqlCpVISFhfHoo4+i1WrlWu41jEj2X8Yy6s/hrDz+OQ/Ht/8/2MCmB4dw55ez2ZK9mqkB4Ct4lknpHzEv50uWJwiAj4JnJ5H+0TxyvlxOwjX8Xzg7O5v33nvPL4O7brjhBqZOnSqrroJCT3MNnw78T2FhYZfz9UVRZOfOneTn5/t5VQpdZdasWYSHh8veAs7r9bJ27Vql97OfiYyM5Hvf+57sun21+1Z8fDw333xzl44tLS1lxYoVXRpOJ0kSDQ0NbNy48XKX2DcQD/DSygzUty7m3viOl+hgZvxoDpElb7LyszpKVt6CccAT7LZ/xY/7qdGN+QW/m2JkwBO7sX/1Y/qpdVz3xz0cWPtrZo+4jX8WnKkPEkv4/H/uYHCIGpUxnht//B6nzryVjuy1LJ+SQqjRRETaHP6xp57eGhkcOnQot9xyi192bffs2UNubq6sugoKPY1i+i+Dbdu2dStK7PV6Wb9+PfX19X5clUJXUavVLFy4UPYLBrT0fl63bp3S+9nPjB8/ntTUVNl1+2r3rSlTppCamtqlG+HzNS+4EKIokpuby759+y5neX0CqSabzCqISR3A+fokqZOHkKJ2kpVZRPyybThOPMV482SeK/LiPvg3/rjdwYmnxmOe/BxFXjf77tzGfy1/mo+ON51pretkzy+nsiz/Pj4octK06xFcr/2KV456wbqV3/xyP1NWf0NJ+VHWTj/J7+b/ju29ONvtxhtvJCUlRfauXqIo8u6771JXVyerroJCT6KY/kuksrLykiZ5thb2diVCpuB/AgICmDVrluy6Pp+PyspKpffzFWDBggUEBATIrtvafau6ulp27d7MggULmDBhgl+ip1u2bKGoqEhW3WuVCwUMVIIGjQCCumuXb82I37Jr3+9pG89h38K/XwrhJ/9vPoMDdASM+R++sZ3gT6PUOL58nTc+WcGcIaGYQwZw67MZNJdu58ucK1ipfwl8//vfJzAwUPZdW1EUefPNN7t1g6ug0JtRTP8lsn379kuK4kqSRFNTE++//74fVqVwKYwcOZK0tDTZdVt7P2dlZcmurXA2jz32GCaTSfaLvsfj6ZODpqZPn05sbGy3oqeBgYGdHuP1elm3bh1W64WGTyiowoeQFiFRfvQ4jef5ubfsJAWimdEjk7quaTDROnLDV1vEaVc4EUEdL/8+6svK0S78CKckIbU+PMf48xj5d0PlRKfT+WVwV+v1esOGDbLqKij0FIrpvwTq6+vJy8u75Op+URTJy8tjz549Mq9M4VKZM2cOwcHBsuuKosgHH3xAZWWl7NoK32EymViyZIlfCkX7YvctQRC4//77u9TRByAsLIylS5cSFhbW6bGtMy360gTkbqEZx4+WDEfcupo1+R0j7FZ2vvo2pYk/YunMS9vdEkJiiOVbvj7SsS2lQGBEOJ592/nW+d13PRkb+egq6O8fGhrK3LlzZU/z8Xq95Ofns2vXLll1FRR6AsX0XwI7d+68bAMgiiJbt26lsLBQplUpXC5Lly71S7eW1jaQTqez84MVLpng4GDmzZvnl4v+6dOn+eqrr2TV7e10Z6ZFbW0tO3fuZN68eZ32T/f5fNTU1PDJJ5/ItdRrDA3pP/8Pz96Ux6/ueITXDpThEL04q7LY+Js7mPdOIn967/8xyQQg0lhwimqxgpMnrS05+2IjBaeqEStOctLqAyQcxUVUizUUlziQAqbyo7kiLy37GR+etCG668n/fAWv7XdgmbaQu5wvsOjBFXxd1EBT0Zc8u8HKsMSro7//oEGDmDhxol9S07Zt28apU6dk1VVQuNIoLTu7id1u5+mnn5YtSqXX61m+fHmXtsYV/E9ZWRmvvvqq7DUXarWahIQEHnzwQdlTUBTOZseOHezcudMvrVjnz59PSkqKrLq9nYyMDD7++OMuvZ5z5sxBEATeeeedTo/VaDTMmjWLUaNGybHMaw9PGTtW/4k/v7iRPXm1+IIHMGH2Yn71P8uZFq8DJOrfuJOYBz85M21bRegD/+FvtQ+w+JMz6WiqUB548efkLfsle92Adhx/O7qbn8fn8trjD/E/6w7RED2BH/zm3/z9R+lYkGg6uJofL/0zG45YiZi4hH+/8VfuSLg6TD+0pOS8+eabFBYWyr6bpNfrWbZsWaczQrxeb9tDFMULfn2+z893vCiKeDyesz62PrxeL42NjcycOZNhw4bJ+nwVrj0U099NtmzZwr59+2Q7mahUKiIiIliyZIlfusgodJ/CwkLeeOMNv/R+njBhAtOmTZNVV+Fc1q5dS0FBgezvoU6n47HHHiMkJERW3d7ORx99xJEjRzo1/lqtlsWLF5OZmdmldAiNRsPDDz9MTEyMXEtV6CO0mmK3233Ow2638+mnn/plsq5arSYgIACfz9e2Bp/Pd9ajFZVKdd5H+58DbZkD7T+2PrpaOzhz5kxuuOEGuZ6mwjWKYvq7ydNPP01TU5OsmhqNhuHDh3P33XfLqqtw6ezdu5etW7fKHi3WaDTMnTuXwYMHy6qrcDYul4tVq1bR2Ngoay6+SqUiNDSUpUuX9qlBU16vl5deeonKyspOTUhISAiPPPII7777LgUFBZ1qm0wmfvzjH2MymeRaroLMXCxq3Rp9drlceDyetofb7b5ohNrhcFBbW9tmmtsb3VY6mmGF86PX63nyySf71DlJ4dJQTH83OXr0KBs3bvSLGbztttsYM2aMrLoKl8769evJy8uT/b3WarVdLnpUuHRqamp4/vnnZU/V0mg0DBw4kHnz5smq29ux2WysWLGiS7UpAwcO5O677+aFF16gsfF8PWi+QxAE4uLi+NGPftSnJiB3B0mSLpomcrFUkezsbKxW61k/b41St49Ot48qdzTfCr0XjUbDpEmTujxYT6Fvo5j+S+DTTz/l4MGDfjH+P/rRj4iLi5NVV+HS8Hg8rF69mrq6OtmjxUFBQTz22GPo9XrZdBXOJScnh/fee88vf6tTp07tc9vpxcXFvP766116PW+++WYGDx7MK6+80qW0oDFjxvhlwvLF8Pl8l2ymOx5TXl5OfHx8m6G+WC52+5+317mYIW9FpVIhCEKX0kVan5/CtYtGo+HJJ5/scqcthb6NYvovAZ/PxyuvvEJZWZnsE1dNJhPLly/HbD7fLEaFK019fT2rVq2SfTiLRqMhOTmZBQsWyKqrcC5ffPEF+/bt80th7wMPPED//v1l1e3t7N+/ny1btnTp9Zw/fz4Oh4MPPvig02PVajXjx48nPj7+oua6NY+7faqIx+O5qJG+lNzr1u+3fux4qeyYdy1JUttOhRIpV7gSqNVqxo4dy6233trTS1G4SlBM/yVit9tZsWIFDoe888kFQSAmJoaHH35Y2eruJZw8eZJ169b5pbD35ptvZtKkSbLqKpyNz+fjjTfeoLi42C/dPK5U9y1JkrrVDeRCken2n1dXVxMcHExQUNBZv3ehPOzWR3V1dZeKJPV6PY888gibN28mLy+vS89Tq9WeZbIvpahRQaEvoFar+elPf+qXieQK1yaK6b8MysrKurR13V00Gg2jR4/m9ttvl1VX4dLxZxvIhQsXkpycLKuuwtk4nU5WrFiBzWaTVVelUhEYGMjkyZPbTHlHY91a2Ngx3aOzyHTHqPTFUjxav9f68WJR6Y4FkyqVCrVa7TdjbTabsdvtsmoqKPR1BEEgPT1daQCi0C0U03+ZHDp0iE2bNvnF+M+ePZu0tDRZdRUunTVr1nDq1Cm/tIFctmyZXyYC90YuJVrd/nvNzc0UFxef9f32RrrVMHs8HiwWCyaTCVEUcblc1NfX++U5CYJwlnE+XycSBQUFBblQq9UsX76c0NDQnl6KwlWEYvplYOPGjRw9etQvBVMLFiwgNTVVdl2F7uNyuVi5cmWn3Ui6i0qlIiwsjEcffVS2lmuXa6zPd3zHiHXHATEXKkpsX5jYMVrdGrFu/3Xr53Buq77WLibKaUtBQaGvolKpGDhwoFITptBtFNMvA6Io8uKLL1JdXS371rhKpeKJJ55QJvb2AiRJorKykpdeekn2G7zWNJHIyEhqamqIj48/pzixszQQOYx1xzzqjnoKCpeLwWDwy9AkBYW+glqtZvHixcpQO4Vuo5h+mWhqamLlypV+uZgZjUZ+8YtfnNWa7Vql/ZTD7o4vv9DvnC+furMIdWc51QoKCpfGI488woEDB8jIyOjppSgoXJUkJCTw8MMP9/QyFK5CFNMvI4WFhbz55pt+SfNJTExk0aJF3fqdy+0/3fH483X0aI1GV1ZW0r9/f7RabZdSP9pHptsb7Fa6O7689XMlp1pBoXcTExPDAw88wBtvvEF5eXlPL0dB4apCo9GwcOFCkpKSenopClchium/TDqa2QMHDrB7927Ziz0BAgMDsVgsl5U7fb5OH3D+3GklxUNBQcEfjBw5kilTpvD88893acKvgoJCC5GRkSxbtqynl6FwldKnTX9hYSEHDhxoi2JfKOLdXWPt9XoVk6ygoKBwEW6//XbCwsJYs2aNcr5UUOgCWq2W73//+wwZMqSnl6JwldJnTb8kSTzzzDM0NTX19FIUFBQU+hyCILBo0SKKior44osveno5Cgq9nsDAQJ544ok+Ud+n4B/67MjX48ePK9vKCgoKCj2Ez+dj/fr1pKenM3To0J5ejoJCr0ar1TJlyhTF8CtcFpqeXkBPsW3bNjweT08vQ0FButZ6AAAAIABJREFUQaHPYrPZeOedd1iwYAHV1dVUV1f39JIUFPxG+6YU7dsot/94vvo6n8+HRqNhxIgRV3bBCtccfdL0nzp1irq6up5ehoKCgkKfp7i4mG3btjFv3jxefPFFXC5XTy9JQUFWVCoVw4cPJzw8HI1Gg1qtbnu0fn2h77c+LBYLarW6p5+KwlVOn8zpf/nllykuLu7pZSgoKCgonGH27NmoVCo2btzY00tR6CW0j4K3j5C3f3Q0yq2Pjl+3PrRabdtDo9Gg0+navjYYDGzfvp3Tp0/LPmhTp9Px2GOPERISIquugkJ36HOmv7y8nJdfftkvvfQVFBQUFC4NjUaD2WymsbGxp5eiwPlnpVzIbLePTLeaaa1Wi8fjQRAEtFptm7nW6XSYTCZSUlLQ6XTo9fo2jd6Qr+5yuVi1ahWNjY2ydpVSqVSEhoaydOlStFqtbLoKCt2hz5n+devWceLECaVFnIKCgoLCeTlf7nVrDZhWqz0nDxsuPijwfIMH1Wr1OQZaEISz0jo6Rq7bG+rW73s8Hlwu11k/6/jQ6XRtj/Olj7R+3vpc+zo1NTU8//zzstf9aTQaUlNTue+++2TVVVDoKn3K9NfV1bFixQq/DM5SUFBQUOg52keiWw1sx2h0xxzq9ikfHc10x+MbGxtRq9WYzeZu52O3/7qvGmvRJ+F0exF94PVJaNQqLDo1GnXPR/fPR05ODu+9957sWQEajYZp06YxYcIEWXUVFLpCnyrk3bFjhxLhV1BQuOZonbbd+oAWE9w6WLC92Wwfne7YMaQ1Mg20DSDsOISwq8a6o7n2eDzk5eV16xysVqs7DdJoNBpGjRrFrFmzuqyrcGVwiT7qHR7qHSI2d+v7qEIFqAVQq1QEGNT0DzUg9ILUnvYMGTKE8ePHs2/fPlmNvyiKbN26ldjYWPr37y+broJCV+gzkX6r1cqzzz6rRPkVFBR6Be1TPC5koDtGkttHoluLEC8WWXa5XFRVVREaGnre6HV3ItQazeXHiA4dOsSmTZu6ZKImTJhAbGwsGzZs6PRYjUbDnXfeqbQ07AU43F7qHB7qHCJOtw8VPow+Jxq8NAtGNDo9apUKs14g1KQlwKBBkqRLyuf3er3YHQ4EQcBsMsleE+Dz+XjjjTcoLi6W3TsYDAaWLVtGYGCgrLoKChejz5j+zz//nAMHDiimX0Ghl9I+Ut2dv9PWNnb+yJ3WaDTk5ubKXtQHLd08li1bRnBwsKy6vZ0PPviArKysTo2/Tqdj8eLFHDp0iL1793aqq9FoWLx4MdHR0XItVaGLNDWL1Nk91NpF3F4fqEAt+TBJTgxSM+2tuKDVEx4WgsVkbPte699WV1OfvF4vNrudyspK8vPzCbBYiIuPJzIiApPJJGsKldPpZMWKFdhsNtk0oeX8FBkZySOPPCLLDbWCQlfoE6a/ubmZp556SunYo9DnaZ8G0vp1e1Qq1UULEs+X7tHeVHc13aNjDrVWqz3r+KqqqraBNB2Pa1+caLFYCAgIOG+UWq4Lv8vlYsWKFTQ1Ncmi14pKpSIsLIxHH320T3Xz8Hq9vPDCC1RXV3faFjEsLIyHH36Y9evXc/r06U61LRYLy5cvx2g0dnqswqXjkyQaHCI1dg91dg+iT6LllKJCi4gZJ3rJzcXi7gaDgaDgIAyGltSe9uelCyGKYpvZP3HiBE1NTURERGA2mXA4nej1euLj4oiQ2fxXVlby4osv+iW/Py0tjdmzZ8uqq6BwIfqE6d+xYwc7d+5UTL+C3+iYU92xu4fH45G973MrYWFh6PX6bhcoXk6aR+vnfYXq6mpeeOEFv3TzGDx4MHPnzpVVt7djtVpZsWIFzc3NnR47aNAg7rzzTl544YVOb7zUajXx8fE8+OCDfbZg1l94fRI1dg81Njd1dhGv1GL0VagQVKDDg5lmDHTvb0Sv1xMSEozBYMDl8tDQZCM2OvysYzweDza7nfLycvLz8xFFkYiICIICA8+6UfCIIk6HA61WS2RkJGHh4ZhlMv+ZmZl8+OGHfjH+t912G2PGjJFVV0HhfFzzpt/j8fDUU08pUx6vAS5krOH8rfM6i1J3jE53FqU+35CX80Wpz2eQAT7++GOsVqusr4lKpSIkJISlS5ei0+lk1VY4m+zsbDZs2OCXi/6MGTMYN26crLq9ncLCQt54440upXLdcsstDBgwgFdffbVLhb3jxo1jxowZci21z+Lx+qiyuqm0uqlzeJAkFWqhxeirVKBSSRgQCVQ1o+Py/i6sNifvfLCd60cP5+47JgPgdrux2e2UlZVx6tQpBEEgMiICg8FwUS1JkvB4PBgMBoJDQggMCMBgMFz2jtonn3zC4cOH/XIOeOihh4iNjZVVV0GhI9e86T9w4ABbtmyRPUJ3NXO+HtQdDXTHFI/W10+v13erH/XFpid2Zqw7muquRKm7GrG+0lHA2qZ6VKLEqlWr/BItTklJ4f7775dVV+FcNm/ezIEDB2S/6KvVahYtWkRCQoKsur2dvXv3snXr1k5fT5VKxYIFC2hqauKjjz7qVFej0TBnzhyGDBki11L7DA63l/ImF5VNbhqc4nfR/DNmv8X0g1nlIUhoRoO8dXIajYbAwEBEr0h5eTllZWVotVrCQkO7tbuo1Woxmc0gSWRkZHDTTTdd9jRcr9fLK6+8Qnl5uew7tyaTieXLl2M2m2XVVVBozzVt+n0+H08//bTsBThdob2pPt8gl/at8nw+n99SjwRBID09/ayx4xcyyRdL9bDb7bhcrrOmJ17MbPflftTn46FVD/PwzY8Spg1k/fr1fokU3XLLLUycOFFWXYWz8fl8vPbaa5SWlvqlm8fy5csJCAiQVbe3s379evLy8jr9mzAYDCxZsoRdu3Zx8ODBTnW1Wi2PPvoo4eHhnR7b12lweihrcFHW5MbaLCKoWlJ2BKHlY6vpF4AgtZsgwYUa/6QrtmK1WrE77ARYLN3qyqPRaDCZzahUKjIOH6auoRGvx80999xz2aYfwGazsXLlShwOx2VrtUcQBGJjY3nooYeUa6eC37imTX9JSQkvvfRSW9pDV3tQn6/bR2c9qDsWGnaW7tHRJGdnZ7Nr1y6/vA7x8fEsXrzYL9oKnVPdUMv9b02nNjecb575lJ07drJ7926/RIt/8IMfkJSUJKuuwtk4HA5WrFiB3W6XVVcQBKKioli8eHGfqpfweDysXr2aurq6TjskRUVFsWjRItasWUNpaWmn2kFBQSxbtgy9Xi/Xcq8JJEmiyuahpL6Z8iYXdrevxeS3mv0Opl8NROg9WGhGwL+WodnVjNvtRt0uYNYVWs0+QOaRI9TW1RMQE094fH+yv97KvHvvlcX0Q4u3eO2112Q/hwuCQEhICD/5yU9k1VVQaOWaNv3Qkjfa2mGkszSQnmbdunXk5eX5RXvSpElMnTrVL9q9gQ92f8rsibf19DLOwev1cufv78PR/zTZ+T6mBYxn7a9XsmbNGk6fPi17tFiv17Ns2TKCgoJk1VU4m/Lycl5++WW/7Nikp6dz1113yarb26mvr2fVqlW43e5Oj01LS2P69OmsXLmy01ottVpNcnIyCxculGupVy1en0Rpo4uiumZKG5rxeFsKcdXCmV3p85h+owaidB6MuFD52ezbbDacTid6gx5NN256NRoNpjM9+jMzM6mqriYwNoGIhEQ02paAX+aXn3H/vPtkbY/77bff8tlnn/lllz4tLY05c+bIrqugoP7973//+55ehD8JDg4mKCiIwMBALBYLJpMJo9GIXq9vi873lq209PR0Dh482KULX3cpLCykX79+hIaGyq7d05RUl7Fs/YNMTplBWGDven6CILAv9wi7qguwZjXys3uWkJ48lEGDBpGRkSF7gbnP5+PkyZOMHj261/y/vhYJCAggKCiI/Px8WXN7fT4f1dXVBAYGEhMTI5tub8doNBIXF8fRo0c7jfZXVVVRXFxMfX19p7qSJLV1/ElMTJRlrVcTLtFHQY2Dg8VWdp1soKDGSZ3Dg1eSzrTJpF27TNo+ButVxJs8hAsOdIgXbb15udhsNsrKy6isqqTJ2tTyfkkSOr3+olN61Wo1loAA9Ho9WVlZHD12DJvVSszw0YTHxiO0u3GoPH2StOHDOi0A7g6xsbHU1tZSW1sre35/VVUVQUFBfeocoHBluOZN/9XGyJEj2bt3r+yDgACysrIYM2bMNbfV/YuX/4Avvoh339/HvMmz0faCXZtWjhfl8+yXfyJlqIamIDM53x7n/sl3YzIYSUlJ4fDhw7JfMFwuF3V1dQwdOlRWXYWziY6OprGxsUv95ruDz+cjPz+f1NTUPpXf3xqQKCkp6fT17M7MBJ/PR3FxMfHx8ddk0KMjNpdITqWdfacb+fpkPadqm2l0ikjQZvS/M/vfmX6dRkWUWaCf0U2w4EAr+dns222Ul5dTWVVJc3PzWV3XnE4nDrsdo9F4Tqpbq9k3GAwcO3qUrKNHsQs6DAkpGFwOQmPjEDQtXXp8Ph/O2kqaaqoYNnSorKYfYODAgWRnZ8ue3w+Qm5vLsGHDlMJeBVlRTH8vQ6vVkpiYSEZGhuzakiRx5MgRbrjhBtnHlfcUX2fu49ltf6chKIBTRWWIjR4mj7yhp5cFwI6snfzynaUkDxapq5Nw6bSUVFSzY9cepoy8gdjIGMLDw8nNzZXdNNbW1mIymYiLi5NNV+FcUlJSOH78OA6HQ9YbdZ/PR05ODqNGjepTg7sSExMpLCyUfQJy6+uZlpZ2TQ7uqrG7ySyzsSO/gd2nGiisc2F1taQOto/idzT9ggqCjBoSAgTi9C4CcaCWvFfE7FdVVeF0Os95n3VaLc3NzTQ3NxMaGtqWeiuo1VgslrPMvhUN+n4DMYRFEmg2YRSb0QYEgaDGWVeNu7oMlSRRX1PD8OHDZTf9giAwePBgDh48KHuqJkBGRgYTJkzoUzU+Cv5FMf29kODgYFQqVZcmUHYXj8dDcXExI0aMkF27JwgPCmXlzrex1jWjKpd44fGnCDT3juiogJqvvznOjn25FGQ5acy14al3ExoQRExoFGnJQ4iMjMThcFBRUSG78S8oKGDAgAEEBgbKpqtwNq0X/UOHDsme2+v1eiksLGTkyJHXzE16Vxg8eDBHjhzpVupbV14fn8/HiRMnGD169DVhoqpsbr4tauKL43XsL2yiuMGF3e1t67bTau7PZ/oNWoHIAC39gwSitM2YJCeCJL9pbY/9zHCt6upqHM5zb5J1Oh0etxubw4kqMBRnQx1RUVHodDrMFgtGo5HsY8c4knUUa1MT6vgBmKLjETQaDFoNIWYj7obalhbTdZUIPi/a0EgM4VFUnDpBmh9MP7TUUSUkJJCVlSX7Dr3P5+P48eOMHTtWVl2FvouS9NtLmTx5st9yUE+ePOm3TkFXEkmSeORfjzFimIvhI/Xox1pY9NTjuD3y10RcChHB4TTYG0kaqGPa3YEY4k0A3DZuGvdPvbvtuJkzZxITEyN7Dr4oiqxdu7ZHWtb2JSwWCwsWLJDdSPp8PsrLy9myZYusur0dvV7PD3/4wy7vcAQHB/Poo492aWBTY2MjGzdulGOZPUa1zc2GI1W8uq+MfYVN1Du7drOpUkGIScOAcCOpESYSLRIBXitqn39n2NjtdgqLCjldeJqGxoZzbo51Wi2ix0NDYxOiKZDgISMISkhEkiRMJhOBQUHkHj/OF1u3Uu4UMQxMR/RJCOqWHQCdWk2IUY+zugK1ClRuF9qQCIxxSegsgWeeu8qvN86JiYlMnTrVLw1Bqqqq+Pjjj2XXVeibKJH+XsyIESP8MggIoKCggJSUlKu2y4vT1cyP/v0wufX7CQ0VKKkCtyBw8sRpvtq/hzGp6UQG91x/brfHzcJ/PICuXw4DBusJDBAwROgpK/Kw89u9DOmfypD+A4GWC1JrtFjuwV0+n49Tp04xatQopbDXjwQFBWEwGDh16pTsOzYVFRWEh4cTGRkpm25vx2QyERERwfHjxzt9PZubm4mNjWXUqFFkZWVd9Fifz0d9fT06ne6qG4Tm9Hj5LKeWzTl11Do8qDhjZmkX0YdzIv16jUB0oJ7EUAPhZi2RAToGRJiICDJjMrUEIvzRPMJut1NWXkZNTQ0Oh+Oc91Gn1eJyubDZ7fhQETxkJIbgUFRnzlO2siLUajWHMzJoUukw9h+IPiQcQa2muaoEbUgEGq0Oi9uKt7YStQokyYcuIgZtu91eCag6fZK04cP9Ws/Wr18/ysvLaWhokL1Oq7y8nJSUFGXXVuGyUUx/L0alUpGWlsa+ffv8on/kyBHGjh17VeYMazUagg0RfLrjAEePVVOR58R+0o5WVHPLqBtJjulP/6j4Hlnb3uxveXjVA1S5TuBqlpBUKnaV6rGpNBCow2sX+eSrLYQGhjAmNb3l+Wi1JCcnc+TIEVkvGK1FcTabjdTUVNl0Fc4lPj6e6upq6urqZDf+2dnZaLVa+vXrJ5tubyciIgKXy9Wl6af5+fmMHTuWoKAgTp06ddFjW2+EExMTZW3h6E+K6ptZd7CSkoaWlKeWKbkXN/0BBjXxwQb6hxqItOiIDzaSEmkixKRFc6ZNp7uhnrJ9e2hsduGmZZflciPiDoeD0rLSC5r9oKAgXM3NNNlsqALDMMX2w9VQizn67PojW1kRKpUKb0QCpsjYs7rxOCtKkESRMMmFVqNGExKBPiwKV2MDGnMAgkaLBDTUVFOYeQgNPoYOHer3JhapqalkZWXR3Nwsu3ZOTg4jR45smzukoHApKKa/l2MwGIiJiek0gnUpSJJEVlYWEyZMkF37SpBdmMc7e99m+p1mgpNMVDsEXA3N/OTuh7l9/LQeWVNmQTYf7d5MavRwJiRPY8e3h7EbJa4bIOGsdVNXLxHQbOKe8bexYecnnKooIj15KBajmYCAAAIDA/3SBrKqqorg4GCio6Nl01U4l9TUVI4dO4bT6ZRd++TJk1f17tylkJSUREFBATab7aL50pIkkZ+fzx133NHWRvFiSJLUZqJ6ezezzDIr/zlURaXNhVEjfJejz7mmXwDCLVoSQ430C9ETG6RnYISZ+GADFv13prn2RB55n39GXnk1pRI0OZ3Y7ba2XHuDwdBt899q9qtrqnE6necUtgYEBGC32Wi02vBZgglKHowxOBTJ58NVV40pMvas421lRRgMBkSjBbW+JXXL63ZhLTqJ2u0iJioKU2QshvBo1LqW99DdVI/GHIDVauV01mEcFSWYDXrGjBlDbGys32tj1Go1qampHDp0SPbCXmXXVkEOFNN/FRAeHo7L5aKkpER2bZfLRVVVFcOHD5dd2598eXgnf9z0YyZON2AwCoQGgMego/q0i8/2fsm00ZOIDb/yBjcqJIIpoyZyU9o43tzyDrVCJteN1qHTQECggMeop9ruYt7IO3n5v59h+pibsRi/a8kWExNDQ0ODX9pAnjhxgkGDBmGxWGTTVTgbQRAYNGiQXy76AJmZmYwbN65XDBO8ErSmvh0+fLjTFBSXy0VpaSlz5szh+PHjnd54+Xw+MjIySElJ6bV/E/sK63n3SBUWs5bJg8Np9knU2j3YXSKG1hsAWqL70UF6UsKNxAXpSQ4zMijKTLhFh1bdYhAlSaJkz27yPttEhQ2qwmOwueyoaDnP+Hw+XC4XzmYnNrsNn8+H0WDs1Cg7HA5KS1vMfnNz83nNflNjI6Vl5Qg6A4JWT0hyalsaj08UL2j69Xo9otECKhXWopO4SgvQ6g2EBFgI7jfgrDQegPryUsqLi7CWFmLUahg5ciSTJk0iOjr6ihXDG41GoqOjyc7OlrWwt3XX1mq1MmjQINl0FfoWium/SkhJSSE3N9cvRZnV1dVYLJaror2jy+3i/976My/t+js11R7CIzXknJI4VKvHrdOhDtHT3NDMh9s/Z3C/gQyMS+qRdf7ff/7ICd9GBg7VU28HERV59VrKakEToOXzrV8yceB19DtPCtLAgQPJycnxSxvIb7/9lsTERNnG0Suci8FgID4+nqNHj8qe2ytJEiUlJYwYMaLPdPTRarUMGDCAjIyMTl/PxsZGfD4fM2bMICMj46I3XpIk4fF4yMnJ4brrrut1N1K7Cup4N7OGEYnBDI8LRBBURATo6R9upLDOiUoCjVogzKRhUKSJ+GBDS5FupJlAg6bt/4focpH38Udkf7KJEm0kGYHplDsEBsdqCQwIAJUad7tOSV6vF5fLhdvtxma3IYrieSP/Z5l9V4vZb3++ajP75RV4zMFEDx2Jz+MGUcQY/l19SkfTb6+tpi4/B71GjUajoamhHk9FEWqNFkO/FKITk9E029AGBCOcSU1tqKuh6GgGzU0NaFUtgy5vvvlm4uLieqRTU1hYGD6fr0szJ7pD665tUFCQsmurcEkopv8qYuTIkezfv98vEcS8vDyGDBnSayNeAA22Jl74+E1KqqoZHj2e6IBEtu4+QnyamcRgL9XFbhx2iSR1HAOi+7Pyw9dotFtJSxqC2WC6Imt0upw88Z9FnGzeTsnplgLsgxV6CpsNNIsqXLVu6ndVIzpFPjuwjSH9UknpcGPSvvezP4q4MzMzuf7665XcUD8SEhKCIAgUFRXJbvxtthYjlpycLKtub8ZisRAcHMyJEyc6fT1LSkpISEhg2LBhHDt2rFNtr9dLWVkZ6enpveZG6nillY+O1eHy+nC4vXi8EkEmDTU2N9uOVROs1xBm1jIwwkRCsIHUSBODosxY9N/duDQ31JP7/gaObd1OviWVQ+Zh1Fq9FOecJNwikBBrQqMWMBkNBAQEIAjqs3LRRVHE5XLh9XppamrC6/ViMBhwOp2UlJZQU1ODy+1CFMVzzL61qYnS0lJcOjMhg0cQGB6FUa+jubH+gqZfUuuoz89BstahFVreB41Gg0f0oo9LwhTbn8AAC0FGA676WrQBQVhtTRQdO4KtrBgNEkOGDGHKlCn069evx2/iWmdONDU1yR68yc/PV3ZtFS4JxfRfRQiCwNChQ9m/f79f9Hv7IBCDTs8Nw65n1vjpDE8azJ/WPU3qKA9J8QIWA8RGCtRrDVRWN/D6Y//k6aX/yy2jbrxihv/rzH08/NwStu3PJDujJXJWVOXDo9YQgIdBoSJlxSLuBg9RQeHclDaOlzatJbMgh8ToBCKDw9tMh16vp3///mRmZsre+7k1n3ns2LG9xuRci/Tv35/S0tK26LNc+Hw+SktLiY6OJjy85zpUXWmio6OxWq1UVVV1qbB34sSJGAwGioqKLnqsJEltxsxfbZK7g8vj5VRdM0F6NTaXF5UETQ6RY6VWKuqd9As2khJhIiHEQLBRw4i4AELN393AW0tLyH3/XY4dyOSAcSgZ2mQaGxwUHisgIVzP9enh4LUTHmpp+/sXBAGDwYDZbG5JqfF48J55jT0eDx6PB69XpK6+nrq6Otxu97lm32JpMfsVVYgBodhtVkwR0RiDgjHptKhUnNf0O2qr8Vkb8Fob0AoqJL0JU1wSjpoKdDodUkQc+sAQDFoNoWYTSBIN5cVUlBRhKy9B8HkZOHAgU6ZMITk5udc0plCpVAwaNIiMjIxuzZzoCq39+0ePHt1rnq/C1YFi+q8yTCYT4eHhZGdny67d2iVk3LhxsmvLic1p596/3Ufy9bVExWqxulXoBNhWbMRhl9BG6Hn/g0+Yf/PdmPRXZvqmJEn4JInrUq5n6ayH6B8Vx5b9e5gyK4BKjZEJyV4iAmFAfwFRo+Z0XgN3TbyVDX94hTtvmElUSMQ5BjwoKAi9Xs/p06dljxa73W6am5tJSUmRVVfhbAYNGkRmZqbfLvrDhw+/JifMXogBAwaQm5uL3W6/6M2wz+fj5MmTzJ49m7KyMhoaGi6q25qKERcXR2hoqNzL7hZNbiclDc18U2SnX4ieYVFmQk1aogP1DIww0S+4pfVmv2ADQ6ItbTn79XnHyf3wAzJzSvhcNZRsorBW1XH6WAED482MSw/D57Wj0aiIjw5DqxXoeM+vVqvR6XQEBAYSGBCAw+lsO/d4PJ62m4GOZt9mtVJSUYUYGEbQwKEYg0OxlhejDwwmKDQU9ZnIfXvTb6+tpv5kLtgaUKvVSHojxrhEAmL7odEbsJcXo9PpEI0WDCYT4RYjjVUVFB09jNthR+XzkZSUxJQpU0hNTe2VO5cajYaBAwdy+PBh2c/hXq+XoqKiPpXqp3D5KKb/KiQqKoqmpibKy8tl13Y6nTQ1NTF48GDZteXgdGUhy9fNJTSpluoKL063xDf1ZspsGlBBU66Nxm9raWq0cuD4Yb439pYrEulXqVSEBAQRERzO/77xD17f9gq33GHGbBFocKvJq9dSYtNQ41TjMunxILD9q68RBIGb0i58kxUfH09VVZXsbSAlSeqT/d+vNGq1moEDB3Lo0CG/5Pfn5uZeMxNmu0J3JiA3NzdTWFhITU1Nl+ZftN5IpaWl9diNlMcrIvp8hAeoSQpX4/Z58UkSgQY1oRaBfkEm0mItJIQYCDS2pK80FRdxZMO7fFPo4N3mFE66A3CUV1KYc5r0lGDGjwjB57Vj0GvonxBBRKiF0rISAgPNF+0CoxIEgoKCzjH/rbSa/eLSMpwOB0HDxmAKjUClatG0lhUREBqOpV1b1ObGerwOO/aaSqTGWrQC55j9VlpNv2QOxOATKTl2BEd1BYIkER8fz+TJkxk6dKhfpuzKidlsJiwsjNzcXNnP4Xa7HbfbzYABA2TTVbi2UUz/VcrgwYM5evQoDodDdu3y8nLCwsKIioqSXfty+GDPx/z0zUfJPVHD4f1ODCaBrHwJj82LCRGfXcRh8yI2eIgKCaewsoRXPn2L2LBohvZP9Xs05FR5EXf8ZiGlngPcMNXM4X1OqjAwIETk1D4r1koPdpuEW1ShjzagizDw5Vc7abY3Myl9/AUvwKmpqRw9elT2NpA+n4/c3FyGDh2K2Wzu/BcULgmTyURUVBQ5OTmyG39RFKlOZECuAAAgAElEQVSsrCQtLU1W3d6MTqcjMTGRzMzMTl/Ppqambg28a+1y1RM3UpIk4ZUkjFodFp2eMJOR+CAD4RYV/UKMJIUEEGbWtUXNndVV5G76kK8P5fOWcxAFdV6aSyspzi9l7LAwJqQH4xPtWMwGBiRGEx5qpqy0hJKSUiIiwrFYvguGqFQqdDrdeevFWs1/QEAATqcTs8mE3WajuLwSMTAMU1wSzVVlGKMTULfLo7dXlBASGYXO3JJ3bqutorm6Ar1ahYCESq1GCAwjJDn1LLPf9vvlxWi1WmzVlThrKhEkH1FRUUyaNIn09PS2wWJXA5GRkTidTioqKmRP9SsvLycyMpKIiAjZdBWuXRTTfxUzevRo9uzZI7uRgJZBIL3pxHo4/yg7MvaTFDqU28fMoq6pkZxTZf+fvfOOj+o80/Z15pwZzYykmVFFBdQFEsVCCIyxjXtccAGMjStJcC8k3mTjeLP5kk0235dkk+wm64B7bMdAXHDFNbaxwYXeRRGo9zrSSJrezveHLBkJgSQ4Iw3oXPzmJ2Z05plXU87c7/M+z/0y5xoL7igD83MDZKUIGCxamqs9SLKOj//4CrdddiNBWcbpcZFgjguJ8G/uaOU3q//MI0/9FH18O26XzI6vXFhbA2iyLVTXBhD9AQIaDRq9iL/bh22rFXeDE9kXZPPBnXxZvI3LCi/EZDy+MUsURaZMmcKuXbtC4v3cWxs61o1vZzPx8fH4/X4aGhoU/9K32XrKI8bTxl0mkwmj0UhFRYXi5z+fzzcmNsZddh+OgJsurwunz4tG0CBpNBikCAxabd+5y9XWStVnH7NzbynPtk5kZ1kbe9b9g6QYE0XTk5g7LZqg30GMOZIpOSnEWQzU19XR3NRMcnIS8+fPY9rUfJqbm4GeJmmtVovL6ewrbRpsFUWj0RAXG8vu4gP4LQlYcqaiN8cQ9PsGFf1ypxWDyYLP7aaj7BB0dyBpNJgSk8meMQuHw44sadFFDb7LbK/oD/h8xMfHc+GFFzJr1qwztnk1KyuL4uJixRN1xyZvwuX7WiV8UUX/GUyvGNy5c2dI4u/Zs4fzzz8/LDYCSY5N5JKZ5zMr9xz+/PrTbC/fwmXXRuHTSljdInafhm6vBp1WQJscSWNVJ29//hHLr7mVufmFg9bMK4UkSqRPmMhFMy7kqhkLufXCO4nSmyCtDLc+AiK1iPEGdAl6tCYtolFCaoEnfvA7Fl1wzTe2nTJHasrJTc3EPMiX4LE2kEo39vr9furr68PKveRsJDMzk6qqqpC4edTU1JCWljaurFhTU1Npa2vDarUqPpHq6OhAp9MxadIkxeIOhb22huZOLUa9FhENfg9oEInQiRAM0FFyiKpPPuTwgVKebE5mc2kbe9e9zO7Pvqar0873l12IqPGTkGBm6pSJWEx66utqaW2zkjZpIhdcMI/Jk3MwGAwEAgGcTieiKFJaWkpFRQVarZbm5mYkSSI+Ph5Zlo8T/6IoUmvtxJKR23euCPi8x4l+rUaD19qE325D7u5A0gjojNFMKZrLhIlpaLVa2poaCAqa40S/1+XEVl2GGPBjsVg499xzmTNnDiaT6Yw+PwmCQH5+Plu3blU8dq/wV5M3KkOhiv4znKioKKKjozl69KjisQOBAKWlpcyePVvx2KdCccVhFvzsDto5xGXXRlFXG2DCBBHRG+BoiY8OtwarX4tbEIlINdJts/P6B+tZMPcy4kyha86TRIkESxy5E7PITsnglc/e5p2DzzBzVgSegIDN079MQCNp8Li9fPDJJ9x00fWsWHwXiy9cwOWz5g8q+HuJiYlBEARqa2sVrw3t7u4m+E1jnEpoGMlGUyMlGAz2rc6Fe42zkkyePJlDhw4NO3s6f/58cnJyqKysPOlxwWCQqqoqMjIysBxTkx5Kvt5XQ/D9tRDU4LO70fh9uCuP0rzxU6o++Yg9dXZWd03i7c5kBGs9/3ziOWzt3QAkJJhZtHg+M2dkYorSUldXS6fNRkZ6OufPO4/MzIweVx6/v2e32upqjh49Sn19PTEWC+np6URFRaHX6+nu6qKpuRntN+Ifvs38i6JITVMLhrhv+4AGiv6uxlrcteVEaEDUaDAlppCckY0fSEr5dl+StqYGgmjQRfec87xOB7aqMnzNdcSbopkzZw6zZs3qO++dDURERJCcnExxcbHisXtXEgsKChSPrXL2oIr+s4CUlBRaWlpobW1VPLbdbicpKWlM6wWdbher3n6Bn/z9x6TkujBZNGzb5KK2XaA1OhpPSSfuRhf2eg++dg/eFg+eRjeCRsBut7PmozfITkknP31ySMcZCAR45Ml/Y7f9H0wr7BFeQlCm3nG8pZouPoKAGOTlN9/AoNMzb9rwJlbp6enU1tbS2dmpeLa4rq6O5ORk4uLiFIur0h9JksjJyQmJm0evf/esWbPCYnVuNBjpDsg2m43rr78eq9WK1Wo96bG9E6mCggIiIiKUGvIJSUyOZ40zCefBPXSXH8FavIeDTd28607iSfdUtrjj6AjoiAi6KV79HHa7i/h4E//5n8u55ppzmZKTTENDPXa7nezsTM6bey6TJk1Ep9Pi9/vp+kbs7927F2tbGwkJCaSmpGA0GvtEtSiKREZGotfr6fpG/Eui2Cf+g8HgCUW/H4G2kv2Y8BOhlTAnppA5o5DkiWkgB+nq6iIu4dv7tTU1EBA0oNFgqyrF11JPvLlH7BcVFWGxWM4asX8s8fHx+Hw+amtrFY3baz0LhIX1rEp4oor+s4Tp06ezZ88exa0BAY4cOTJm1oBOt4s/vvoEn+/9ighNJFGBTOKlPBqaO4jKEwnqdfhijUhp0Rgzo9CnGAm4AyTYzVyUPRenw0VLRxtvfvkBta0NzMjKx3KSbPqpEAgEeHfLJ/xk9SNoJu4hMflbkR8hyshB6PBqkGX6fYlpLTrkAPxzw2eUN1Yzb9rsYTkNqTaQZza9bh5Hjx4NiRWr1Wpl6tSpisYNZ3pL34qLi4ecCHs8HhoaGrjpppsoKSkZsjk+EAhQXl5OYWFhyCdSOlHgvPQoWs0T+ExO5YNgOp84E6j2GojSaUiOEkg3Q1TlNrZ/vZ/H//eH/PTRW5mQGI3P78TldpOTk825c2aTkpzcs7GVz0dXdzeVlZUUFxdj7+4mKSmJuLi4k1pcHiv+u7u7kWUZi8WC1Wqlqd3WJ/plWaazoRac3eDsxmQyIeoiiJmQTO70mX2P4fN66OzqJD7hW3OItsYGXO1t+NqbiTebmD179lkt9o8lOzubo0eP0t3drWjcYDBIbW0tEydOHHPrWZXwRJCVLhBWGTPcbjd/+MMfFG/2FAQBi8XCQw89FBZeyM99sJY/vvdr5l0VzcY6PdD/C0L2B2nb0MwPb7ib/3fXv9HltNPU3oI5ykRMlBm97vSzdrIs8+T6v1PTUs9nJevJnukmJq5/GY/DHsTnlYmM1tDuFdm8X8bT5EKy6BAkDe5aBz7rt2UeJmM0P7v9Bzy08PtopZNvuNLW1sZTTz01ImeS4SAIAjExMTz44INh8VqfzXzwwQch2XVZkiSuuuoqzj33XEXjhjtff/01n3322bCez3nz5lFUVMQzzzwzZKmVJElMnz6dxYsXKzXU4/D5fHR0dODz+Qh+44MfCAQIBAL4/X78fj8+nw9RFDEaI6mpacJolGhpaSUiIoKsrEwyMzP66rm9Xi/ddjt1dXW0tLSg02qxWCwjmrgIgoDRaESUJGpraigrKyM6OpoWl4+Y3KnYaqtxNFShFzUIkoQuIZmkjFyslUeIs1jImfZtmYmju5OGulpy879tjj6wczNGjcC0adNIS0s764X+QAKBAL///e8VL/WDHoerhx56aFz1+KgMDzXTfxYhSRJZWVns3r1b8dg+n2/MrQFlWeYXL/4Xr+x5nPMvMxIhQbtbxOXv/0UmaAR0cRF8sfFrissOc+P8a0mOm0C0IRJJVKbJSRAEdFodH+/cyOZ9B6kqd1FV5qW6zMuBPR52b3FRvNNNSbGHQ3vcSNES+mQjLjc4SrrwNLgIugP95isen5cNu7/klc/fxtrVwazcGURoBxfeRqORxMRESkpKQuJeMtav9XggOzub0tJS7Ha74qValZWVZGVlYTabFYsb7qSlpfVtxDXUZ6Kuro5JkyYxbdo0Dh48eNJjg8EgbW1tREVFkZKSouSQ+xBFkYiICARBwOfzIcty3yUYDKLT6TCZTASDQazWdrq6OggGg+Tn51FYOJP4+J7dvL1eL7bOTioqK6mtrUUOBomNicFgMAxbVAuC0JPlNxior69nz+7ddDrd6GPj0fi92Gw2OqrLEF3daLVapPgkzLnTiJuQjEbU4GxvxaiPIDYxqS+mx+vF7egmJi4Ba1sLh3dtIzU+lssvv3xcZPYHQ6PRMG3aNLZt26Z47LG0nlUJb9RM/1nI119/zccff6x4XEmSuPTSS7nwwgsVjz0Ubq+HB/76L7Qbv2Ji+rdZ8LJ2kaOdg2fuA+4A3fs6mGbO5fVf/43k2NBsQmV3OWjuaMVm7+LjnRv5zeo/Y5kgIeTG4LP1ZHEMkyIRxJ4vNjko4+/04azoRrDK3HH5EvS6CJweF3GmGPLTcpk3bTYZSUM7h3zyySds3bo1JNniyy67jAsuuEDRuCr9cTgcrFy5MiT7bRgMBlasWHHGWhyeCl6vlyeffJKOjo4hJ1JarZZ7772X/fv389VXXw0ZW5Ik7rrrLlJTU5Ua7qDIsozL5aK7u/ublTyB7u5u2tvbsdlsREZGkp2dRWpqKhqNBlmW8Xg8dHV309LSgsNuR6vVotWefLVwIIIgYDAakSSJutpaysrK0Oj0xKZnYUmYQKfViquhkpbmZmRBQBOTiGliJqJWS4QkopN6xGVb6SFiTGZyZ8zsi93d3UVN6RG8TjtJcTHMnz9fdZn5hgMHDvDGG28onryRJIkpU6awdOlSReOqnNmomf6zkLS0NGpra+no6FA0bjAYpLq6elStAVtsbfz5rZX8Zv2PicmtIS6h/xdFrEEmShugzaXBbfWi0YvfWsnZ/bjrnDQ0NfGPDW9iMkYzM3ua4lklnVZHbLSF97d+yi9f/CM5s/Sce0kkDf4ItJYItBYdwjcb6gScflzVPQIvMseE1+6hrKaSheddzc/vfITLZ83/pu9geBnazMxMKisr++pulaLXvSQ9PX3U3EvGIzqdLmSrc70Z/9GoRw8XRFFk8uTJ7Nq1a0gR1dv4vHjxYhobG4c8X/Y29hYWFoa09E0QBLRaLVFRUQQCAVpamqmurkGn0zFt2lSmT5/Wt4Ljdrtp7+igtbUVa1sbAj3vqZFkdwVBwBgZicFgoKGhgd27dtFibScuewopufkYvtlcy+N2Eei20e3xETN9Nsa4RDSiiKgR0GuP2ZTL2oJBryduQk+mv621mfL9e0g0R7HgqivJzs4eN+/H4ZCYmMiECRMUX7UdK+tZlfBGFf1nKeeccw47duxQvOZbluVRsQZ8/M3n+N7vf8h/rfsf5IRDJKSCLkLA45bpbA/Q0uin4qiX5no/kQaB1DioaZTp+KoVb4sbT6MLx5EuZG/PSdTpcfHh9s94b+sn5KXlfOONrwwuj5uH/vff+O91q5hzVRSF52jRS5AaFaCiWehp4BUFvFYP9oOdROdEEpusIypCRp9sIDBBx8e7N/HyR2+SETuJnNSMES3Fh8oGsve1Hi33kvFKdHQ0sixTVVWlaNxjM8ZTpkxRNHY4YzAYSEpK4tChQ0NOhN1uN83NzSxZsoSDBw/idrtPenwgEKCqqorCwsJRKUnpretPT09n6tR8oqOj+x7XZrPhdDrxeDx4vhn3SMbUW7NvMpvp6upi65YttHbZ8aIhLi6ehIzsfvE8Dge+bht2r4+o5G9FZKROx7EP62xrRa+PAFHi8M5tGGQf111ztSr2T0JCQgIej4fGxkbFhf9oW8+qhDeq6D9LEQSBgoICtm7dqvhmTqNhDTh7cgE5qZl0djs5dLCLw/vd7N7WzaG9HkoPeampDtDSHKCp1kdluQ+3xYhoiUBK0OPv9CH7ZESjSNDVv6m5uaON1Z+8zie7vuDignnERJ9ezfO2w7u55T/vo6x7K1dcF01y0rcZNq0IAVeATk1PVjAuRuDcQomZEwOkm/xMjA6gEaDVLSFowGHw8MpHb7H63XXYXQ7SElNO6tvf9zharWoDeYaTmZlJeXl5n+WeUgSDQVpaWjCbzSQlJQ19h7OEuLg4AoEA1dXVQx7b3t7eV7q4Z8+ek54veydSDoeD3NxcJYc8KDqdDovFQmRk5HG/s9vtNDY2IssyMTExSJJEIBAY8hzQW8ZjMpvp7upi8+bN1DS3okmchDE1A53sJ84UhfTNuTHg8+JqbcTb3kIwEMDu8WFM7Olt0GslxG9WMT12O9bywwguO0IggDbg4dqrryInJ0c9dwyDzMxMKioqQtLjoyZvVHpRa/rPcsrKyli9erXicSVJYurUqSxZskTx2CeitK6C637+Xdp9TcTOisGt1xHo9qMximikb79UZFnGXe/C0+BC1y3yo5vuIyclE6fHhSXKzNT0XLKS00+pwcnj9WDttrHl4A6eeP9pHBFl5E7VEW0S6eoMUFfjp65dwJKkIzZRwi8LVHdJSBqZSye50QxIxDU5RHa3RNCxtQ1fW38LzmkZU/jdPf/OFUUXDWts+/fv54033hjx3zQUkiQxbdo0brzxRsVjq3xLIBDgnXfe4eDBgyHp0bjnnntITk5WNG44I8syr776KqWlpcN6PvPz8zl8+PCwYkuSxKJFi8a02b21tZWGhoa+63q9HrPFgsftxul0Dvo3G4xGjEYjHe3tPRbPQRkpcSL62J59WPRaCYOrE9HvQxufhMfaCm47gt6AKwDO5nqsDjdx04uQNBoMOgmP04GtphyNy0FsbCzTpk0jMzNzXDbnni4ul4uVK1dit9sVjSsIAomJidx3331qL8U4R830n+XExsb21eIrSY+LhBWDwRDyxjaAD7d/xqJffB/Z3M2Vi6LQGUTaPSJChIigEXos7pwBXDUO3PVODJMiMaZH4hf9fHloOyYiue+6O5mVO4M4U8wpZ56sXR3c/Kt7WLPpJUzJnQSD0FjrZ9dmJ/v3+/BmxxKMMeIUJRw+DZ1eEWTwBTUEZYg39M/CRelkPAFwaHW463pq/Zd95yZ++d0f84f7fkF2yvA3WZkwYULIejmsViuRkZEhcy9R6XHzmDx5MiUlJTidzpBk+woLC0fc4HmmIggC06dPp62tDavVOmQGvK2tbdixg8EgR48eJT8/f9As/GjgdDr7+bz7/X4c34hFS0wMkij2Zf4NBgNmiwWH3c7mzZupbm7DGwwiRpkxflPqqBU1xEcZ8Tu6Ebxu/F0dCBoN2rgJRMQk4PP78disuPwBIhOTkQJe2suP4mmsJd4UTVFREXPnziU2NjZkgj9Y+RQLZv2czutv59zYs2/1QKvVkp2dzd69exVftfV4PHR2dpKXl6doXJUzCzXTP0547rnnFN8BEHoyXsuXL2fiROVq5I8lGAzym9V/5g+vriT/XCNFsyMQvznXV7UK7K0U0CXokYMyPqsHb5uHCTOiMGhBq5Fx+gQ6vSLedg9Ca5AHL1jGD667C3Pk6W3QtafsAMUVhwkEA3Tau/jdy38lbYqPKbOM2P0aEiKDaI9ZSPi8QodLEMk0+cmL9fFZTQQ+mw/Z5cfhAilKS8Dho7u4k7U/f4LFF15zys/Xb3/7W8V7OSD0r7VKD3a7nZUrVw65cdRIEUWR1NRUli9fPq7KLfx+P08//TStra2KlzpGR0ezYsWKkPY3nYiBmf6BGAwGTGYzcjBIh83G7l278KBBSkxFb4nDVnYIrV5P5MQsRI1ArE7E19GKxutGI2nRxCSgi4zui9fV0Y69upSmjk4MJhOS20VsbExfZv+491Swkj9flMePvz5Rr5GehWuaefsOZTdLPBvYt28f69evD8mK34IFCygqKlI0rsqZg5rpHyfMnDmTbdu2KX4S6c0gzpw5U3FHi0PVR7nrj//C56XvcOmCKHJytf3KY0wGGbtGhzOgQdRA5gQ4b5pAToyf1KgAyZEBfEEBq1vEZ/USlGS+3L2Vx//xLEfqyjFHmki0xA+5EdZAPF4PExNSSI1Pxu5y8IdXHydtup2COXr0OoHoCLlvYgLQ3Ohn5zvtuOucdHhFGmwC1l02bCUOHA0evC0e3HVOAs4AggBHqspYeskNp7SJmCAIXHDBBZSXl4esNjQUr7XKt+h0OtLT09m3b5+ir58syzgcDjweDzk5OYrFDXc0Gg1Tpkxh9+7dim9cGAgEqK2tpaCgYNTLWRwOx0nLQHoz/83Nzew9eBghIRXjxCykb3b99nS0oZEkNNoIopw2NHYbgighayPQCAIRAyyOO1qakAJefC4nCWYTc+bMZu7cucTFxQ3+twfr+fKrCH68/lNe+vNv+L7lM57afglv2/ay9pc/ZElWAwc8F3FDUfTx9x3nJCUl0f2NBavSjb3l5eXk5uYSHa0+7+MRVfSPE3qXukO1EYgS1oBen5emjlY27t3Mf6z9NS9t/29Sp1nJL9ATCEBlpY/9RwIcbhLpErR0eEU8QQ0uv4aJ0QGmx/vQDnh4b0Cg0SHhKO/GWWYn4AzgDwQ4UFnCxn1biDQYKcyZPqJxbz64k6sfu41f/f1PrN+2nvw5fqLNGmorfez42sXuzR5kr5YJEwV8PpmvPnHgsMvIPhlvi4fuGjd+V5CYKDPTM/KI0EUAMm6HmyhdJJYoE80dbVw684JTEhIajYa8vDx2796teMa/1w1i5syZ4ypbPNqYzWb0ej2VlZWKf+k3NjaSkJBAQkKCYnHDHb1ez6RJkyguLh7WRCo+Pp5FixZx8ODBIRt77XY7fr+frKwsJYc8JEOJ/l68Xi/tQRFDQv9+Dk9HG7Kjmzgx2OPPHzsBfVwiQb8P/L6+Rl5bexvVxbvxtLcSGxtLYWEh55133onFfi+yHTH1Yi6eFoMGGdvWF1m1KYalP1nMFJ2BCTOmkRAwMGni2JRHhTvZ2dkcOXIEh8MRslI/NXkz/lC/tccRMTEx3HLLLYrH7XUI+eCDD04rjsvr5s7fPsz3/vgAR6zbcbuC7N7q4p2Xu3j9xU5KO3W4UyyQYMQeELF5RDwBAb0YpLZbpM11/Ns5KTJAhslH5GQTgrbnC2rB3Mt5+sd/5ODzG3ng+u+OuKH3onPOY9dTH/Or7/2E7AlT2L4xwOZ/gs52Dj+/8VeUPL+N5fMeo7LUyz/f6qalMYDFGMWtOXl8b8bsPrHs9nl497cvcfD5TTSs20f3e2U0v1HM9ic+5P/e9dhpZQ4jIyNZtmyZ4k1bwWCQ5uZmPvzwQ0XjqhzP3Llzyc/PV/w19Pv9vPnmmyOqYT8byMjI4PLLLx/W82m1WpEkiWuuGbrMzu/3s3nzZo4cOaLEMEOO12HHdvQAgt1GYmICURMzMaSko/vGj7/Xf7Or08aRnVtpPrgXg0bgvPPO44orriA3N3d4E34xi/PmJp1YZIiZ5Ij/5GeLzuGKh37N94smYM77EZ91N/PJL64hL1aHRrKQ/Z3/w4Y2Gfxt7Frz7ywqWMBfKoL4W3ey+mcLKVj4V7a+9+9cmW3BlPYdfr9N2SbYsUIURe64446QOO643W7+8Y9/KN43oBL+qDX945D333+f7du3Kx5XFEWuvfba064X3Fd+iK8ObCMQCOAP+Hl903tU20pYsDQaq0ODyQhG7bdv2y6PwKZyLTqjyPR4LwmGAJ9VRhDs9ILLj9MNYlRPCU/nDisrf/hb7rrmttMa41C8vOEt3v76Q6xdNqL8HqZtfxcdPWM2X3E7r9u62V1azK2XLeK5f/3vkGXNd+/ezfvvvx+S2tAbbriBgoICReOq9Mfv9/PUU0/R1tameD262Wzm4YcfHnc2fi+//DJlZWVDfiYMBgP3338/GzduZO/evUPG1Wq1PPjgg8TFxSk11JPS0tJCY2PjkMfZ7XaOWrvRmmJw1FehcdkRYxIwShoS4uPRJ/ZvzrfW19BZV4XX40Gv1zN9+nSmTp16mg3gQSr/cjH5/5nF641/57oIwL+DX869gv/a4yBh8dNsWHM3UwwQrH2aK+Z8xPLdr3KT72XuKLwb23/V8s9z/8ZFF/+Gba45/OnwZ1y6Zj6X/r8dOCZew8//76+5/5oY3lt2Lo9GPkP9K0s4W9YP6urqeOGFF0JyDi8qKmLBggWKxlUJb9RM/zjk2muvZcKECYrHDQQCrF+//rSdggqyp/LwwuXcdPH1HK2roEsq5Zol0WglgSSz3E/wAxza5sC6oZnWTa3sLIUt+4O0fN5Cy+Z2WvZ0YT/cRecOK90HbIiREr9/eSXNHa2nNcahuO3yxbz6y2f49E+v8cj0wj7BDyAc2spXj6+n7rU9/PSWhxUXc8cya9YsZsyYEZJs8fr162lqalI0rkp/JEli2bJlIVmGt9vtvPbaayF9/4UjS5YswWQyDbmS5nK5eOWVV7j66quHZXXq9/tZvXq14pvknS6yLONrb8ZVuh9JkjBOOYfE7CnH7areZeugbNc2rJWlIMsUFBSwZMkSCgoKQuP4JM3hP7dv4T9mRZB10eXkGnpu1ky6n8+a3mJZig5D2jVcV6TFYXchFvwfvtr6K4okAInCX27m618WEpG+gHtumU2yJYMLz8/C327Ffha9pSdOnMjVV18dknP4rl27OHDggKJxVcIbVfSPU+69996QWfe9+OKLOJ3OU7rv1kO7mP/IQibdMosp3z+Po973OWe2nrZmP1s3Onn1bzY+fddBe2tP1qPDGqDsYI+/vb/LR8dXbVR+1UnQHcQYYejXDBt0BQg4/DRam3n4f3+G3eU4/T92GDht/ScYtsYq/B43sdEW8tJyTmm/gJFw/fXXExcXp/hqQq/IUdplRqU/ZrOZ2267TfH3SXCsZMMAACAASURBVO/usps2bVI0brij0+mGXfrW1NTEhx9+yK233orRaDzpsbIs093dzeuvv67UUBVD1Oow5MwgKnMKkZFRWCINfb/r7uqkdPc2Got3gcdJXl4eS5YsYfbs2aF3JRL06PWDTL78bexZ91/cf9V8fvSppy9lIuiNGPoOFzAYDBx7b1EUEWSZs0jzAzBnzhymTp0aEuH/1ltv0dLSomhclfBFFf3jFK1Wy/333x+SspJgMMiTTz55SvWC500t4o1f/42bL74eSdCxdaOTt9d28em7TpLEIv5072/58rdfUXVYoq7ax4dvdOP3g16r4+rkVLKPaVabmJBM+zsltL9TQtmarex48iMOv/gltvVHeP1XzxFlGJ0FYEd7c/8b5CBt1SWj8tjQ80UYqmyxy+Xi5ZdfVmtDQ0xmZiaXXnppSL70v/jiC8rKyhSNG+7ExsaydOnSYT2f+/bt48iRI9x8881Drg74/X7Ky8v58ssvlRrqaSPLMproGLSRUWhFDXFRRpBlnA4HDVUV1O/dDi4HOTk5LF68mHnz5g05wQnpeJvf4/7Zl/AfBydy+/++xR+u6jE6GO8sXLgwJHsg+P1+XnrpJdxut6JxVcITVfSPYxISErjrrrtCkmnu6uri1VdfPaX7Jlri+Z+Hfk3rWwfZ9+wGdj31MdUv7+SD361l+dW3EhNlxtqgY9+mCLwemasmZXKvtYyCkq9ZWL6dG6fPBuBoXQWvfPY2el0EKXETmJYxhfQJE0OeWR/IdT99ih+9XdvvEp+RP6pjiI6O5vbbbw9Jtri+vp5PP/1U0bgqxzN//nyys7MVF/6BQIBXX31V8U3dwp3JkydzwQUXDOv5/OijjxBFkSuuuGLIY/1+Pxs3bqSyslKJYZ6QmJiYoR10jkEUBOKjjHS1tVC2/StsTfUEfF4yMjJYuHAhF110ESZTiDzzg91UVrYQcNVSVuvuk/BBRwMN7UHcrt5svkzL+v/hRfsV/Ou/3MzsyBaqWgN0t5fx5VdHsdfW0Opvo7bOiSy7qKttwddWT4NbBtlJY2MH/tY66lxn3yRBkiTuvPPOkCRvnE4nr7zyyrgr9RuPqJad45xQWQNCzw6XkZGRp7xjr0ajIc4UQ4IlDmPEt8vRMjI/XHwPP775fm66+Hp0n7+Mu7UeABGZOUmp/Om/32FmznQ6nd0jtuRUGq3eSESkqd9FI47+VugWiwWdTkdVVVVIbCATExPHlQ3kWDBlyhT279+Px+NRNG4wGKS0tJRZs2aN+qR4LMnIyKC6upqurq4hrTlLS0u59tpr6erqorX15D1BwWCQQ4cOUVBQELISGVEUMZlMxMTEIMvyCTO1Ho+HDo+fKJ2WhsP7sTfVI8gyycnJXHTRRcyYMQODwTDofRXBv5tfFEzmnvdaCfqr+Odf/5t9k/+FW6ce4TfzLuC3B7xYD3/IOzX5LL8mm+hEPeWv/l9+/vu3qUpfxPUxG1n9QYAFi5q4/9L/ZK/Xyta1G3B0/52H/6cYb8tXvPiOi5gjP+D2x8vxNX/B37+MYdn3zsMyulsnhJyRWs8Ol949PMbCelZldFHde1QAWLduHSUlJYo7BAA88MADw2qEO1X+cmMGnU3fNg+bEifxo7drQvZ4ZzqvvfYaR44cUfy11mq1PPDAA8THxysaV6U/VquVJ598UvE9GCRJYvLkySGx9Q1n3G43q1atoqura8hjJ06cyB133MHzzz8/pPAXBIH4+HgeeOABxVdnBsPr9dLc3Ex7e3u/2zs7OzlaXoFGDvYkUuLiKCoqIjk5edQ3FFNRhq+//prPPvssJI4+S5cuZcqUKYrGVQkfVNGvAoDP5+Opp57CarUqvsQnSRI//elPQ2YN+P8ujcTv6d84/LNPu9EZo0LyeGc6Pp+PJ598kvb2dtUG8gzlyJEjvPbaayH50r/88ss5//zzFY0b7rS0tPD0008P6/nMz8+nvr5+WJMESZLIz8/npptuUmKYw2Kg+O/s7KSiogKz2cysWbNIS0tTxf5ZwHCtZ0eKKIrcc889mEwmAoFAj3W239/3/4HXe/9/omN8Ph9+v7/v58DLsfc59tKb1PjFL36h6N833lFFv0ofNpuNVatWhcRyLi4ujh/84AeKf9kEAwE2Pf/r424/96YfEBmjlpqciI6ODp544gnFX2tRFMnKyuLOO+9UNK7K8WzYsIEtW7YonvEXRZHvfe97pKenKxo33Dl48CBvvvlmSCZSV155JXPnzlU07lD0iv+mpiZiYmLIyspSd9EeBYLB4AmFca+Y9Xq9eL1efD5f38Xr9fYTxz6fr59oPva23ng2my1kdfgajQZBEPpdejn2/72PL8vyoJfTYcKECTz00EOnFUOlP6roV+lHRUUFa9asIRAIKB575syZLF68WPG4KqdGeXk5a9euVfy1liSJiy66iIsvvljRuCr9kWWZv//979TU1Cj+GkZERLBixYrQNXaGKR999BE7duwISfZ0+fLlTJo0SdG44wVZlk+aTXa5XERFRfUdN9Js9ECxPVg2euB9e8X9sT9VFzPl6N2jJCMjY6yHclahin6V4/jiiy/YtGlTSOr7f/zjH2M2mxWPq3JqbNq0iS+++CIk2c3bb7+d7OxsReOq9MftdrNy5Uq6u7sVjSsIAomJidx3332jUo8eLgSDQZ5//nnq6+sVF3AGg4EVK1YQFRWeZYe94nWoco4TiejBjhmYpR4ook9U3tEroHsvx8oUQRD6ZaGhp2RREIS+92rv7YIg9LvvYFlpVaiHJ4mJiTz88MNjPYyzDlX0qwzK2rVrqaioUFwMJiYmcv/9948rIRHurF69msrKSsWzxTqdjoceeui4nT9VlGUk9egjQZIkpk+fPu5W55xOJytXrsThGN7mfYsXL2bTpk3HNdAOpLexd/HixQSDQfx+P4IgEB0dfcrieqQZ6mOF/cky1ANLO3rHf+xPCG1ph8r4RavVctNNN5GXlzfWQznrUEW/yqB4vV5WrVpFZ2enoidvSZKYOnUqS5YsUSymyunh8Xj6XmslEQSB2NhYHnzwwZDt/qzSw4EDB3jrrbdCIvwXLFhAUVGRonGVoFc4D9VgeCoCuquri7KysmGd+y644AIKCgp49tlnh9VfodFokCSpr59GkqTjxLUsy/2y1GqGWmU8YTab+dGPfqQ2nIcAVfSrnJBQWgNeffXVzJkzR9G4KqdOW1sbTz31VEhe6ylTprB06VJF46oczwcffMCuXbsUF/4ajYZLL720z83Dbrfj8Xj6iWSXy0VWVhYWi2VYwvpETh4nK/cYWPbRy8Bmw8Gy08BxZR5KCuilS5cSDAZ5/fXXTyuOisp4R6vVcu2111JYWDjWQzkrUUW/ykkpKSlh3bp1IckgLl++nIkTJyoaV+XUOXz4MK+//npIXusrrriCefPmKRo3nBnMweN0M9HHiuWBzh69x1qt1pD04kDPl7EsyyeM35vBhvGXmdbpdNx7773s2bOHzZs3j/VwVFTOWAwGA48++ui42iRwNFFFv8qQfPrpp2zZskVxMRHujW3jkY8//pht27aFxL1ECRvIkYjnoZw7nE4nDoeDhISEvtsG2uYNloE+WY30cOqjB7O+C2UWWmV0iI2N5d577+W1116jsrJyrIejonLGodVqueyyy8bdPiGjiSr6VYZElmVefPFFamtrFW321Gg0JCUlcc8996iz+jAhGAzywgsvUFdXp7jY1Gg0TJ48GWDEDh6BQOA4B48TlXT0/n7gqa337xkopjUajSqsVRRh8uTJLFy4kGeeeUbxHhkVlbMdnU7Ho48+ik6nG+uhnLWool9lWLhcLh5//HGcTufQB48ASZKYOXMm119/vaJxw43esojTLfPw+/00NDT01VR7PB7S09MRRfG47PTAjVxO5jM9mDWeiorKyLn00kvJzc3l+eefD1mplYrK2YYkSZx//vlcfvnlYz2UsxpV9KsMm507d/Luu+8qHleSJG644QYKCgpOK86JfKbHYgvxgRnqYz9mJyr3GOhUcKK6aPUjq6IS3txxxx3Y7XbeeeedsR6KisoZgSiK/OQnP8FoNI71UM5qVNGvMiJeeOEFqqqqFI8rCAK5ublIknSc4D62DORENdQD38Yn8pYWRVH1mVZRUQkper2e++67j82bN7Nz586xHo6KSlgjiiKFhYVn/Yp/OKDukKQyogz5vHnzaGho6POYVgpZljl69Kii8Y792YuSPQkqKioqg+F2u3nllVdITk4e66GoqJwRzJ8/f6yHMC5QRX+Y09zc3NdAO9KdGE/kNDKSnRgHcxpRUVFRUTk5LS0ttLS0jPUwVFTCGkEQyMvLw2KxjPVQxgWq6A9j/H5/v2aw0bDwU11MVFRUVFRUVEYDjUbDJZdcMtbDGDeooj+M2bdvX1+2XkVFRUVFRUXlbCI9PZ3ExMSxHsa4QRX9YUowGOTzzz/H5/ON9VBUVFRUVE6T/Px8JEmiuLh4rIeioqI4oij222/nZK5zgiCg0WgQRZErrrhiLIY7blFFf5hy+PBh3G73WA9DRUVFRUUBOjs7+e53v0traytNTU1jPRyVccKxDna9mxaGooxXlmUuvPBCsrOzkSSpbxJw7P97LxqNRvHHVxkeqmVnmPLXv/6Vtra2sR6GioqKiopCFBYWcvHFF/P000/jcrnGejhnHSfbqXswq+be/w/MSg+M1ytUNRoNHo/nONE8UFj3GmL03qf3/gNFsFarRZKkvp+9l97rOp2u77pWq0Wn0/X7OZio7r1+MuONdevWUVJSonjpsFar5YEHHiA+Pl7RuCrKoYr+MKSiooK1a9eqtfwqKioqZxnXXXcdMTExrFmz5ozZC2S4rm7D3fekVwwfK4p7hfFgWWK3243NZiMxMbGfOD5WIA8mgkf6/4HXB8tI9264OJSwDmd8Ph9PPfUUVqtV8feg2Wzm4YcfJiIiQtG4Ksqgiv4w5Nlnn6Wurm6sh6GioqKiojCiKLJ8+XIqKyvZsGHDsO6j1Wr7BOiJhPVg9ssDs8zHCuyBwvdEQno4Avlkwnmw8g6Vscdms7Fq1SrF99wRRZHMzEzuvPPOM3ZSdDajiv4wo6Ghgeeee07dREpFRUXlFBiNEo+BIrb3d1arFY/HM+QYo6Ojuf/++3nvvfcoKSkZ8nitVsvChQsxmUzDEtdqzbTKcKioqGDNmjWK6w1Jkpg/f75qxRmGqKI/zFizZg1lZWVnzLKvioqKymD0lmr0ooSwPjazPJzM9ImE8Ugy0yMR0C6Xi1WrVtHd3T3ksWlpadx222387W9/G7J/SxAEEhISuP/++/s9pyoqp8sXX3zBpk2bFC8nliSJ2267jZycHEXjqpwequgPI6xWK6tWrVKz/CoqZymhyEKfqD56KLHcK5C7urooLS1VPNGg0Wg499xzmTFjhqLCOtxpbm7mmWeeGZaImjt3LnPmzOGZZ54ZssxCkiSmT5/O4sWLlRqqigoAa9eupaKiQnHhr9PpeOihh4iJiVE0rsqpo4r+MOKNN97gwIED6q64Kioj5FgB3SsgBUHA6/X2yzj3CuuBp73heEoPpz669+exbhwnazQcbvb5RKJZqZrZjz/+mG3btin+pd9bvz5p0iRF44Y7xcXFvP3228N6Pm+88UZ0Oh2vvPLKkMdKksSCBQsoKipSYpgqKgB4PB6eeOIJOjs7FZ38C4LAvHnzuOqqqxSLqXJ6qKI/TOjq6uIvf/mLmuVXCVuOtaIb6OARDAZD5jZlNpuJiYkZ0rVjMGHc1NREfHx8331ORVyPB4LBIC+++CJ1dXWKn4P0ej0rVqwgOjpa0bjhzvvvv8/u3buH/FxIksQVV1zBhg0bhrUZoyRJ3HXXXaSmpio1VBUVrFYrTz75pKIbgoqiyL333ktycrJiMVVOD1X0hwkffPABO3fuVEX/OGSgkB7spHusewcM3xpvYJ30wPKPkzl4nEhYnyjrfODAAQ4ePKj4SpUkSdx5551kZmYqGlelPy6Xi5UrV2K32xWNq9FomDBhAvfee++4cm4JBoM899xzNDY2Kv6ZMBqNrFixgsjISEXjqoxvSkpKWLdunWIJnLS0NO6++25FYqkogyr6wwCXy8Wf/vQn1Zc/RAxW9jEabh4DhXRv2cdQ5R7t7e3Y7fa+Y2JjY4mOjh5WZnrg9dFElmVWr15NVVWV4pNXnU7HihUrMJvNisZV6U9TUxPPPvtsSJr6ZsyYwaJFixSNG+44HA5WrlyJ0+lUNG7v+eenP/2p6oeuoiiffvopW7ZsOe1zgJqsCU9U0R8GbNy4kS+//FIV/afIscLdYDAwefLkfrsYDkcgD3ezlrOt6VBp3G43q1atoqurS9G4giAQHx/PAw88MG5KbsaKffv2sX79+pCcj8455xyWLFmieNxwpr6+nueffz4kz2dsbCyPPPKI4nFVxi+yLPPiiy9SW1t7WsmbxMREHn74YQVHpqIEqugfY3w+H3/4wx8U3yBDKU51J8beZshQv700Gg1Tp04lIyMDURTJzc09I2qHA0GZv31RQVtbG26nHZfHh8vrw+Xx4w8EWTgvj4Xz8hHFM2+C0dLSwtNPPx2SbHF+fj433XSTonFVjue9995jz549IRGqixYtorCwUPG44cyuXbv44IMPhvV8RkZGMmvWLL788sthxZ45c6bq6HMGIssyPo8bj70bt70Ll70Ld3cXbnsXHqeDLocDrSGSixbfNupjG4n17GBotVqWLFlCfn6+wiNTOV3UlNkYU1xcjNfr7XPiGKr0ZLBa7pHuxHgqftcj9boe7PpHH300rMa2kRAMBikpKeGCCy4gJSVFsbih5EhTN99/fgdbK9oBmDrBAPY2Dh0p6zvmpQ17yZhg4eHr53LP1UVYogxjNVzkYBBvWSXu3fvxHClDdrkRtFqkiSkYZp1DxIw8NHp93/GJiYnceOONvPnmm4q+1n6/n0OHDrFp0yYuvvhixeKGElmW8dc14Nq1H8/BEoLddhBFpMR49IUz0M+cjmgKv0nqNddcQ319PU1NTYrXo7/99tukpqaSmJioaNxwpqioiJqaGg4cODDkZ8Ln81FQUIDP52Pr1q1Dxt67dy9ZWVkUFBQoNVyVEOD3eqgp3kX1vh04bO247V0EB7wXRL2RgM5ATVkJXrcLgIDfx6U3f3dUx2owGFi2bNmwrWcHYjQaycvLC8HIVE4XNdM/xnR3d7N79+5B67tPRVyHc+nJeG9sCwZlHt9Qxs/eKMbtP/7vT4jSkREV4NChwzicrr7bIyO0fPeKmfxw0TzyJiWM2nh99U3Ynl9Lx/P/INDcesLjBJ0O0803EPPA9zAUfSs8PvzwQ3bu3BmSbPF1113HnDlzFI+rFIGubjrXvE7H03/HW1px0mOjrr6MmAe+T+QVFyGE0efXbrezcuVKXC7X0AePEK1Wy2OPPYZWq1U8drji9/t55plnaGlpGXIFND4+nrvvvptXXnmF6urqYcVfsWIFCQmjd35QGR6dLY2U7/iKqr3b8Xvcgx6jjTbj8AWoLS1Blo//bpi/6FbmLxr9jP9IrGd70Wq1LFiwgFmzZoVwZCqniir6VUaVUDW2aTQaUlJSuPvuu8Ny4lPeYmf5Czv5svTkO28CSBqBgmQD1sYaqmrq+24XgCuLcnhk0Tyunp2rmEf7QGSfj7Y/PUHb7/4XRijYo2+4iqTHf4eUGE8wGOT555+nvr4+JHtPPPjggyQlJSke93SQZZmul9+k6V//g2DnyPoa9EXnkPLM/xCRPzlEoxs5dXV1vPDCCyGZuOXl5XHbbaMvZMaSrq4uVq5cicfjGfLYvLw8rrvuOp5++ulhlVnodDoee+wxteclDAj4fdQf3k/Z9i9pqy4f9BhZltHFJNBmbaO1vmbImJfctIzzrxv90sbhWs/2YjAYePTRR8eVU9eZhPirX/3qV2M9CJXxg06nIzMzk7179ypa7y/LMk6nE6fTSW5urmJxT5dgUObJjRXc+MQWylsdw7uPDI3dPmyykaysTLKSYmhtsxIMypQ3trP28/28sqkYAYGpaQnotMp9yfvqGqm57na6Xn0bTkGoe4+U07n6NSIKphGRnUFeXh67d+9W1Pu5l7179zJv3ryw+XIJOpzUL3sI65+eQB6GqBuIv7EZ24uvIMbF9FsxGUtMJhNGo5GKigrFJ242mw2z2Rx2E7dQEhERQVpaGvv37x/y/NfW1obBYGD+/Pns27dvyOMDgQBHjx4N6xWwsx1Hh5WSrz5l+xurqd63HWdnx/EHaUQ05liaWltoqK7E2d05rNhVh/aj0xuYmDO6ZTM5OTkcPXoUh8Mx5HtQq9VyySWXkJ6ePkqjUxkpquhXGXVMJhORkZGKC4lgMEhzczNxcXFhUS9cbXVw85NbWfl5Ob7AqU1wOpx+Gp0CkfEpzJqchs/txOF0Y+1y8sGOozzx7jZaOx1MTo0n5jTr/n11DVRfdQvew0dPK47sctP9xnvoC2cQmT+ZrKws9u3bp7hoDAaDHDp0iLlz5yoa95TG4nBSe+P3cXyy6fQCBQLYP/oMTXQUxrnhsetqamoqbW1tWK1WxT+vZWVlTJ48+YxovlcKi8WCVqulurp6yOezqqqKqVOnMmnSJI4eHfpzabfb0ev1424H5LEkGAzSePQgez58gz3vr6OtpoKA73hjDk2EnqAhipqaKlob6vC6By/1ORmVB/ZiiDKRkjV6q4GCIAw7eSNJEjfffHPYJGJUjkcV/SpjQkpKClarNSRC4ujRo+Tn549Zfb8sy/ztyyoWrdxMSfOpuR8MxOsPUtflxyGZKcjLJtGkp6WtHY8vwJbDtfz1na3sLW8kKSaKjKSYEccPdNupumwxvorh1Q8PHTBA15vvE3X5RcTmTcZkMlFWVqa48He5XJhMpjFt4pZlmbql9+D8/CvFYjo+/QJtWir6gmmKxTwdJk+ezKFDhxQvywsGgxw+fJjCwsJxVd8/adIkmpqa6OjoGPIzUVpayne+8x28Xi+NjY1Dxq6qqhp3E6mxwNXdRenWjWx/czXlO77C3j5435MYGY0LDZXlpXS0NhMchg2mxWzB6/UwWKqofP8uIs0xJGfmnOZfMHx6V+hPlryRJIl58+aF1Uq7yvGool9lzMjNzeXw4cMhERIlJSXMmjVr1Otb6ztc3Pr0Nv7nk1K8AQUFbsAH7i5MugjsAQMJCTGkpM1iemYKaQnRiATYfLiGv3+6h7e/PoxOK5KfloA0zIxL87/+EudnQ1gEarUYzpuN/pypSKnJBLvtyK6TZKuCQZxfbcPyvVtJSZuEzWajtbVVceFfXl5OTk4OJpNJ0bjDxfbsajpWPT/kcfqic9DPnI42YxL4A0PW/Ds3fo35lkWI5rH5u45Fo9EwZcoUdu/erfjGa8FgkOrqambOnBmyPpVwZMqUKRQXF+MeIuPr9/upqqpiyZIlVFZWDlnfP14nUqOBLMu0Vpay/+N32Ln+ZVoqjuAbpDlXlmUkcyztdge1leV0dViH/RiCIJCZlklUVCRBvw+/33+c+C/bt5Po2ASS0rNO8y8aPiaTiaioKMrLywc9h2s0GpYuXaq+58IcVfSrjBm9QmLXrl2KC4lAIEBdXR0FBQWjIiRkWWbN1hquf/xrDjQosDGVLIPPCY4O6GpGj5/0SdNITEynvqOZWRmTaHdrcciRuKREdDHZpE6awoysVAw6DR9uP8zvXt1Ep91N3qR4oo0n3rXT8eVWmv/1lyf8vZgQR9yPHyT1hceJfWg55qULsdxxEzEP34UuOwNfdd0J3X0C7TYIykReemG/SZ6S/RzHihydTqdY3OHga2iidsnyEzY8CwY9MffeScrf/kL8Tx7GfMsizLfdSOyKuzEUFRBoa8dXOfjqiuz14SmtwHxreHiw95aNFBcXK96P43A48Hg85OSMXvZyrBFFkcmTJw9rImW32+nq6uKGG25g//79Q5ZZjNeJVKjwupyU7/yaHW+t5ejmz+hqbeo5Rw9Eo0GIstDQ3ExTXTUu+8hXevV6PbGWWLSSFpPJgl6nx+/1ICB/8w9ESYtgiCK/cM6ovr4pKSm0t7fT1tbWT/iLosisWbOYNi08ViZVTowq+lXGlIiIiJAJCbvdjt/vJysrtNmQJpuLZX/bwe8/PDKoFeew+Sabj70NuhrB2YFOFElNL2BiRgG6CCMdjk7SYjXY3NHHnexlQcQhR+IUE5AsmZgSsuhw+lm/5TC7yxqJ1mtJSzg+a9z8k/84oa2kNn0SGZ+/RfR1V6KJ6l8uJUgS+nOmYfneLbgPlOA9OrhLhefgEWIf/D5iRAR5eXns2rVLcTeYQCBAZWUlhYWFo/ol2P6Xp3F+/vWgvxMijaS9t5aYu+9Aiju+5EqXk4n59huRvT5cm7cPGsNXXoXpxmuREuIUHfepYrFYkCRpWPXoIyEYDNLY2EhCQsK4sp00GAykpKRw6NChIZ/P5uZmDAYDbrebzs6TN3+O14mU0rTXVXNgw/vseGstjUcP4HUObsYg6CLw64zU1FTR1tSAzzvyRv5eIo2RmKK/PU/rIiKwWGLRCBoCPi/GyGimX3wVc69aSGRU1Ck/zqky2Ap9b5Zff8x+LSrhiSr6VcackTS2jYRgMEh9fT1JSUnEx8crFncgTp/M50daabB5cHlHIGZ7s/nODuhu7rl4usHvQZR0JKXNID3nXAyR5r671LTWU5SRQqd7GGU7gohTNuLQxFFlj2LDEQfpMSLZica+Q7zVtTQ/8vNB7y6lJpPxyTq0aROHeBgR06JrcO89gLes8vg/0+NBm5bas5FXRATp6enDci8ZCbIs43K5RtW9SfZ6qb/rEWTH8eVpgj6CtHfXYJw3tJNK5KUXEHQ4cW3dNfjjyDLR11x+2uNVirS0NBoaGujo6FB8xWas+3HGgtjY2J6+kLq6Ic9/lZWVQwr+XnonUvHx8WFhbHCm4Pd6qNq7nZ3riWz0+AAAIABJREFUX+bQxo+wNdUhn+B1EQyROIJQXVGGzapM6aI52ozRaDzudr3BgNkSg9YSj7W5icNbNuJ2dDMhLRNpFEtqBq7QC4LA1KlTVV/+M4TwMzRXGZecf/755ObmKl6D7/f7WbduHVbr8GsqR0pitI6iVAPW9jYmWXQkRJ8k2xHwgcsGHbXQcgSsVT2ZfV9PXaigkUhIzSN/5jUkJvf34u9ydpOTqKeqfWTOCFoRRMnP3tZOrpzef/JzMreZ+J89cpzgl2WZxx57jA0bNvS7XdBqmfDn38AJsuz2jz/v+39aWhpXXnllSF7rXbt2UVxcrGjcE+Hee5BAy+D7Lli+uxTj+ef2XZdlmUcffZS8vDzOOeccHn/88X7HJ/76p4gTBs9wO/75+aC3jyVLlizBbDYrvqri8/lYvXr1sHzszyYuvvhiMjIyFHc98fv9vPXWW7S2nnhzPZUeOlsa2f3+Ot794/9h5zsv09FQO+hxsiwjRJmxur2UHjlMY9XgK5ynSmTUiRuwhQgD0VMKmTD7YlLOv5IOjZHi/fsVffzhYDKZuOOOO4Ce5+OSSy4Z9TGonBqq6FcJG0IlJPx+Py+99FJIdhbtZUaSlktyY6ltbqO1rZWMWD2J5mMsNGUZulugpRRs9T1lPMFj63gFYhIyyJt5NSlpMxCl4zM3LV1WshImDPv5EQUQRD97m63sbrRxTsrxlp6uXfsGva/GbDqulvz9998nLy+Pp556iqampuPuo0ufRNQJMtLuAY9z3nnnkZeXFxLh//bbb9Pc3Kxo3ME40XMHEHP/9/pdf+yxx9i5cyfFxcW8+eab/OUvf+Ef//hH3+8FrZaY5YNvVOWrqcPfGrpJ66mg0+lYtmxZSBrl7XY7r776qqKrCOGOIAgsXbqUqBCUa/h8Pl566aUhG4bHIwG/n5riXXz+/P/yz5W/pWzbF4M25gLIgoAcaaKhw0bpoWI6Wo4/B54ISZQwDdNNyRh5gveAVoeUPQNB29O3pNfrsZjNfddHm/T0dK666iqKiorGVUnemY4q+lXCBq1Wy7JlyxTv/pdlGZvNdlx2VUmSImHZFCd/vi6R685JorqxhZaWFrITDCQaBWirAHsrDGLCFmVJZnLBd0jLmYMuYnCvfafHxaQYiaqOoTOBAoDGT3FbO3ubbBRONLL9kXw+uff42l5P8eFBY0QvvBqNsf9Yrr32Wo4cOXLSE7z59hsHvd3f0Iy/rb3fbYsWLcJisYRkkrd69eqQTvIAPMWHBr1dP3P6cbvq7tixo6+MLScnh+nTp7Nly5Z+x5hvXzLixxpLYmNjWbp0qeLCPxAIUF1dzcaNGxWNG+5ERESM+Pw3XIceh8PBa6+9Nq4mUifD0WFl/yfree+/f8HWdS/SWlV24oMlLV6dkar6esoPHzjl5tyJKZNIS51ElMGAeIJznkYjYp6QgqDpf56XRQkp+xx0xijS09LIyMggOioKj9cbkt3Oh8v555/PDTfcMGaPrzJyVNGvElbExMRwyy23hGRzD6fTyZo1axSPC98IbcAk2Fmc3snTS1K5be4kqhtaaGnvJDs9lbgYc7/7aLR6zCmZJGUUYDCajw96DC2dVnInDJ3ll/8/e+cdJ0WZ7e+nqjrHmZ6cAzMwDDmpgCRzDqgYVl11XXcx/Nx0N9zddaPXDXrVddc1rO41g8qioCheDJhAFMkwMDDA5NQ9naZjhd8fwwDDZOhx1dsPHz4wXW+9VV3TXXXOec/5HkFmp8fDlhYv0wssfHZnJW/dPIpyV9+Ggerv+wGmy84a8Dj9ocvuP3dYPUZqcKScPOj6XS9ZsmREjRzFH+zz9b6uwcKFC5kyZQrA4fztvLy8Qfcb7Fj/bkaPHs3s2bNHZMXmgw8+YO/eAYyxryEZGRksXLhwyPe/uro6Fi5ciCgO/Cj/v+pIHY2qqjTu3s4Hzz7C6/f/mqoP/pdoZ9/fK03TwGgmoInsrdlH7d4qlBMQH+hWFbPZ7BQWlpCdmY3VYMAgiogCCKJI0dRZXPLjuxl37uWcdO2tjDntAjJGVSCazOTNOpMJU2dQVlaOPxCgPaKw06905f4nHbkkwyBp9Cf50lFWVsacOXNGJHWgurq6V4Q1ERxrjDtfeI5rfn8r/xwb5Jb5o2gMKrgFJ6MrxpCeloYhJYuzp+bz45l6/N4DA84djcfItGsc7Oj/eqjI7PZ0sLXVy0kFFjZ+r5JVN5UyyjXINezP4D7OB5wm9y89KPRxrJSUFK6++uqEO3ndkq1r1qxJ6LxHI+j7vrZaH9fujjvu4K67umRR7733XqLRKN/73vcG3W+wYw2XDa++wIcrX07IXN0sWLCAoqKihM4JXb/DpUuX0tHRkfC5v8xUVlYOWfqwvb0ds9nM7NmzBx3b7UhVV1ef6Cl+pYgE/excu5pV9/+aD597lKY9O/odq6oqWOy0hyLsrd5NS93A9+ahYjT2lEx2pqRSVFKGKy0dm9VGWloGRSWjaG9vJxqNYDSbyBg1huLZZzDx0m/izMimoaUFfySK3++nyhPGfajpb9LkTzIckkZ/ki8l8+fPp6ioaEQi/m+++Sb19fUJn/dojDurEb1+XL/5L0778DleuL6UH51TQXunzITyfL53qoPLKySybQILCmR8gb4LQgHa/G7GZPcd5VdR2NPhZVubl5OKzGz6fiUrbyylNFVHPOQj1LKf+s/f73duydF3nmlsX28VnqEQ29f/Q/JYyc9uSktLmT9//ohEi9evX09VVVVC5+1GcvZ37frvavz888/zyCOP8Prrr/eStxvw2tlPPNe75rOP2fXeG3zy1kreev6JE56vm+589MGizcdDd2HvYLr0XzcuvfTSIcsfLl26lE8++WRIYxVF4cUXX8Tj8Qw++CuMpmm07q9m3Yv/ZOW9v2T7268R8vXvPKqAYrLR4Pawt2oHPndiC5+Nhr77pLhc6eTlFmDLzGPPpk/Z8cbL7F6/FiUeRxRFzGYzBw8eJBgK8Y5HoskX6vEcELrebELPNcnXm6TRn+RLiSAIXHnllSMm3ffkk08mWCFEwLh5BznXfw/LOx+hSSICIGgaYocPd2sDlYZazpuQg6hGSTUduXEvKBIRow19pqLIiozDGKfW2zNKrqCw1+tlW1sHM4ssbPlBJa9+s5TilCPGfsOmD1jz0G/46H8e6PeszadM6/P1wOtrkJtbh30VvE8+1+fr+uJCxAE6y86dO5fS0tIRUS95+eWXR0S9yXzK9D5fj+8/SOd7vbX7n3/+ee666y7Wrl1LcXFxr+3eJ5/v9RoAoohp/NgTOldPYy0fv9jVNTjFlcYHK17ilcceSFg+sMlk4uqr+y5EPhE0TcPn87Fs2bKEz/1FUuOtY9W+tTy/YyVNwcG/V6Iosnjx4iHVu4TDYWKx2JDP5evsSMXCIfase483H7qb9/75F+q2f96v3CaAKuqI6IwcqG9g/56dRMND7w4/nFokk7F/B050pOIYO42s6fPIn302YbOTxoYjQSlZ6erIqx7K8+/Vn2XIZ5EkSdLoT/Ilxmg0cv31149IzreiKDz88MMJm08QQFfXiAbYn3sFY1VvGTdN09jdEuDtvZ28etDGsj0C7rCGXhK4sEwjFOqtONPu9zAu70iUX9EUanw+trd1MLPYwtYfVrLs+mIKnTrksP+wsf/OQ79m046DOG94kJCp/8Jb+yXn9b1Blunozwjth/BnW4hs7Fs+zn7xOYM+JC+//PIRUS/pVm9KtAyk7dzToZ/ViY5H/qfHz++++y6/+MUvWL16Nfn5+Xz00UfcfPPNh7crXh++Jcv7nMsybxaSK+W4zzMW7uS9J/+CEu8yDM2HIsgb33mTF/9yT7+NhGKRyLBqIrrz+xONLMtUV1fz8ccfJ3zukSYiR/nl+w9wxvPf5Adr7uE3H/6VmU9fyaXLbuWAd+DVxpSUFK666qqEn5Omafj9/q+8I3U0noZaPl3+HCv//As2v7GMQHv/6l2apqHpjfhkjZoDNdTXVKOqw+8In5qSSl52LqZBuoDrdLp+V8EEqxOpuBLh0Ha73Y7TmYJ41MqApmk9pJAFoMhp5qQME8Hgl7PWJ8mXl8QnTSdJkkC6C9uWLVuW8C6uXq+Xl156iSuuuCIxEwoCmk5CPCaCpq9rhFgMDAb0dG1bv68NQQCfmolL6mRegUCZ10MzmWiHfHFVVTHqItR6M1BRqPN34ovFOHuMk/suyCfP0TMqLpnsvHP/r4iNmkv6nGvR55QSNKccqTLuA/OMyehys5Abez8k3ff+Dcsp07CeNufw+bS2thKPx6mpqSEajR7OVY03tdB40//r9zj2i88Z9PIZjUauuuoqHn300UHHDgdN0wgEArz88suHtaUTgeR0YD19Tp86+oEVq/E88hSu73ZJd958882UlZXx4IMPomka69evZ9GiRQCokQgN196KFu5bKtB+0eDXbiC8LfUUTJxE675q2msPoDsUGywePx57egrBgA+jwUTD/r001Oylte4goibTvG83oyZO44xrb0Fv7Ds94VjOOuss9u/fT2Nj4wmd87HIssyaNWvIzc3tc5Xky0CVex/Ld69hzYGPEASRFKMdd9hLXaAJWVOQ5SNqUpuad7Hg+etxmZ3cPOkKbp60CL3U+3FcUVHBKaecwvr164d8HjqdDkVRBnTYjnakZs2aNbw3+iVBjsWo3b6RfRs+6FdT/2i68vVttLW1EugYfPxgGA1GnM4U7HYH7W0tBIMBYoqCevR1FwTyxk7CnpJCoLWp5wQWO1LJOOwOJ1mZWciKTMAfwB/w43T2FHYQAFFVSLFZ6PC2YPC1oLPZEMzmgW7vSZL0ItmRN8mXnoyMDCKRCE1NTQmXJ2ttbcXhcJCbm3tC87g9HTR/9jmmzTsQjnnWit4AttVrQVWpnFlIkcuAJ6bH0ylT5+lkn0cmrEtFjscoSLfgiRgRBQhGOggrEh0xldpAkDPKbbx6Qxk3Tk/FJsYJexpordqEqDdisNpR5DhbP/ucgoW3ga8FwWTFrUsh9tnrTD7zAoBeecKCICA3tRL+pI9usLKC/1+vY54xBUNJEW+++Sbf+ta3qKioYOfOnaxdu5aFCxcSb2ym9tyr+uzGC6DLySLrj3cNaTncbrcjCAIHDiSmgK6b7jQRQRASXnQaePXNPl/vXP0uUpoL8/TJvPfee5jNZgKBAMFgEIvFwne/+13S7Q7qr7yZzrc/6HtyQSDnr39AOoGc/lCnH3d7HTmjKyidcQpGpxNFD3qLkc5ggA9W/ItVT/+DHRs+RlIV3Aeraa87gByL0lp3gH1bPqOociLmAZoGHc2UKVPYsGEDqqomvOvyrl27mDRpUq/CyH83bx9Yx9Wvfp/PW3bQFu7AHfbSEGyhI+JD0Xrfs7RDf0LxMBuatpJisjMlq7LPucvLy6mqqhpyVPfCCy8kLy+P/fsHrstRVZUDBw5QVFRESsrxryR90fjbmtm59k02LHua+h2biAT8A45XNFCMZhqbm2hvaSYWSYyUb7orHb1ejyAIWG127A4nciyKoCoIQM6YSSz45m2MmTaT7IqJZI+djDklFTQNRRApP+0iCgqLMBqMNDU10qIY2OOLkmUAq8WCw9GVDtnY1ITZZGaUVUSUI+Tl5mEwGJARiMeiSJJEfv7AXdOTJOkmafQn+UpQWlrKvn37CAaDCZdh3L17N5WVlSeUWtLe4aFGLyDnZKGvb0YIRxAOnaegqgiyjGH3XuTiAjLKs5idB6PU/XhkC+0RkYPuThr8cbIcOkqzXexy+zngj9Mpw1kVdl65YRTXT0vFQphoRxPNOz/l05f+ybY1KyiZNgdrWhZBj5ua7ZtwTpqP2l6LYLTSjBNt86p+jX7oivb7lixHDfRhVMgKvuf/RXjdZ4yZPpU7/vwHrr76am688UbOKx9L22/+TNOtP+63My1AziP3YqocM+RrWVxcTE1NDT6fb8j7DAVVVamtraWgoIDU1NSEzGmsHEPow0+IH+w7VaNz9bsEXnuLq6+7jmt/+TOuvOYaFi1axOVz5iE9/TKN37qT6I7d/c6f9uM7cFx49nGfn6ZpHNy9g207d/LwE0vRSSomUSEqq7yzbieKoEMXCzOqvAIhGiLQ3oJyzEpVyO9j+0fv4srOIy13cONCFEWmTZvG5s2bh5VrPhRUVWXfvn1MmTJlRAqHj4fPm3fwzZU/Jq7KqH0Y+IOhaCrv1X6CSWdkU/MOOuUwRc6ecq5Tpkxh/fr1KMrgaShNTU1ceOGFeDwe2tv7/17Cl9uROhpFlqnfuZnPX3uRrW+9iqf+IKoy8MqvIohERB31dQfxetpPSHKzL7Iys3p8BkVRxO5wYnU40Vvt+BsO4GtvpbquiZKyciw2GxZXJo78UlylFYQjYRrb2hD1BvzeDvbFTUQVjRy9jNFoxGa1otPpiMVipKakYLfZ0FSV2ro62nQOPm2LUGoREAQhafQnGTKCluzWkeQrQigU4q9//SudnZ0Jn1uv1/OTn/zkuOsHqvbt5eONnx3+Oe1X92HY37WErNG1PKsaDfi+fQ2RkyZ3Ddr9OlL1KvZIk/iXeBZVsS6d9vyi0dQHVC6osHPvRUVkWUXksJ9YsIP2fbvYvnoZcWce+Vf9iC1//TkX3nAzGWUTcNfXsvblZ8m79i7kqo9QLalsVzOxLv0B1//5UBFnPxG9znc+oPaCIaS+SBKiw4YWiqANIUfecdWl5D354ODzHoOqqvzpT38akQZbBoOB2267LWHRzdjBOmqmn4nWOUgRoCAgOh1osRhaaPD3ZZw0jpK1ryIMkjPcHwf37OSNZ5+gvakOa3EZy1/vSkP6yR3Xsnd/Pctee4+CvCxmlWQQah9aofP0sy9i7mXXIg1BaamlpYXHHnss4Wl5Op2O8ePHc+mllw4+eIRRVIVFr9zJp03bTmgeg6gHAQQEFE3l16fewfUTLukxpr29nYceemhI8xUVFXHVVVfxxBNPDGr4C4JAZmYmt9xyy4jIJJ8Isiyzf/MGmnZuJjbEIttIJExDYyPulsSmmB2NJEmMKRsgkKE3ouWUEu30E/V3kFc6mgmz5qI/lKu/adMmUlxprGpRmeYEKdDObsFFPB5nqjmCKy2NvNxcYrE44XCYQCCAO6pgtljpqNtHsyWbllCceSkKoigy85RTRuy9Jvl6kYz0J/nKoNfrKS0tZfPmzQlP81FVlV27dnHSSScd1/7ujg7qmo48ZMwbNqNr6zKkBECTJMS4TOSkych52Yd2qkbqqKZA7GS+uolK4QDhnGmUZLv42fQIV060U5B+yDAVJdY8cBc1fgnH1HPILB6FUFBBw3srGTvtJCyuTMJ+Hwd2bcMxcR5yywHaN66B1Q8w7cwLyBw9Eeg70g9gKClCaWvvtxD3MJqGFonCECKOurxsCpb9E3GI0oNHIwgCEyZMYOPGjUOKbg4HVVWprq5m6tSpCVELklKcSOkugqsG7wmgRaIQH9wIFgwGClc+O2DDrv5oOrifZX+/n1XPPE5HWwsgsODseVSMLsZms5KXnUE8FiMr08WkMQVEA0HkITpXjft2U1u1jZLxUzCY++4e3Y3NZiM1NZXq6uqEfl9VVaW9vR2bzXbCaXknQmunm9NeuJ6DvkYU7cQ+o4qmHvqroGoq79Vu4NLRZ5FiOpJSZbFYqKysZNOmTYNeT5/Ph6IonHXWWWzevHnQ71A0GqWjo4OxY09MJSrRxONxNKMFe2Yu7TV76OxwEwuHB/yrxGJENZVOf2JXCo/GbDKT4uwnaKDToyubiM7mxOhIxZKRi2Ywk5GReTio1NDYiMVqY09IJNeoIcXDtGNGVVVy9DJmi4UUpxOdTseOnTvQG/Ss9QjolQiGWIig3kZnXKXEpCEIAgXJSH+SIfLlWB9NkmSI5OTkcOGFF45IRKqtrY2VK1ce386KgkUQEbvz1o/KXw+ePQ/3z+8gPGMSsVG988k1TUMQYLxYy3fq7+Byw9toITfCUSVa8WgUfxQKL78TY1oOAGFZPVSke1SufCRI45vPcPCF31OcaWXRn59h3AXXIssybYNE/DL/eBfOb1x+fO//GPRFBRS88gxSysCdhgfC6XTyne98J+HqTZqm4fV6eeWVVxI2Z8qNV5Pxu58mZC7RYSd/6eMYx44e1n7u5iZeeOAe7v/BLez87EgDulgkQqDDS7rdwtlzp+Ny2lDCAbJTzKiyjKgbnuPTUF3FU7/+IbW7Bo9uT5w4kalTp45ID4ZVq1bR0NCQ0HmHiqqpfGvVf+IOdRBVEpvCBKAXdcx59momPXEhv1h7Py2dXQGErKwsLrnkkiFdz/Xr19PU1MTChQsHHSvLMjt27OCzzz4bdOwXiSAIeH0+fNE4Ey+9jqlX3IjV1b8aWfc+KUYTzrSBx50Ixv4kOEUJXel4BKMZSZLIzsoiPT190HuYIAhUpFmZlW0hGov10N7XNK1HsW53bZROU7vEI5LJGkmGQdLoT/KVY/LkyUyaNGlEDP/PPvuMHTv679jYL5rGgX01uGvrsQgSwQvOQHF01QgIsTjxsmK8d9yImtY7l/zYPGChD+XlkM+LqDv0dRUEEARC8qHEoaMcDWOgngKxjcv++CxTFi1GZ7bhdruprasbNFVGNBrJeew+Mn77k+G//6OwzJtF8YevYRo39Dz+/khPT+eyyy4bEaOxqqpqWKooAyEIAuk/vJW85x9FMB1/brShrITi91dgO3vBkPfxd7hZ/thf+PMdN7Dpg3d6bc/OL8Rd3071J5/TUF2DpqoIWpcxEenwEXEPv+NtKOBj6b2/Zv1rLw+ogw5w7rnnkpWVlfAcfFmWefbZZ0ck3W8wmoPtbGmtQj7BCH9/dDsSHRE/S3a9ztxnr+GAr8vBmTBhwpAdqRUrVpCamsqcOXMGHfvvdqT6QhAEMtLTyUhPx+f344vEmHDJN5i66Casaf2vgkmSRHZaBkazZUjHyc/NJy3FhW4In9HCcVM45ZpbKDllHo7so2ovRBF92UTySssZW1FBTk4OwVAYndnaWy74kKEuqgoum4V4PI7U0QixcN+rsUdLdgoCU7LszHYJeL3eL01tS5KvBsn0niRfScrKyqiqqiIUCiU80rFjxw4mT56MeZD0haOx2+1IkkRTUxPutjaiVgumqy4hnO4iMnMamrX3w8duSyUS8CGGGxBEDUEQiSkRhMKZaJZ0sjMyST0k3RbyeTmweR3OGeejBTxIsSAdznyCH75C5UkzsaRmYHE4KT75DAqmzUXUG/B6vbQcktjMysqipLh40AeEIAhYZp2EcVwFobUfDyn3/DCShOuOm8n9x/1I/XTfPR4yMjKIRqMJV29SVZX9+/dTUlLSSyLveDFWlGM9cz6h99eheLzD2td+ybkUvPwk+rycIY0PBQP879JneP6Be6jds6vX96CgtJxRo8egRkJEQ0EQBML+IL42N4oq469tIOb3D2q0D0Ttrm00H9hHyfgph/OVj0UQBCoqKvj8888T3hBKURT279/PlClThtUs6USp8dbyr91vnXBaz1BQNBXtULHvVZXnoxN1lJWVsWfPHjo7Owe8/3UXPl988cU0NzfT0TGwg9dd2DtlyhQMx1lLkkhUVSUWiyFJEqKkQxIFwuEwoWiMkqknkzV6HMHWRmKh3o6fKIAzNY0Oj3vQZ0R2ZjYOhwO73YEix9AUuaf0JlBQOYm531hMyaQZhCIxiirGk1Y6lswx47GkukgrH0fh6HFEo1FaWpox6PW849Vh1GSkaCfZ2dk90nusZgulNgmDJpOVmYXBYCQiKwhoGIzGw/ekxsZGLGYzrRGVcZkOQr4OdKiYjSYEsauQt6CgIEFXPMnXnaTRn+QriSiKhw2JRBcKQleh1axZs4YcRdHpdBQVFR1WFWlsbMTd7iaamYYrL494X6oebdXQsJ5Y2IeiyoiSSlyWEYtm9TL6w34fNZvW45xxHlqgg8Cuj2lY9ndc8TYqzroCg+XQqoJOj9fno7mlhWgsRmZGBqWlpTidzmFFhIwV5aTecj2C0UDo/XWDjredezqFK57BcdmFhxvNJJKSkhJqamoSrt7UbeRMnjw5Yeol+pwsUm+5HkN5KYHX18AgRrVxfAUFy58i7fZvDan+IRYJs/bVl3n2vt+xd9sm1GPytUvGVFIyahRyKEi0D2NIictocQWD0YTOaESSdAiSCBpox6E+09HSRNWGj8gvH4st1dXnGIPBQElJCVu2bEmo46ZpWpcRGApRXl6esHkHQtVUfvrefdT6G/uU4xwJuuQ9I6SZU5icNXZYjlQkEqGlpYXLLruMHTt2EIn03Q+im3+XI9UX3UY/wNa6ZhpUEy6zjhSblc5QiM5IlOLJJ5E1ZgLB9iZinT0VyERNIyUrB3db/826JEkiMz3z8P8dDidWi414LIKIRmp2AXOvXcyoqTMJdHayefNmOjo6KC8vR5IkdAYjBkcqUQUa29rZ4Y1Rmt4lt1kVEsk2aojRTjIyMpAkHTqdjlAoRFqaC6vFTDwW58DBAzRoJrb6odQqYNDrSU1NRdO0rpUXQaDUYcBls5CWlk4sFqOltRn3wQM40jMoTBr9SYZI0uhP8pXFYDBQVFTE1q1bE17YqygK1dXVTJ8+fVj7HWv8NzQ00N7WhhaN4UpN7WH8K40bkVq3YjM6kUQd4VikK3Onj0h/2O9j/6b1qOmlNCx/CLXmE2ZccAWzb/kFJrsTVVXx+/00t7QQDodJS0ujtKSE1NTU417+FQx6LKeejG/pK6gdA0etC5Y/haGk8LiOM6RzOWTkbNq0acRkIKdOnZqwpXJBFDGNH0t0RxWxXdUDjs1+4G5sCwbvZCvH46x/6zWe/vNv2PnZOuSjjL3swiImnnwy00+dSUdDI+FBtMu7EUURSadHbzBiMJkxWqzoDEYkne6Q86YNycmKhkNs/+hdLA4HWUWj+jQWHQ4HVquVmpqahK/YtLS04HK5yMoXCxT3AAAgAElEQVTKSti8fSGrMotX/4oP6j4jpiR21WIwFE3Bpjdzftl8YHiOlMfjQZIk5s2bx8aNffTkOIpuR6qzs5PRo4dXV5Jojjb6m7wBoinZxEJBMi0GbDYbJpOJzs5OgpEIxZNmkF0xkWB7C9Fg4PAcoqpiS8/E627r8xh9FeXqdDqczlQcrgyisSj7N6yl/uBB2oJhEEQkSaK8rAw4kmO/c9cugsYU9kUkxti77iO7OyHb0GX052RnYzDoicWiGAxGPB1e9rZ60QwmogEvbYKFiCZQbNKQJAmTqWul2eFwkJ6Wjl5voK2tjbr6Olr37MC7/k3k9gbSKqcljf4kQyZp9Cf5SuN0OjGZTOzduzfhcwcCARRFobS0dNj7Hmv819fX097aCrE4aakuYqoC7mpETzV6wYCIHqNkIqaE+zX6D6xZQvTz15ly5gXM+s4vySyfAIJAIBCguaWFUChEakoKpSUlpKelJUSZRhAEtFis/+ZRgGX+bNLuuPmEjzUYer2eUaNGJVy9SdM0IpEIPp+PioqKhM0LXco+vuf/1f/2rAxyHvovhAF+V6qi8Pn7b/PMvb9l8wfvEItG0On1jBo/kelzZjH3nPlMm30y2QX5OFKdZOSn097oJh4bXFK1L451BAxmC3q9AVGSEAWxywnowxHQNJWaLRsJdLgpnTS9T8M/NzcXt9uN2+1OuOG/Z88eKioqTqjfxmB86/X/5P26T0ekeHcoKKrKDROPFOY6HA5sNhv79u0b9HoePHiQ+vr6IdVAdDtSqampI+5IDXYeRxv9MUsKxliIDIseSZKIx+MEIjHMBj2yLBOMRCicOI2csZPodLcSDXY5vzpNQ29zEPT1Tm+y2WzY+2k8JwK2/FGkTJqN3mRGC3SgaSAaTD1WllRVpbGpCcVspzXKYaN/b0CmMt1KxO8lOysLg8GAJEls3bYVSadjXciMTZDRRQIEdFYiqkCJSUOv15OW5kJVVUKhTurq6mlta0M120mzW2n/fC1pDgPhSBxXxRQKC0cu4JLk68WXS5Q3SZLj4OSTT+aTTz7B7R6a1vhw+Pjjj5k8eTLp6enHtb/JZGLu3LnMmDGDDRs2sHHjRvbt3o3dbscpSah0Ld13mUf9L6XbXGlMveLbFM04DZ3RhKqqBIJBPB4PiqJ0dRXOycFiGVrh2nBwXnsFrb/6E/STRpB68xD0/Y8TNRZB0BsPG5DZ2dlcdNFFrFixIqFpXbIss3XrVgoLC5kyZUrC5rXMn42+pIj4/oN9bk+5/kqEfpQ9NE1j56frePP5J2mpO4jDlcbUOXMpHj2KvOICRFFHqDOE19OG11eLTqdDVVXSMrM55ayZbP5oK57mE9cqFwQBSa9HOuo8NVVFUWSUePzQvzKapmJ2pVJ26jnUtPgpy+lb0vCiiy6iubmZ1tbWhKZqybLMM888w2233Tasepyhsq5hU1eEX/1iI/xH4zD2dmimTZtGbW0t27dvH/Q70dLSf5rLsciyzPLly4nFYsNe8UwU3fe5FKcTl8WILxTosT0ajVItuTCGfJSbFDIzMwkGg4RCYSrOWYgSDbP3/dV46w+SYjIRTs/E297aYw5jP7UoAIIrCym3BABzWhbmtC4HyOsdpF5HEFAVhfPyDHjam/odc+S/Xf83CFoPGQedTse+QytjfnsOte4oZ2TpESUdgtDl5CW1e5IMh2SkP8nXgokTJ7Ju3bqEF/VqmsaePXtOWHZQr9dTXFzM5MmTEUWRuro6ok07MIXrkdAjCF2R3v4i/Tq9AVdhOYginaEQLa2tBINBrBYLxcXFPYrEEo1oMRPbtYfozj29tkkZaeT89Q8DRqqPh1hbLd4PluBe+SDRuh2YCscjGrscmuzsbAKBAK2trQmPFu/du5fRo0djt/cd+RsugiCgRiKE3v2wz+25//jvPmVN927bzJIH/8C+7ZupmDyZ0y+9lJlnnk5WfgGyHMPT1oKvw0OoM4CmqbjS0qhrbsdstaDEIwh6C0WjsolGwO9JvDMsCAKiJKHTG9AbTRjsNswZ6dS5JvGLN5t5fM0OZFVl2qhMdFLPlClRFBkzZsyI9GBQFIW6ujomT56c8Hz0RzctYVPLroTOOVw8YS9TsispcvbsT1BeXs6uXbsIhYbWwGqodN//SkpKEtbMbjh0py22trWRYrVQnmJBr8mY9DokSSIWi9GsmVGMFrKJYLFYMBm7ggRyPE4wHCF/3BRyx00m7PWg1zT8wQCKfMRxKygehdDHfURwuJAKKxAEAZPJREZGBga9nnAkQjQapexQek/3eTY2NWFPcZFp0NDFw7S2taHIMmZzl/7+0dKdDY2NmEwmaqK6rvHRIONKC8nRQgQ7g4d1+gHq6+sRAL9koVNWKbXr8FRvx2KS6AyGSR07NRnpTzJkkkZ/kq8Fer2ekpISNm3alPC54/E4TU1NTJw48YTnOtr493ta8dWsRySGKDKgeo+maYTCYVpbWwkEAhiNRoqLisjNzf1CVDakNBe+Z1/u9brruzdgO3N+Qo6hqQqh3Z/gWf0o3nefJta8F1QZ2dtMcOvbSDYX+sxiBEFg1KhRQ1IvGS6qqrJz506mTp2aMCfKUFaC569P9CrotZ4xF9fiG3u81tZQx5aP3yMc9DJjwXwqpkzFZNbjczfjdbfS6e9AjvdMLTFbzDzz0hu89+FnvP7Wh5SXFZFiMxONaRSV5SLpLbib+ok2niiigGaWaJDSKD/zBr592VnEZIUN1a18VNXEys8OMDYvlYL0nk6U0WikoKCAbdu2JbwwOxgMEo/HjystbyCe2vYK+331CZ1zuGgaWPVmTiue2eP143WkRFEc0vXfunUrM2bM+MIVfVRVRRAE7HY7gUAAr8+H2aA/7JTHYjGaVCMIIlla6PAKz0G3D0UDm9GAqqoEQ2HyKieRO3YSRkmkvmYPuaMqWHDdbWSUlGO224mHw8jRQ2plVgem8okUFhaSm5MDGgRlDafN0lXEW1ZGSkrKYcey2+hPMemRg17S0tNxpbrQjBZCmkTE30F2Vtbhe0p9QwMms4VANM64DBtyNIJZLyEIApFIl/PSbfQ3NHat1nXqrF1Gv03CU70dq0lHMBAiNZnek2QYJI3+JF8bnE4ner2empqahM6raRp+vx9BECgq6t1c63jQ6/WUT5pN2bxvUt/Shr9pB5IQJy7L2MoXEDOmkJ2RSYrD0aW+0dqK3+9Hr9dTWFBAfn5+v911RwJ9YT7+F1/tJUOZ+/h/I6WeWARQCXbg37AS94oH6Ny6BsXXR8GdEie85xNiLfsxFU1AMloYM2bMiKg3KYrCwYMHExYtFq2WPgt6M+/+OcaKntFCk8WKxarHZJZoqNlFoKOVWGTg6K0kSXy6eRe19S2kuRzs3L2fsRWloMSJROMUlhZgS0mlpa6hz1z848YsoLoyeD9czrKGNN7a1oheEvneBZM5f3oJWw+2s7POw9KPqmn0dHLy6GxMhiOrZSkpKej1eg4ePJjwFZva2trDjkWieOfgenZ7EntvGS4aGoFYZ4+8/m6G60iVlJSwcOFCtm7dOuh4TdPYtm0bp5xyyheq6HO0ZOfGJi9GowmdGsfr9SIfSmt0ezzEdCayiBw2+ne3evE48pDDQfLTUrBarUQikS7jf8x4Kmef1pX3H4ngC4YYM2UGmRUTcBWXozNbKTl5HqmudHw+Hy2trXSKJj7ySZRZNaKRCHa7HZvNhqqqXXKihwQAMjMycDgcRMJhAoEAb7lFxHgYixImKzMTs9l8WJHHZDQwsSATm8mI2WSmvb2dxn3VePbuJKuk/PDKSiwWo7Ozk4jeik2QSZFUfDW7MKBgSM9nzoWJ72OS5OtL0uhP8rWisLCQ2traQfWoh4uqqtTV1ZGfn4/L1bcs4fFgNFsZO/N8Rs37JnXNbYRaq2kXcjGaM8jOyiIcDuP1+RBFkfz8fIoKCzGbzV+4lF5XQW+czrffP/ya9bQ5uG771nHPGXc34n7rMTxvPEz04Fa02OA9AWRPA8Gt76BzZmLLK6O4uDjh6k2aphEKhQiHwwmTgZRSU/A9v+zwz7rsTHL+cnePtKjulJmgtw1RFPC2Dy3/WhRFtu7Yi6woSKKEpmnk5WSS6rCiKgoBf5Dc4nzSszJorW9GOUEnSdALyGaB7ZTxjZtuZ9EZM3AHImw50M6Hu5r43811nDOliDsvmESK1cgn1c18XtPGko/2kOeyUZF3pEFdQUEBTU1NeL3ehCtw7du3j/LychwOR0Lmaw95+LhhE7I68tr8AzE5cyyXjjmzz23DcaR8Ph/jxo0jPz+fPXt6p+4dS5f+fAsTJkw4rvM+HrqNfkEQ2OuLEnJkYYqFKMzORFVV2t1uMkw6Sh16dJJ02Pit6wigWlOQIp3kOLrulwaDAavFQjQapcPro6qqivr6eswWC3l5eUiS1FW07nTR0trGfn+EmpBGlkEjJOhpjkuMtoHf56O+vp7ysjJEUUSWZUKhMJIo4g4EeWO/j0KbDlWOUxPVkyLKXUZ/VhaKoqCqKhkZGdisNqKRKPtq9uHz+WhctwZD8y6igQDZE6YfNvp9fj+dnZ2UZTgROr2Ew2FcaelMPvcKppxxftLgTzIskq3cknztuP7660ekoFWWZZYsWTJ4Eddx4HBlcun3/8aiB7cz8dQL8Hq9uNvaUBSF/Lw8xlVWkp6W9m/VzXZ+43I4KuUl5aZrTmg+KTULQ3YZSMPTx1fDAdpfuZe2V+4lx+XgnHPOGZGOvevXr2fLli0Jmc8ybxb60iOrRM4BCnglSdejaHYwVFUlJzsD3SEHQlYUfP4jeuWaplF/sA5nZiannHUqtpTjdFpF0KwgF07kac9UltWlcv7dK3lz00Huv2kOy358HqVZDrbVujn7t69y76ubuPG0sbz/+8s4bUI+VouFP73ZW770sssuw+l0jshn+8knnxxUl36ozC2Y8YXLdB6LUTL0a/B3M2vWLMrLywf9Tmiaxssvv0xZWdmQi9erqqr45JNPhny+I4GqdaX8WK1WHHYHqqriaW8neCjVbyDZXUEQsFmtBINBAoFAr+2iKOLxeHC729nfqRGUe/dHPzZ9SqfTYTDo2b1nD56ISlgydR/s2INjNBoRRZEOj4ddu3bR7PUTc2TicDgwyp2YrebDcx79fehOH8rPy2PBggXMu3gR6bn5Q79oSZIcImn0J/naIQgCt95664gYEfF4nGeeeSbhnUW7caRmcPpZ57N48WIqKioYV1lJZmbm8PXj1f08cm4JZ/9tH8OJSyruTTz/80uZdN4D1BwTKNSlu3Bcci4AUmY69gvPGt45HYP7szUcWPkYB/bX0NQRHHyHY4g21tC58yNmzJjBuHHjRiTitXz5clpbWwcfOAiCKJJ6lJOUetPV/Y6V9F0Ns4aKqqjMOmkiEyrLEEQBrzeArKi9PjONdXXorU5OPv0kMvKHmQNsFvAadFSlLODGm27hpbuu5sxJBfhCMb735Adcdd+bFGXYefe3C7nzgkkA3LdiE2f+5hUaPZ2cUllIbUCjpq2TuNzzg6XX67nuuutGpBBdURT+/ve/J2SuGm896hfUjKsvdKLE2SVzuGT0wEY/DN2RCofDLFmyhLPPPpvc3NwBx3azatWqroZRXwBHG/FCHyss9R4fVXETUUGHQa+nta2NltZWphdmkRpsRRzK7+uY1CZBEPq8blY5hDjI9Tx6syAIpAlRytPtPWRudToddfX16HQSOwKw39u1wimKEoLQ1RtD0ulwOp1dEp+iSElxMQsWLKCyshJTgpoIJvm/SdLoT/K1xG63841vJF5KUtM0vF4vy5cvH3ig2sDDpxsPP0AEQc/4X36OrLXz5HmmHq9X/OxTjk24sFgsFBYWHr/WvljCd9/Yz+rbRjH0GRR2P/k9brvvVar8fT8sU26+tuvfASLVQ8W7fR1xwYwzt5T9Bw7w+Z5aOqODpZ4IuIMxttY00tbeipjeZbxedNFFuFyuhDt6mqbxj3/8IyHRYue1V4BOh/Ws+egL+4/S6fRdnw9J1/v66vS6Xsa8pmkYRDhr3nT+885vcs9dtzFt0pg+HcW25ibiGJh66kSKxlYOftJGAdUpstcygb81TmbJ1k7m/WIZ+5p9PHPnWfzz9tPJc1l5b0cD8375L559fzc/Wzidt351MdNGZSILBhY9vI57XttFltPE7y6biF7X+7xSU1O58sorE9Jb4li8Xi8vvfTSCc0RjIW4c83vE3RGx4esKkzJHjukscNxpJqbm1m1ahVXXnnlkFdIn3zySaLR4+sDMRw0TeNgbS1en4/5pZmkB5owiEdb1qBaU2hW9IiiSFZmJlarFa+3g0ydzLjslEHvCcdG8iVJ6imnCWQZ4GSnisftHjy4oGmIgkAsGmWaQ6OjsXbwbt+HHALJYOg6n0POjs1mY/z48UljP0nCSBr9Sb62lJeXM2fOnITPK8syu3fvZv369f0PEvO4dXUb2/84B4NuAj9+v4VNv5uKTkjnppVtVN1/OmbdGP7f/zax9b9mfAENM1Tqn/4TzzQMFPmSqPyPd/j4V9P6PR/LqSdjGFNGyo1XnfAZRTp9tM+6Dj9mJpx8Ok6zgU+27KC2zder3lRWBera/azbXs2u3btJsZlJyy0gtHEl0BU9u/baa0dEXSQajfLUU0+dsMqMLjMd+0XnkHrTwM6o/lAnzr6MfoPegMvlwGE3Y7VZexjJclwmGAiixGKIqtJvgbPX48bbGWfstNFUnnxS3ychCWhWhRrVTuXFP+HuH32XOy6chkEnUtse5Or/Xs13H32X6WVZfHD35dx27gSicZmfP7eOi+55jUhcYfLoAvZ6YkRllYXTC3jh1tncPL+s7+MBZWVlzJ07d0RWbLZv3z5oJ9qBeG7HCiLyyBu5g/G3jc8NeWy3IzWU67l161aqqqo4/fTThzS3LMs88sgjCZdIPhZRFMnLzYVDxa95diMlOZkDGvImo5GwKiAKAl6vl6bmZmRF6Xe19NiaDzkeRxAExqVbmJ9vQ28wYDaZMJlMGA0GZFnu9/gZNhPn5ejpDPi79jObcaWm9koJ0uv1xy4LdL1fSYd4qP6gm5FwhJP83+VLVQFSW1v7b81ZTvL1Y8yYMVRVVdHW1ncL9uNFlmXeeustJEkiOzu733FGpxNBVHGagjTXdXXCDIfDFJflYZKilIxyYfgCPvLxvU+w+OerOee0Hw0yUsBsMffbJkwQBHL/cT+GkhNXMYqEwygdrfhnXE6srQZ7SwPTZo5l96aPaWprZ2xJIaKoo6G1nYbmJpxmA5XjpuDKSCeGgFw+G9FXd3g+p9PJNddcw9NPP51w/ffGxkbefPNNzj333BOaJ/0/bsM4bsyAYwwGMyG6HJlj+75GY1HQotz1xycoK8xg3JhiKseWY7bYicZkFHlo7zscDBKPxigeU4jFamLT+x8d2deqETM5eMtdyKduCy889C53nj+Z7184mYtPKuVHT33IhuoWXvmkhve21/PLK07il1ecxBWzyvnpMx9T5w5w4QMfoqga4/Kc3Di3lGtmFg/p3j5v3jzq6urYv39/wn+HK1asID8//7g6zH5Yv/Hf1oX3aNrDHbR2usm0pg1pfFlZGaeeeioffvjhoCpXq1evZty4cVx99dUsXbp00EJgj8fD8uXLWbiwt5JQIhFFEafTSUyWicdi1NXXY7NaSU1NxWEx0RztKQCgqio1qgVJVSmXwqSlpuLz+YjHYqSnpx82qLOzsykbNQqNI2lEoiiiahpms5mCVAuiIBLQFHzBINsDMCHNhiB0oJO6CuYFQejhTEQDPtLT0nHZzPh8fhoa6mnZ+DGpY3vWTFitVsLhMJlmiRyrmaivHQQIBCNMPX9Rjx4ASZIkki+V0V9QUJA0+pMknMWLF/PHP/4x4cvRiqKwZs0abr/99n6bOUXTLYhCGFdeAQW5XZ/turq63gOVFt7546384IFV7Ay6mLLoP3n4wVuZ5hTQWlfzH5dexwObcrj9hXuYLY7jwskH+J8/381D/it4sGIlt/1xDa0Zp/MfTzzFz+Y4cG9cwn//7s9snr+cFZd9yg1n3s7r9TFeK9Dx06uX4bvfxq9uuIO/vb0Hv6WEBbc/xgu/O530IXz9zNMmnchlO3Jt4nFILwB3IxFrOrG0cmwxHxVTTqWjqYZPt+xAEDRy0tOYd8Y56OVOZFc+8ekL0afmQtNuJKVnLUBxcTGnn34677zzTsKlPNevX09JSQkVFRXHPYdp0rhBx4iShCLLfRbzKrKCaDIza2o5u/bW88zyD9CWf0BBdgoLZo7nlFNOpjMYQEOHogxstMnxGO3uAFmFOUyZM51tm7YSiHRQxUTu+u5iLlM1fvrMR7y1pY4/v/o5r23czwM3zWXFzy7gqXd3cffLn+HtjPHD//mQlz7ey/fPn4DeaKIxEgE0bj9zNFedUsSozKE3OhMEgUWLFvG3v/0Nn8835P2GyuOPP86Pf/zjYa8IyUpiP0vHy7j0siEb/N3Mnz+f+vr6QR0pVVXZvn0706ZN4+yzz+aNN94YdO4tW7ZQWlrK5MmTh3VOw0UQBLb6VCwGHQWSgiRJ1NXXY7VaOdUm0uDpY8XBmoIaiWAwGEhzuYjH4wQCASLRKPl5efj8flpaWwl1dpKelkY8LiPLcfLz8olEwgQCQVqDEayCjKo30wpdHdQ1DVlREAQBRVEIhyPo9XomT5pMNBrF4/EQCAYI+rx0vLeMNJcdWe5dA6aqKkVGBXdLPZmZmYy+9jbyShOjFpYkSX98zdJ74jQs+zbffb6jV56e++NneGbNbtxfjnt3ki8QSZJYvHjxiDiUsViMZ599duCoZOxtFueJh/P4CwsLMV34NB2HP6Qxtt1zLtetP4Ondrlxb32YGRu/z7zLn6BWVdn24A/YdPV6/L51/EfKp3zQGOad33+DHz68huotG2ie93c27F7Lb8d+zq+v+zlrvDt45PbbuW9FFX4VxIIreXr17zjJuoC/1skEnr+Yhlfu4XHTz9ke7GTfg5PY+Ie7Wd78xTV011QFxWQHTyOYLCDpUfVG/CctoiVnMnrJxMzTzuf08y9hTGUFjJqONO9GLBPPxCSA1OlG1puRrL17BMyePZuysrIRWRZfsmQJHo8n4fMei6oqfab3AASDYeaeOps7brmWe352EzdesYCcDCd1jS0o8Ri/ve8pnlv6Cpu3bCIS8gJyv2kYcjyGOTUfR3oGEWcuj7aezLLaFM77/QqqGjp4+s6zeGzxaWQ4zOyq7+C836/gdy9t4KpTR/PB3Zdx/rRiBDSqmzxc9dinfFjjo8QW555Fk/n5ReOHZfB3YzQaR6ywNx6P89hjjw17vylZlRikE08dE/tdQxscSRCZX3jysPfrdqRsNtugYzVN48UXX6SiomLIzQgTVew+KIJAzJ5OBB02m43cnBw0TaO1tRWHTsNut/dxjz/ys16vJzU1lYz0dNweD1u2bKG6uvrwvVunkzAajbS0tFC1ezeftoXZ1BHvrcIDh48jSRImk5FYPEZdfR179+2jJgSK2YmmKGRkpyMgoKFhsViO3JM0jVgshl6v59TZs5k+bVrS4E/yhfA1M/r1ZGW2sG5rz+W+2Ce3ccGSsVx5xhjSvlRrG0m+KFJTU1m0aFHC51VVlfb2dl577bX+BxlO5+8NKpqmoWkatbW1RFZeT2r3syT8NvfeV8clP7qZSWkW7GUXc+9fv43t7fv5n10arvxUti19gjd2hcma9yv+8p0Kznt0L8tvysYw+hyumJmHM3MGt/7hNiY2r2Lllkp+8eF6fj2tvw+7SMF33qF5+XXkGswUnnsB0/SdBMMJ7GyryIR9jSjxvrX340EfqqyAyQoG8yHj3w7uBiL2LLzzvoWkRpGLpyJd/ScMFaei0xQ0gxXZkYUgx5Da9iPZUvucf6RkIDVN4/HHHycWG9lUD1VV0fVj9HcTi8XRBAOjy8dw5eUXs/DiCzBZbZw2axzBcIyX39jAr+9/gYcef5GtWzdjtph7zaEcyk9WBAPji7M5MytIhlGlwdPJNfev5vbH1zK3MpcP/+syvjF3DKqm8bc3trHgrn9xoNXP9y+YRH5OJh7VCsBMWzPfLGzlhjkn1g03IyODhQsXjkh+f1tbGytWrBjWPjdPvuL4G5sdtZvaKxw1dBRN5bW97x6XgtBwHKlQKMTSpUs577zzBkxdPJrHH398xBTNjqX7/QuCgD8Sx6sZiMZiNDQ24vZ40Ov1ZGth1GgYrY/rrdPpCIfDh439o0cIgkAs1rUirBzaINCn3d9jH0mScLvdWG02qiI6QrGuayHp9V0TaF3HdTgc2Gw2srKzmTd3LlOnTElYH4kkSYbC188EFoVj1EpivLr4Yaw3jea6mX/nW//7BGf1EfCIxWI0jVSr+iRfCqxWKxUVFVRVVSV0XlmW2bJlCxaLhdNOO23YEWa1aTe7/Ebmmo744KaJM5kiPkt9i0b+d1bypvn3/HJhETfbr+GhJQ9y7RgdVpsZ4agMCKlkNKN0QfxBFQQTFvPABq/cvonlTzzC408uYU10DOcN66z7mTMaJOxvJBJoAU0FQcSWNgqTI6eHAR73e9BSsroM/o4msKWC3w1mO+j00F6LpDegT8lC529Btmeg6Y0I8TBitBPZmYNauw2xj0g/gMFg4LrrruPhhx9OuDESCoV47rnnuPHGGxM6bw+0vgt5RVEkOzebSDjS9TcS6WpgFI0Rix5aBZhzKmefaSIeD7OrqpptO6ppafNgtVkJh3o6YZqmoioKoihhNBoYb/dQYvGz1pPJJ24rL6/by9odDdxz7Uzuu+FULp85ih899RENbj+3PvE+LREdigoFhgBjzD7mOxuxMnhEeShUVlZSV1fHp59+mvDf4caNGyktLWX8+PFDGu8yp3DjxMv457Zlw9fqF+Dk2igzq4O8O7OAXfb4cev9N3e2s7L6HS4efcaw94joyzEAACAASURBVO12pJYtWzZo6ltjYyOrV6/mqquu4tFHHyUcHrhxXiwW4/HHH+fWW28d9nkNBU3TsKoxIsfIdobjcdqdhQSD7Yy1S0iSRFNzM5kmPWNSJMIR61Am7/GjwWjsca/SAItBx8wUGZPa9+9N665/OMY7EEQJQZTodi26m4SNKj0xpzhJkuPl62f090KhPVjJld++g7Nqx3HbJzJnnd77bet0OjIzM/8N55fki+SSSy7hH//4B+3t7QmdV1EU1q1bR2VlJXl5ecPaV8wooEDfwPsfH0Q9qRQR0KIRorpxTCwTQUxl6g338foNv2P33y9h+gV/4NrqXwAamiIf1uFXW5tooZSzSwf7Wmu0vPZdzv5pE5f87Ic8uHwq35/2RG/tuiGiqgqxkJuIr5F45Jg8bE0l2F5NtLMde+ZoJF1X45p4wIMq6aGjGTIKoWkfWJ2gN4C3BcHhQopIqBklaKqCLtCGGA4QT81HjAYRVJm4qiFZ+470A7hcLhYtWsTSpUsTnt9/4MAB3n33XRYsWJDQeQ8jCOj6iMqqqoqqqFQvX016ZTlZ40ejwmEnIBaLHXIAulYiystGM3HiJAx6Hfp+8thlOYak02E4JAlolWTOy2hkrM3OmrZ0DvjD3PzwO5w/rZg/XDuLb50xnt+s2EljCApTDegFhUXOeqxKV7MjTVWJRkIYTSfeIO/MM8+kvr6ehoaGhBf2vvzyy+Tm5g65w/Yd06/jmR2vHpfB/nmhmSl1UU7/tImzbrieZR2fU+Pto7ZnEKJKjI8bNh2X0Q9HHKkNGzYM+p3YtGkTeXl5XH755Tz77LODKvW0tLSwatUqzjsvEeGDLiRJIhAIoNPpOKkkmzavF83Yx/eCrtRJi8WC0Wik3e2mta0NvU6H1WLuKtDtpzD52Hcly/Lh6H6GSUJTFUJeDw6DgZjcVU9w7Api9xx9hVl0eiMGu31w2c4kSb4AvmZGv4Knagebtu0lqGVTe7nE9TfLrLlnHv/vH2txWG7hZ7P6fsuiKGI2917+TvL1Y/HixfzhD39IePRQURSeffZZ7rjjji69azVEzb5GFMVHzV4P8dw09ABqhNq9dYSVdvbvdRMrPoc7v1PCvN98hwdmv8Bt42Osf/Axqhf+jKsKNDb+9218eNJPuenkLFJyszD/f/bOOzyqMu3D9ynTJ5n0hCSkEEhAOlJEQEBBEUQsoKigIIqIbdXdz9113XWbujbsuCsqVooKqxRFURGRoihVpLcESEifTD/t+yN0ApnADEQ293V5XZLzznPemWTO+Z3nfd7f4/MeOmdo2XSmrhrAmJxiPvrTi2zs/3veLpAwfIXsLlUpKyzCZ7TAbjIh6yXs3rGNeUvXsffVqXgGfM5vRnTFvfQzSrUaKrZ+yxKtMxSWoZYVUeQzaOGsvzxGV0J4KgrRgu4T2uIp/koqd6/EmdQSszMFxV2BrqmQ3ByqS0EJgGyGyhJIzkIsWo8ogBxwo8VlIARlTFVFGLIFzR6HXFOKUFl0wvKeg+Tn59OrVy++++67iAv/RYsWkZWVRV5eXkTjAgiCeMKaflEScW/ZhVZSxa5Pv8GSGEtcXg7J7QpIykw/ahUgFAodKkU6UWmHpqhIknzc5tZcWw1jMj2sU7NYUGhj+aZ9DH56IUVVCqIAkghdchz8rl8awcpYln614NBr/V5PRES/KIrccMMNvPTSS3i93vpf0AAMw+DVV1/loYceCmt1LtbipG/z7ny6/ZsGn0uWTJQ4RVqVBIiZNZ+LRl/BjqrCBj9nm0SZi7N7Nvj8R9KQB6lPP/2UsWPHcvHFF/Pll1/WG3vFihXk5ORw3nlh9IAIA1EUyc7ORlVVioqKiLVZsFqth44LdXyAuq7zS8BEoqyTjMr+0lJEUSQpMfE48e9yuSgoKDgk4g3DQFNVDODC9Fh0VcFmsxEIBikrK6N462Zsyce7Px1s2iUIAu2dOkmiQRm1K28ZnXrTbcjQJpOSJhoF51hNv0TKuK0Y8y4iRhBp+76PpZdLxF/7Cm/d3otrH72fXk26/n8eWZYZP358VGIHAgHef/99dLWQVwbGc95DSwip63iqbxqdDzTnmjGmHfn3f01A3cgLl6bT4Y8buPCphXw41uDli9OISbuIv9bcxaevXU2SAFJBP9pvfZQLXRayH6jkNzMePnA2AXP7bArv70ByRn+e9IxlxptjyWIbz146gGc3Btn03AAGPLUZMfMSruntZsqY/6Ow3WAG3TES69TB5Pe6iwX2fgxsUcqcuTU4F1zFJc/8QnDTJC7p/jArw9DJ/qpdGCE3QW85/pq6V1AMA1Q1gKbUNrlSairRU1vUCn5Rqi3z0bXarH9lMWLQCwIIsgXZXYxhtgIikt+NGPKhutIwlACitf5Skv79+5OdnR2Vjb3vvvtuVFxmREk+oejXNR3JasbZoiVJBW1xWOPYv+RHVvzteZY+9iI75n6Jv3AvKanJpKSlEOuKxWw2n/AhV1VDiLKpTkcbm1nk/sEteXVMeyoNO0VVClazRLzTzJ9Htqd7u+Z8tsOLxXa4jMIAfN6aiHwOUNuobvTo0VGp7w8Gg0yZMiXs8Zfn9cF6Cht6VU3BlpAMgK+6gq1LP2+Qx70sSJhEmd90G8NlLXo3+PxHcvBB6kjxfCI0TWPGjBl07tyZNm3Caww2c+ZMKisrT2uOxyLLMjk5OSQnJ1Ptdh9yYmvRLIX4it3IR/RQEAQBw2Sh0pmKJkikJCcT43RSWlZGyYENxy6Xi14XXkjLli0pLy9HVVWCwRCCIJKYmERBQQExDgeybGL37kI2rV3Nlv++RWjdIgDsNludKweeGjeW6mJ0VaH7hb246uFJdL9ieJPgb6LRIBjR7q7RAA763jbRxJlg/fr1zJo1K+JlA7Is07Vr1xN6uhcWFtK8efPTPIvCdw+0ZtCeJymbcS1nc+G4snAlFZvmYnGmINoz8FQVEptagCSb0TUFX9VuJMmEzZWFZLaRkNWdXbNeZoNXQLO5wBEHW1dCZmsIBcBkxl6xmzy5EvHy3yB5KxAVP3L5bgJZnZG95egmG8rSaWSP+ntYcwwEArz88su43e6Iv//Y2Fjuu+++iIrS8n07MLQgW9Z+f9yx5NRkVr30FskXDsQy9Hr0vbsJbfyZotnTMSpK0EO1bj2C00Fcy2ziWuWS0rYAR0oi+4v3H7fikdo8F4vVjuKrZtGXXx71fUhOjqPzhQPZFHBy17ub8ARUxg9qSUaCDVmqzRmFAgEuTlX55uNpQO2KQu/LrqVFm8jaOK5evZo5c+ZEfMUGoHfv3gwcOLDece6gh+Gz72FHVVHYvv2ibpDk0Rj1fRXyAZ24K97EB+fHoov13+8skpms2HReH/xPcuJO3Mm5oezbt4///Oc/9frxA2RlZXHDDTfw+uuvh1UaabVa+d3vfheVBzWodWEqKirCZrNhNptrbTRVFZPJhKqqfFsaQnLEkhcoISPlsMVpKBTCXVOD3++nqqqKXbt2kZCQwIU9e2IccNTx+fyEQiH27y/BHBOHVdDZ9OUnxITK8Li9xF08koEDBiAIAsFgkECgdlXtx59+whUbS6tWrUhJOXkDsSaaOFucY5n+JpoIn3bt2jFo0KCI35hUVWXlypWsX78+onGPQqtmT3ENamkRe4Nn97ldUwK4hWS2+lLxFK8iNj6Dsp1LKN+1nOritTjjspFEiRr3PvRgrehWairRLY5awV9eVBvIW127idfqRCzbDaKE7C5Bc8SjWWKozSEbKLEpCEoASQ9f/Fmt1qhli91uNzNmzIhoTNlkRpQkBOH4S7Su6UhmM7rPC4KImJGD9ZIhNJs0FcMAQRSQc1pBUKFqzS/s/HA+y/86ifKfNyPJx692qIpyqCfAsdn+5JQkHDGxCCYrz405n0eua0d2suOQ4IfazLEqyAgHSrsURSHgi1ym/yCdOnWiY8eOUfkdLlmyhC1bttQ7LtbiZP51rzGm/TXEmMPYJAroosDItYFDgh8gu1JhyLoamlcodEs+j0RbHJYDKwgWyYxZOrzKo+oaL176SEQFP0CzZs24+OKLwxq7e/du5s6dG3avk0AgwNSpU09neifFZDKRm5tLQkICVdXVKIpyqHxNkiSEoA/gOPces9lMUmIiNTU1bN++/agHXEEQsFgslJaVsnXbVrz2RL4uDtZaLYsCoiSDACZZRhRrLZitVisulwun00nX88+nV69epKamNgn+JhotjVr0a9s3s/2IJGz153P59uw3RWziHKJ79+6cd955URH+UfOvNiqYemUm108rJfD1byi46Ek2RXaxokFoih9dDaIoKjvMvdlTvAtXQg4JzbthcyRTY1hR0/oiuloiHRBKQU8lRkxSreBPzARNrbXvtMUgVRRhVr1oFnvthtbqg+U9ArK3AjEUQHWlITewXCclJSVqNpCbN29m6dKlEYsnm2tLL6Q65qppGia7Fd1ztLB2mCTk+GQEWcJ6w+24XvkA+11/xNSjL6LVjlLjRRKP/8w0VUGWawWn+ZjNhjZ7bfmUjkCM1UTbdBdO89FzEiQRv6JjsRwuFwkGfKfwrutnyJAhJCcnRyX2e++9F9ZKkCzKPNzrTtbddhKb3mPoMeEPiMeUa7UpCXFvZQYfXTeZH8fOZkz7a7ggvRPDWw+ib/PuJNriSHMk8a/+v+W8pOh0aO3Tpw8twnSS+fnnn6mpCf9hrrCwMKx9AKeD2WymRW4u8fHxVFVVoSgKgiBwUVYiad5izFIYEufYYocDFQfuwAGxIQiAgGQy1blRVxCEWhvOJrHfxK+ARi36leUv8McZu9BQ2PXR7XS57Hm2N9yiuIkmTsqwYcOIj4+P+AVbVVXeeecdAoFAROMiJDBmXuCQ739oxUMURL5cPWx0xY8qmNHMici+vdQIKWghD4KgocbmY3UmYVarQQsgmWubNQX8ASjfUyv4fdWgKbXuPRV7ceR3RFSCaJqGGpOCIZmRq/ZiWJ2ojkSkgBuxurjOxlz10bZtW7p27RoV4b9gwYK6uy2fAmZL7SbYEzn4yA4bmrvquGNxbWo7/hruKgSbHfMF/XDc/TC2G8ej1HgQ6xBBmqoe6gJ8bKbf5z3Q8fiAMBIQSI2xEXOEg4ooivhVHcsRNeIBX3REvyRJjBo1KiriyjAMJk+eHFa5C4AoiAxq0QexjtWYI4kJ6OyZ9T6Grh/VZVk2W2l98bBDsR7udSczr36ex/s9yOtDHmPVrR/z/ZiPuK5N5Nxw6mLUqFE4HOGtWjSUxYsXs23btqjEPhKLxUKLFi1wuVxUVlWh6xr5zZJISazfmenYdVIDjv77Ovi3L0qIUdgX1EQTZ5JGLfqtVz/OYwkzeHBkD/o8ncZ/1r7BZaffFLGJJo5CluWodQD1er3MmDGjQZv2fm2oIT+qGIspsA/FkoxMCEQLhhpExkCVXeiiCTFUhWiu3UkfDAUhMb1W8KsqCCKU78HSvBWmst3Igo7mq0Hfvx3NmYBhttdu9D1Q3mP4qut17jkRl112WdhNhxrK1KlT8Xg8px1HMlkwDKPOzbyapmFy2FFrquEYgWpPz8ASG4txzAOB6Ion6PbUuZlZVWozmqqmHSf6vQffyxENoQQg1WnFZa2dmyCI+EI6Futhl4RAlDL9AE6nM+yylIbi8/l4++23wx7/8IUTKUjIPVSacyyibnDZRh9lOzchyjKGfvg6oOsa6eedf9pzPl0kSWLChAlRy1K/++67DVohOB2sVit5LVoQExNDZWVlePs/jrk2O+yHXadMHL2EaojmiDkTNdHE2aARiv4Ay569meuvu47rbhnH799YxtLllWSnb+KF8Y+zuKm8538avaY0KgLa5XJx4403RtzhRdM0du/ezddffx3RuGcTwzAI+SsxjNouw1rIDYoHxZyEqAcxKxWIJgeGGkQQBUxKFZrsREdCFE0YhoFidoDPDaoCriTQdYTkLOyeEjAMLGYTSmIW3uoy5Opi0HUMyXS4vMcac0qZfqjNTEfLX19VVaZMmXLam8NFUURT1TpFv67pxKQkogSDGP6jbSwFhxNXdi56zdGOQkJsXG2mvw5LVU2tdfUxjONr+n2+2s6lQh1dYJMdVuJsteN9qoH5yPIef2TtNY/loosuIjc3Nyqxd+zYweLFi8Mam+1K57PrX+eZS35P92btMYkyJlFGFiQcJhuPX3gvvRLPQzJZ0ELBWpvaAwiCQGJ2flTeQ0OJjY3lpptuatBrrr76auLj63/w1nWdV199NewVlEhgs9nIy8vD6XRSWVl50u/jsXcT+wHR3y4tjt4JInv27sUSGw+uTK7606SoJQyaaOJM0Ah9+i20yOpKn/ad6XRMR1H/qm3IjfAxpYkzg1a2i6rnr8La62Ycg+6PePzc3Fz69+/PokWLIuoQoqoqS5YsITMzk/z8xnGTPxV0NYS/Zh+B6r3oWgjZ7MSe2AK0ICFLOqIWRNB8mGwOJIsTQ/OgWVMRCWJSqlA0P4JkQvW60VWtVvDHpUDJTrDH4AhVIYpAUgZmi4WQruOOy8FpaFj9FeiOeFRbPLKvArVsF1LcqWX6AVq2bElOTg47d+6M3Ad0gMrKSmbNmsWIESNOK46ua8h1Zfp1DXtiAmoohOHzIjhiDh0T7E7MDgcm42iRI7jiCdV46870HxD9CMJxNf3BgIISDCALdT8MJ9ktiAL4qyDWeqToP3kH10hw880389RTT+GLQinRl19+SXZ2NtnZ2fWOFQSBK1tdwpWtLkHTNTaWb8ckmWgVn11rH9n5Gr59/V/8vGAmmnI4a5WU27pRlYu0atWK3r17s2TJkrDGl5WVMXLkSKZMmVJvzxOPx8N7773H6NGjIzHVsLHb7eTl5eH1eikuLiY2Nvao74Asy2RnZR3t339gxWPXlo2YzWbanncezS+7LCqWv000caZphBJaIHX4vdw9sA8XdMonJ6c1XS5sja1wDcXdh9CvqbznjGEoAYJr5h9uMX4256Kp1Hz4MIgSgRXT0Sr3RuU8ffr0oWXLllHJ+M+cOZOKioqIxj0ThPzVuEt+oXzXcnwVO9EPWBWqIQ/ufWsx2eIxNAVR82E40rFr5UgmG7oaRDaCqLILQ5AQ9BCiJKPUVGA4XLWCv7QQbE5MIS8WwYD0lrBxGbLZgqCGsOxdT7XkwJBMCEEvCAJKTApGwHvKmf6D3HTTTYeyepFm/fr1rFy58rRiGIZxVA34QXRNxxzjQFOU4zP9Bzbe2m1He7CLrnhC7po6a/p1TcMwdETx+AZdgWAIRQlirqsL0gFsokHnNNtR5T1+vwejjtWBSCKKIhMnToxaWcrUqVPxN/DhRRIl2ia3Ij8h59C8BFHkotv/QFz60Q8QyS3C870/kwwcODDsjuLffvstlZWVDB06NKzxW7du5bvvvjud6Z0yDoeDvLw8rDYblZWVCIJAu3btGDF8OB07djzkwCOKIgK1DwMF+fn079ePnJycJsHfxDlDIxT9h3HP/Dt/+24/m57uS9e//sK+Wf/m44qTlXYo7Pnodia8X3nUkp3vu79yadsWXPjP1TRVB4WP/5speD58GN9nz5ztqeBf9Bp6dQnxDy3ElN0F32fPRu1c1157LbGxsVHZ2Pv2229HxWc8mqiBGrxVe9H1upfIza5McpslottScWl7EAQDSbagaypqyIOsVqHKMRgICKKpthtvTCKUFUJ8KoSCOEwCZLSCzSsgLhXJJBPI7ACGgbZ1BQS96GY7srccUQ2iCyKS49Qz/VBbynL77befsIvw6TJ37lyKi4tPPYDBiWv6nQ50RcHwHVveU7shU1KOtlYUzBZCIa1O9x6ote0UJek40a8oKkooiEU6/rqr6hq6v5rOsQG8+3awZcPaQ8ds9tiI97+oi5iYmAaXpYSLruu88sorESsnzGjX/dD/i5KMIyElInEjza233orFEl7nj1mzZpGens4FF1wQ1vjPP/+c3bt3n870TosYp5O8vDwu6NGDbl27HmpQJggCZrMZl8tFcnIyF/fvT8uWLaPWZ6CJJs4WjVj0GwQc59G/xTIefETjifnPMbZLLN6T2gSbSE0pYdnaI7MzGmWpNzN/3Zd0fPp2Pjv5KmQTB9Aq9+D/7h1sfW8jsHIW/qXvNTiGYRioezbgWzSFmhn/h1a265TmohSuw7/4DZzX/BXRHod98G8JbVyEsuP0Mqknwmw2c/PNN0f8gm8YBm63+1dX319VtBLRCBKo3ou/pvSoY2rIS6B6DyE1hClQDK5MBEFClExohkANLgBMSiWSoSBKplqPfr8P4lJBCWJz70WKS4bN30NuZ/BWIwog+asIZrRHN1kJFW1Es8ej2uMR/dWIFYWnvJH3SBISErj++utPO05dGIbB66+/3uBs8SEEsc7yHsMwkG1WNLUO0W+rzfQLddTUq5KFEz3H1jr4HJ/pBwgGAtiO+Sr4Aj6yJDd5Fi/LF33OT8sWo4RCCIJAxwv6M/SmiXXOPRq0atWKPn36RCW22+1m+vTpEYl1ZGkPgoDYSAWlLMthb+wNhUJMnz6dvn37hlUKBbUrKNEoyWoIJ8rcC4JAbGxsVEwdmmiiMdA4rzoACKRfcSHK31+j34cLuIsFvLTYS8cr67kQiQJHf50lslrmgvIdCTf/gf4n+C7run7qN+dzkNCcfyE274zRcwympJb4Zj+MYo1DKuh30tcZvkr07d+jbV+OvvMH8LsRmrUBJUD1WxMx3/xvBHv4Ys0I+QnN/ANSp2Eo6R1RvF5wpCF1uYaaOY9jHvsmwgmyl6eDxWLhyiuv5L///W9EM5aaplFUVMSSJUvo3bt3xOJGE9VbTJk3iMtuQRdEyotWYYtNQfVVYnGmggAxcgDJmYSEgaiHECQZTVMwvHtRHflIihtRNBDFWtFvJDcHJYgU9GBzOqGmHLpcBu5SKCsCs44Q8mHZ9zPBZufh37aUGG85mjMZNSYZI+hFtMXUP/kwaN26NT179mTZsmURiXckoVCIN998kwkTJjR4RUEUpToz/QC6YSDKpjoy/U4M3UAMHn8tE2Lj0PyB2jrzY7LXqhpCkuXjavqhVvQnylChgaKpWFQPXeMFdmzezPpV36MeqOeOiUuk7+DrSM0IT/xFkgEDBrB9+3b27NkT8dgbN27k+++/p3v37vUPPglHin5BEBpVPf+xJCQkMGLECGbOnFnv2LKyMj7++GNGjBjBv//973qdejRN49VXX+X+++9v8rVvookzTCMU/X7mjr+adffN4Y51T/D7Vz8l8No0nsfAX9GNl5/5/SnE9LD6oyJGPH49J5IJqqpSWVl5OhM/ZxCLVmHetpTgiJfwVlZCUluknrdhfPI3QleY0dPqqEUNejCtfB/p53lgi0Nr3gX9wjvQMjuBxQmagnnun9CmP0hw6GMgh7d8bFr8EiICvs43wJG/n3bXYF2/gJql09DaDonQOz+ahIQEOnTowNq1ayMu/L/66isyMjKi5kASKRRFQQ95qDG1xG04SapehdmVjRIKYXEkoYgOSOgE+5dhMschB/YhCgKCIKEhowerkEIVqJIDq2RBkOTa8h5FAkXF0bIdwqK3oUO/WuHvrQJnHLqmEGjeGcve9VgL14DfjVcTcHrL0WxxIEgRfdi77LLL2LVrF3v3Rn6vSElJCfPmzQu79vkgzvhUqksLkU0W1GPKdXRNRzBJdbr3GLqOoIZA0+AIYSm64gjVeGudgY75e9YUBdlkRj7QbfRIp5VgwI9DFvB7vBQ4Qwh4+faLbykr2XdoTOuOPejebwimOlYKzhTjxo3jX//6V9hdYxvCvHnzaN68Oc2aNTvlGOoxmX5BbIS33yM42NMinL0pGzduJCMjg5EjR/LGG2/Ue72srq5m5syZUVtla6KJJuqmEV51bFzxylwGyzJC2r1MX/IWF7WrvZEE1vzItpPOWKNi48+sWrcVj5HG7uESN99WxTPTs+j/dRu6/+szHlj4BtcnHp9dMJvNZGZGts35rxFDU6me9SamnjeS1O6IOs3MCXjxIX7xGK7xbyElZtWO1zWCP3yI78vJiK5UHGMmY2pRd0ZMv3Uy1f+5BcvSl4gZ+QxCPZnP0MZvqNn0Ja7xbyFn5B13PHDpPfi+eJG4PiMR7a5Tf9MnISMjg+rqanbt2hVx4T9t2jTuuusuXK7ozP10KSmtxOupQtQVVEsccrCMMkt7MkO7cMQk4ovtgEUCjBCaADa1hJAjDyG4EwQBVTDht+UQCvkwCx4E2YYgiIQ8VVjjWqHGJGLauQqUAPgP+MHndoQN36HFWzCX7SCY0QFz8UYwVNyGjNUei+SrRNYi2/BMEARuueUWJk2aFPlmasDKlSvJycmhffv2Yb/GEZuAIzaBZrntqS4vpmzfDiqKd6OpCpquIVtMaLu2oqz+HrllawRnLILNDtRuRhQCPowjnX1c8YTcHiSX83jRrypYbHY0wGQ2EzziM/D7fYiiQJd4hW0bN7Bh9Y9oB6wnbY4YLho0nMwWBafz8USEg37zL7zwQlRsfadMmcJDDz1UZwlUOIR8hzPgAkKdm6obG0OHDmXXrl2UlpbWO/arr74iPT2dwYMHM2fOnHrHb9iwgR9++IFu3bpFYqpNNNFEGDTOq44s107McOKMOXzxtnY8n7YnFf0SKeO2Ysy7iBhBpO37PpZe7qLfW9UYu5ezYtWbdQr+Jg4TWDED3VeNrd/4447ZL7sfU2433G/fje6tJLRtOdUvX4fvq39jH3g3rjunnVDwA4i2WGJvfgl191p885866Tx0TwWe//4VW/87kDPqboZiOf8aRFcavi9fadibbACCIHD99ddHpWNlKBTinXfeabQbe2tqfHz86RJUHSTFjSY5kTQvmGIwtBBm0UCVHBhaCMnkQEg8H4tnM4gmDC2EoIWwBEuowYWqGxgmF2WV1WjnX0XGed3ISEpBzm5b25hLU2sF/6bloATQEBB9lVj2/kwoNR8QkHb9BAy8qgAAIABJREFURFBRUGOS6+xUe7pYrVbGjRsXtZKDjz76iLKysga/ThBF4pLTadmhF10vuY6C8/shmexYYxxUrV+Lf95M/K89g/+9V1G+/xZMtRfJY+v6xdh4QifoyquqyqEa/GNFrd/ro8ZdzeLP57LuxxWHBH9uQXuuHXt/oxD8B0lISGD48OFRia2qKq+++uopv95dXHT4HwKNPtN/kPHjx4dV424YBh9++CF5eXl06dIlrNhz585l37599Q9sookmIoL06KOPPnq2J3Ekh2+4Bnue6cWQdddxz0WxCIBRVkq5zYE93HuybGqMSxmNFt1bgWfab7EPuh9T8w7HHRcEAXPBRYQ2fIlv3pOE1i7A0uFyYm54GlN257DEkmiLxZTbFe/8JxFkK6aso89jqArKjh/wzn0c0RqL8+q/IJygzb0gCEgpefjmP4m5TX9EZ+KpvfF6kGWZli1bsmrVqog3mAmFQlRUVDTKLo97istZ+dNPtM/U8AkJ6KZYLKE9OGMSEHU/oj0NRAlVVRE1P4YlHcmWgqi6MVttuEMGGAZGKIBkTSUgJeEPhBAOiEvRZMZidyEYBkpeZ9i0AjLbwPbVWBKS8LYegFxTgrlsB6KmoGR3QxQkDMGCxb0PZ/7p1VjXhcPhID4+nl9++SXisQHWrl1L9+7dT3mTuCCK2Jwu4tNyyOrTD8OkU7VrJ5WbN6FVliMUFyGIIoIogLcGQzJhxMSBKKLtK8TpKcGalnKcr7rZbCUmPomg101ZaSn+IzZaBoMBtm/agO9Ad16zxUqfQcM5v/elUXn4Ol1SUlLweDxRKdXy+/1UVlbSpk3D7TaXvTMJ/cADviDJZLbvTlrB8dfZxoYkSRQUFPDDDz/UO1ZVVXbs2IHdbqekpCSs+GvWrKFHjx5NTjlNNHEGaMSiX0At/5a/TXiYDz79kDenvMYz//cxtgfH0KPx3WfOCbzzn8LQNRxX/OGEAl6QZMxt+iFYHDiH/gFLx8sRwqzPP4gYm4Kc2grvx39HSmmBYLETWvcZvkX/wTvnn4TWfoaU3ALn1X9BtJ289EWKa4a2fxuhDQuxdr6yQfNoCA6Hg8TERDZv3hxR4a/rOuXl5djt9rD9sc8Um7YWUrR7G60zwGNthRyqwCp4ccSkIugBcGYg6iE0xY8IKFI8gmhCt2ej6zqBoA+/PRvF68XtgZiY2tKTIxEEAVNqLhZdJ2h1QsiHvP0HzE4nuj2OUFprrJKMnHsB5oRMBLMdQxAJJrVElGWsZnPEM/NpaWlUV1efnt3mCTgoirp06XLa8zZZrKS17UT+4CvJHXQ5CiGqdmyjeus2MHRMNW7MO3/BtHY5Uule9JpqzN4KHLnNCQWPNi+WTCbiElPwVpdTXVWF54jNmLU+/rUrrunZLRk0YhypmTmnNfdoU1BQwIYNG/B6I98ZuKSkhISEhAZ1Zg35vfwwffKhfxuaRkLzPLI694r4/KKB0+nE5XKxadOmesd6vd6wBT/UXgN/+eUXevTocTpTPA0Mqj+5h7uXd2ZopxiaagGaOJdpxKIfzHoRZcmjGD/6Ui7u35+LshNJ6NuTgqaEQMRR92zAO/dxYkY+jeRKPelYwWTFlHM+ov3UmyNJSTmIdhfeWX8hsPQ9tNKdmDLaYut7G86hf8Ta+QpEa3juLHLz9vi+eBExJgW5WfRKDVJSUg7d0CIt/Ldv305eXh6xsbERi3u6rN+4E5NeRVq8RFCIQRB07HIAyRyHoHnRXa0Q9RD491MTECitCuL3+QkEAvgUCU2wQ7CKgBDP7M9+wusNkdM8BQP90Pdc0zWChZspViyYUaB4G7aqPdCiC6bkFjicScixqQjmY5poCSI+fwB/IIjNao5485z8/Hw2bNgQFWtBt9uNoijk5R2/T+VUMdvspHc4n4IrriL7kkvwB91Ubt+Ke/tOBFXF7Pdg8VRjoOIqyDtu34IoScQlpeGtrsDr9VBdVXXUcUmW6dFvCD0HDMNsObrxV2Olc+fOLFu2LOKrcwC//PIL7du3D7u5W9XeXWz4/MOjGpZZY+PIvyg6JgTRoFmzZpSXl7N///6Ix/b5fLjdblq3bh3x2PWiF/Lm3bfz1BIXw2/tTXIUi571ord56uMkenaMPWMPF2fjnE00Xhq16BdTejKoXxtatWxJy5YtadO/SfBHi5rpv8OU2w3bBSPP2DnlzHaY8npgu+hW7BdPwJzfCymxOYLUsF+yaHUixiTj/eQfmLK7IMWnR2nGkJeXx9atW/F4PBHdLHgw29WpU6dT3igYadb+shNP5S7SkyRUwwyONJz+LQj2DPTAfqSYTAzJiu7Zg0+LwRc00DUNTVVRFAVF0VE0GUuogi17vazasJMt2/eSmZqIXffh2bebDcUBvtlQxjcrt9A9TcfcogP27I7IuV2RbLEnLO06iKpqVNd4kSQRqyVyn9vBjp3ff/99VERjYWEhGRkZJCZGviTN4owho3MPWl95Del9ehMIVFOxZTOewiIscbHEt8uv0544ITUdr7uSgN9PRXn5oZ8npWYw6LrbyMpr/auyWJQkidatW4dVlnIqrF69mt69e4f1mezfsp5tKxYeKu8BEGUT7QefuettJGjTpg1r1qyJymb34uJimjdvTkJCQsRjnwzlp5eYWpRJ4LNZVPQbz6DsKIkMZStTbr6Zj5uP4+buZ0iAn41zNtGoaZwbeZs4owTXf4Fashn7pfee8XObsjsfcgI6HaxdhmHrM5aa9+9H3b8tAjOrG1EUueGGGw51cowkwWCQ995774x0Mg2HdvlZdC7IwNB0NJMLq16OgIYoSugGaL5yEAQMQD2BLhYQwBLP5h17yUiJZ19pFf/9/AdC1jg+3+JnzqK1GBi0bpFKbKvziXEmICSF9/cgigImkwmPL4i7JvI9Nux2O7feemvUhO60adOibhOc0DyXC+54gKunTufi554jpWsXRKmOLr8HxKgoHu7KKwginS+8hKGjJhKXkBzVeUaLlJQUhg0bFpXYoVCIRYsWhTXWvX8P6EcnCbwVkc+YRxtBEJgwYUKDVtbatGlD27Zt6x1nGAbTp0+n6phVpuhSzYJp5Qz861+Y2Hc/702eR+URv6ZA4Te8eu+ltB3zGgufuJKCeDvx+UN57NsKDEAv+YJHLm9NgllEjstj4J++pMxQKV35Dn+4qgMDJv6VMeen4iq4jUdGDeTueUV8dXdz5JiRvL1iGo8M78xlTy7j22euo2OKi2YX/h8LSvaz+LFhtE5wkNRxHNN3Hbgf+Dbw7t39aZlgw57cnuFPL6VSKWXlO39gWMdhvLh8Ln+8NI+42CwGPrECj17IjDFHnvNGZkfezbaJXxmNWvQryxez/NB+Mzcr5y9mX+Sd2M45jKAPpWh9eGMNA//X/8Z2wY2IMUlRnll0sV8yEXPrftS8fQ96TcNdUsLF4XAwevToiG8803Wd/fv38+mnn0Y07qnSOj+LtCQ7mmRHkk1Img9BkJEkEVW0Egz5kTQf6AqSbD1h8ykNK4P7dsFiMVHj8ZGeGo9hGORlpXJ57/bs3V+N1WxC1MJzMZJlCUmSKCqpYtq8FSz+cQsmOTqNjtLT0xkyJDolGLqu89prrx23qTZaJOe1pvPI22jV9TI69rmSjJYdsNoPltAZaKpySPS74pMYetOddOk1EDEKze/OJF26dGmQVWpDWLJkCVu3bq13nLukCDV0tOIKet14ysOvfW8sWK1Wbr311rDH19TUMHToUFJSUuodqygK77zzzhn7Tui7ZzLXdg2DEzO5bsIwxDmTmVZ4MIMR5Kt/3MSDryxky5rvKe47me83fcPf2vzEo6MfZqFHZ89/H+c168Os93jZ9nxHfnzin8wu+okX77ibZz/ZwMaSTP6wpITqTVP4+/sL+Ht3B/1fKkSt+jP7fnsnT81ax9YV31B60XMsWvkGg4pf4DcT/83O3i+wYstCbhff5x9T1qBSw8KHf8+K/pP5oWgf698dyLZHbuThN57nrnueZc6G9Xz2WQ3XvPUjPz7TkZ+emMQCf3Ouf/uIc9a8z9UN237XxDlIIxX9QbbN/iMjhw/nmksHMnDgQAYOvIJrhzzAzKb+WfXinfsE7n+PRivdUe/Y0M8L0ar2Ye01+gzMLPo4rvozYkIm7nfuwQhFr8PyQTEYaeGvqiqrVq1izZo1EY17qkiaF1WOx6qVELQ3R0JFEkU0JDy6HXQNUQ+ycVsp/oCA3W47Lobb7WPWFytISYyjZ+cCNE1HNwwqq700S4lj/HV9yctKRTSffPXEbDKh6Qbrt+zhlWmLmPvNOopKqkhwOZCjJPoBunXrFjV3Ja/XywcffBCV2CfDHhNHVn4nOvW9iva9htAs9zyUUAhBljHbYrjqlvtIbtb8jM8rWgwfPpy4uFPfg3QiNE1jxowZ9a7Y7N+yHjg6YyXJJnb/tCTiczoTZGZmMmjQoLDGFhUVsXDhwrBWSA3DoKqqitmzZ0dimvWgsPqt5eSP6okVgbjLJ3BT2ne8+vpaatMPFgb/eyuzb03DnD+IET0zcKV0Y+ITd9GheD5zftRofsdXFM8eTbrZRtblV3C+yYtH6crfvl/GX7pYaHHRJbQ6/pII0nk89M1K/nGBhaTuVzOsWzrxWYO4tJMM+YO48aJsXIlduLCDnarySnTfl0x9ay4vDW9DgiOevEGTWB3Ywze7r2bpd3+msyWbwbddT9dmceT0vpAWagXlnqYMaRPH00hFv4W8q//Ib2+6kjH3P8ADDzzAgw8+wnsbv+DuM1vu96tDrykluH4BSCa89XjhH87y3xC15lZnGkEyEXPjM6Ap1Mz4Pww9eqUyBzOI0RD+n3zySVTcYxqKFnQj6n4EswNJDyKgI4kqoq6gYxDSBTA0ft66l//M+JLN28uw2Z1HLf9X1XjJz0ln1579bN6xl7zmqSiqRusWzfD6Q6xYsx1Frfv3JAgCZpMJtyfItz9t4cnXF7Dohy0IokBCrI2i4gowwBRlu79oiUaAbdu21VljfyYQBAGnK5GcNl1Jy+1As5z2tOs5qFFacZ4uEydOjPiGb6jNTr/99tsnzU5bXbU3LtlsRTJbkK02NCWEyRb5/h9nip49e9KqVauwxq5cuZIdO3Zw7bXX1lsup6oqmzZtYvny5ZGY5olxL+DFyVN5sLWMIAgI1t48uzXAhjdf5etDpk8SDqftqFp4KTefPNmD21O7IqCWreKDf93BZX3uZ2HwgNAWrFit9ZUF2rDbjhwjIknCUY+GoihiGAZ65V72mUbxid/AMA7+p/DzP89HsNk4KowkIQkGUehP18Q5QCMV/QBOev5rCo9cUEB2Zibp6amYln3O0jOz6verxb/4TeS0fOLum42y80dCG7854dhzLct/ENEaQ8zNL6Hu24R3zmNRPdfQoUNJSko6YWnLqaKqKu+8885ZE4NQ+1CoKTXIgo5qTsEU2IsoykiGgi7ImENl+DQJ0dDx+ENkNkvgk69+5OMvfqLGq2O32xElgaCisWtvKbIsYTbJVNZ48fqC/LxlLwKQEOc4blO0LEnIksy+MjdfLNvA41M+Ze2mQtKSXMQ5rWzeUQII5Oek4nRYMJmiW4IiSRK33XZbVESjrutMmzYtKhuGG4Ioithj48/qHKKJxWJpUFlKuBiGgdvt5qOPPjrhmMG/f44bX/qEC8c8QM9R9zHg3n9y61uLadU7vGx5Y+XGG2/E6XSGNXbevHk4HA769etX71hVVfn888/ZvXv36U7xBOgUTnuTyke2ohmHhXRg9T84v2Imr8zef4T4NjA0lYNpCX3/PkpoQUELiZK5d9C131/4OfNGnp/9JJdZOHZBJyKIsckkKcv5euUR9wNlNbM/id7+tSbOTRqx6Ifyty/GntaXEaNGMXr0aG5+4H02n6zs19jPZy9P4uWn3mb1EeWTyubPmfH5ImbNWs65XB2k15QSWPkRtv53IMVnYOs1Gu/8pzHU0HFjz8Us/5FIrjRiR79IcO1nBL4Pv3zCM+vPBL6fGf55JIlRo0ZFxXHH7/efVTGoayHQFTRnc8y+neiSDdEcg6CHCFmSEQwVzVuMAVgtZvaUVJCSEIs/EOS1mV+y5pe9iKKVssoabGYzJkli195SUpPi0HQdSRIIhBTMJpnk+FrhYDaZQBD5ZWcxny/dwHNvL2Tb7hJaZiVjkmV27CnDbJLJSHFRVeNHEAQSXI6oZ/oBYmJiuOWWWyIeV9d19uzZw8KFCyMeu4mjaUhZSkNQVZUtW7awdOnSE45JaJ5HhyE30WnYLbTsdRn2uOg0EzyTiKLInXfeGVbSQ9M0pk+fTteuXSkoqN9aWdM03nvvPWqO6BkRGRTKf3iBiVOSGD8y6ygRZGk3jjv6K8x/9AHeWltB6ICADy2bztRV5fgqf+a9P73Ixv53clN+OZ88OxXPgAf5zYiuOPbvpFSroWLrtyxeU8TeCp2AP3j4GUAwYZJ1SnbvYNu8D/i6uIiiUpWKPXvxGUComH1lKu59e6jWAGU/RcV+PHuLKLcOYNQwP/8eO4aXvt1NlXs3X076iJq22fiLCtmvlLFnbwADA9++fVSqpRQV+TGOOeeiqqb0//86jVr0i9J5/G7Rdn5es4Y1a9aw4adnuOQk2kr59Bru3TuK8Z3f5/qHD2YIdDa//gKrs7oS//0c1oS3V/BXycEsvzm/NwC2i8aBFsL/3TvHjT1Xs/xHIjcrwHH5g/i+eBHdV78jhLLzR4Kr5uCdd/KyqGOJiYnhpptuingWWNO0syoGRVHGmXkhidVLEdBBkJAscRhaEE20osqxWDxb0U3xbNm5j8y0JKpqvPiDIZo3S2LNxl18MH8FuZkpZKQlUHmgzMfpsKOoGglxTmRJoqTMjSQI+AMqP27YxdcrNlK4t4qUxFiu6NsRi9lCpdtHjN2CKIDHHyQrPZEhfdtz76gBXNAxH7PpzHj5ZmdnM2DAgIjHVVWVFStWRK0TcBOH6dmzJ/n5+RGPq6oqCxcuZOfOnRGP3ZhxOp3cfPPNYY11u9188MEHXHXVVWHZ1YZCId59992IOpopyx+mZ8/7mbvyPwxtfy9fH8qJhfj63q7cPtdDaNt7jO2YwU0f+AEBc/tsCu/vQHJGf570jGXGm2PJkpIZdMdIrFMHk9/rLhbY+zGwRSlzPvmZuWMH8MwvAda+OITu931BCEDM5JJreuOeMob/2xXPqhsu4vF1Qba+OJAuD07nmYGt+c2iAPveuob8ce/x2rX5TPjMi/uTcXSc+D2XPv9fnrpwB49f3oqsjmP4rM14RmrPcsmA59gSXMfjvbrz+xfvo+Mlz7E5sIZ/9BrEC7vTD5+zsC0XxjWZdv6vIxiRNBs/TQzDOKLez6Bi3p30uHM5ueelIQLBHUncsvpdxtS1MQaDffeLnH9ekKK+4zFdOxRt3bW1h8pncEXGSLzPFfLlhMw6n3RCoVCDugg2OnwV2KbdTnDgH9Gzzj/0Y2nrN5gXv0zg+skYjgMXWcPA+uE9aNk9ULqfu6IfAEPHOvsBtOR8lD4TTzxO17DOuh/DGou4dy3+UVPB3rANJOvXr2flypWoamSfLGVZZvjw4bRp0yaiccPFU7aN8k3zUWoKicnuj6HW4K+pwB6bhCWxFYIljSU/7uK7H39h7caddDovl5XrttGpTQ5FxeUkJ7jIy0rFZrWw4NvV/Hb8MHYUV1LlDtC2ZToxDgvbi0rZva+S+Fg7LqeN6ho/oiiAIBAXY+Xr7zcRF2MlNTGWbu1yyUhLJDEuBinCZVXh8s4774Tl2tJQTCYTEyZMICnp1+2k1dgxDIOnn34aj8cT8dgWi4W77767UTXaOxN8/fXXYVuY9uzZky5duvDaa68RCh2/En0ksizToUOHqFmvnhyF7x5ozaA9T1I241qazG+a+LXTiEU/aBsn8+f/ptO7sxURHc+PO4n97Z0MPEG23/NMEvlSIYU9R5LyxJ8on90N0Nn+wh/5ZthN7Ln+r+Qv/JDr6ihB1HU9Kg1HzhShLyah792A9ZbXjjsWfGcigisV85V/AUD75StC8x/HOvEjBNu5f2PSitYRencilrGvI6bWneFTf5qFsvg1rHfMIPjmrci9bkHuOLTB55o7dy6bNm2KuPAHuOKKK+jWrVvE44aD4q9i/6bPscSmgwBmeyI2VwYma+3fj64b7Ni9j1nzl1JUXE6N109CnJON2/bQoXU2P/28gx4dW9EuP4uWLdJRDQMQ2V/hZsuu/TRPS0ASBfZX1mCzmLCYTFitJrbtLiU9JRanzUKrnFTSkuKJcdjOepMoRVF4/vnno1B6AC6Xi7vuuguLJdISQ6V05TSe+duTrBswhzn35jTupd4o4/V6efrppyNePicIAikpKYwfPz7im/wbO2+88Qa7du0Ka+zw4cMRRZGZM+svp5RlmSFDhtClS5fTnWLD0MqYOfo8bil+mA2f3kuupSlT3sSvm0Yt+vUdb3J111vRX/ExteBDXv0mkwn39ifxRN+7mvncd9c6eqRtovC2/3DFH0zcfFuIuaWP8FrGjfRcuwz7XXfQq3E0PI0Yek0plc9eQcwNzxwq7TkSdd8mqiffSOxtryM370j1SyMwt+6HfeDdZ2G2Z4eaD/6IXl2M67Y3jjum+91UTboS+4CJWLtfh2fO4xg1pcTc+GyDz6MoCpMnT6aioiKiHXsPMmHCBJo1axbxuOGgayr+6kIszhRkc92uIx6vn6U/bGDmvO+wWc2IgoDb40eWJURRwB8I8eD4q1i1qYhqT4DcjCRCikp5lYcYhxWzSUaUBHYWlZOeHEtinJPWLZqRkhiHxdy4HGWqqqp4/vnnIy4aJUmiRYsWjBo16hRerbB7zl+483eT+WI75A2+j6f+NRTvOivDrwrxWO+L+ef3PrpP2sSi+/63RT/Ajh07mDp1asTjyrJMu3btuPrqqyMeuzGjaRpPPfVUWAYEJpOJAQMG8MUXX4SVJJFlmXHjxpGeHr2O60dhVDD1inTGzq/dIGjq/gTrlj5Ewa+7bUUT/+M0YtGvs+35h5hzcW9y9gziqkFBJvfqRcW0tTycdZKnbUNFNWRkEQj6CVpsWAA9FEI3m/k15l2UHSsJbfgKa58xSLHHNzjxznsStWgdrjuOr90/iOfjf6Du3YCt9y14/vs34h+cf05u4D0Runs/lc9fhXPYn7F0OHojn2fO46i7V+O6cxqCKBLavISaGQ+R8IdFCHLDhWZVVRUvv/xyvcvWp4LZbOa3v/1tFLLAkcMwDHYWljBv4Qo++3YNrbLT0HSD3XvL6Ng6m+FX9GbjzmJ8ARVF1XA5a727VU2juMxN87Q4spolkpORQmL82SvhCYctW7bw7rvvRjyuyWSiT58+9O3bt0Gv09b/nY49/suQWR/xSL8kPNt/YPbjdzM5dxqr/toBSfuZf3Tvzuc3/9wk+g/QkLKUhiDLMpdffjldu3aNeOzGTHV1NZMmTYpK0sNut3PPPfdgt9sjHruJJv4XaMTXfJG0jrlou0qpqSni+ynj+NMPebSNr2d5TTgg+AEOCH4A8Vcq+AF8X71KYPk0qp4bhu+rV49qOnWkY8/JsA+8G728EM/M35+zjj0nQ4xNwXbROHwLJh31+anFWwiu/AjHkIcQDohLU243MHTUXT+d0rni4uIYOXJkVOwdQ6EQU6ZMiXjcSCIIArlZaYwdeRkPjB2KphtUub1kpSfhCwRBoHZjrsOC3WrC6w+xv8KN3WZicJ92XNqrA93atyQl0dWoBT9Aq1at6NOnT8TjKorC4sWL2batYZZ8oW3r2Z57NWMG5uC0OElr0587X3+fB1od+ByFY73Bm+jfvz/Z2dkRj6uqKp9++il79uyJeOzGjMvl4oYbbohK7EAgwPvvv3/W7W2baOLXSqO+ozr6jWWIbyefT53AX77I4fkf3+WqmPpfdy6hVRSh7vwR1z0f4rz2HwRXz6XquWEEV8+ttd08xrHnRIj2OGz9bgM4px17Toat12iQLfgXv37oZ975T2I+7xJMOYdrRQWTBVOLboQ2f3vK58rLy6Nv375Rqendv38/H3/8ccTjRhqH3Ur/Pp148Par6Ne9LTsK92O3WjCo3QNQXuXBFwiR3Syeof07cVnvThS0yCTWaT/rNfsNYcCAAWRlZUU8rqqqTJ8+vd5ur0diu/ge7hWe5brbXuen8gOOJ6aOjBnVjqMeQbW9fPrHgeTGxpB96ZP8cKAZkVbyFY9d24kUmxl7Rg/GvPwj1QYECr/h1Xsvpe2Y11j4xJUUxNuJzx/KY99WRMOW/IwzZswYbLY6HSJOC1VVeffdd/F6vfUPPocoKCjgggsuiHhcXdfZt28fCxYsiHjsJpr4X0B69NFHHz3bkzgSQTCoLtzI9j2llJZWYaS0p8+ll3NZv7ZUrvgRZ6c2uH49euC0CSx5GzQVe99xyCktsHYbAQj4vniB4A8fomxbjmPYI0iJ9YsOU1YnbL1vQbSG10zlXEMQJaT4dLyfPoOl42CUbSsIrJhBzKjnj/tMjEANwdVzsV1w6hmrnJwcCgsLqa6ujvhS9759+0hOTiYl5fhyr8aEIAjEuZwUtGxOVrNEdE2nWVoCNb5a557u7VvQJi+T+Nha+85fK23bto2Kc5Ou62zZsoUuXbqEt3JkyWLALcNIXPEEY2/5B1+5E2nd6Tya2Q/kd4xKlr35MgtLMrn4nsd58p5Mvv3r31jb8V6uyd3IY/2vZcWID/ni/ScY2+YXJo37DfPTR5Ay/Upu/88aSo1ULrnraZ7+83ASlk3ij5P30PO2K8j7le+TEgSB9u3bR6ULrKZp7Nixg86dO/+qHmZPl1atWrFp06awHZIcDgc9evSotyGXrusUFxeTmJjY6K9/TTTR2GiEmX6FVf+4kkFj72TCNd1pe9EN3DFxIhMn3sXvH5vGD/9DzSUMXSOw6hMsXQ9vBhNkE7Y+txB3/yeY8ntjbndpvVn+IxHAbZaLAAAgAElEQVTMkc9m/Zowt+6LKacr3k/+ie+zSdj6jEVypR43zpTfB718N1r56XWEHDFiBDExMVG52c+ZM4eqqvr7DzQG7DYL/S7swKX9zsdhtzK4b2fOb5tHSmIcktQIL0MNxGKxcPvtt0f892wYBtXV1cyePTv8Fzlac/3TX7H9l6kMKZ/ExTlduffTEg4XRIhkXjKKqzsm48rtzQXZQUr3e/B9+TTPFF7Fb2/rSKI9hpbDnual2518OWkauZO3MvvWNMz5gxjRMwNXSjcmPnEXHYrnM+fHc6NNusvlYuTIkRGPq+s6JSUlfPbZZxGP3dgZN25c2I0LVVWlc+fOdO/ePayxs2fPZv/+/ac7xSaa+J+iEd5tLfR9fBmrl3/NW39+ia/3rOHbRYtYtOhbPp2QS9m5cX8JC2XzEoygB0u7y447JjoScF75MDHX/+sszOzXjWPw71C2LkOv3oetd90dVqW4ZkgpeYQ2nXqJD9SKwdGjR0elzCcQCDB9+nQU5dfxpRAEgeYZybTKTsf1KyvhCYfExERGjBgR8biqqrJp0yaWLVvWoNeZ0/tw53+W89NTibx+w4PMr9NdVEKSQNMU9m36BbfFhvXQXcFKh56dEYuKKNElHE4bR/7GpNx8/r+9O4+LutofP/6alR0UEJFNQUWJ1FJLxdw1NYtMUcmtLLfU3/12uy232+3evOW9t+zetCwXTFOvu2bmhluY+y4umLgHsomAyD7zmfn8/qCZAFlGmBGE83w4D5iZw/mcDyPMm/N5n/dpqc7lXm79ya9u27Yt3bp1s3q/kiRx6tQpzp8/b/W+6zKNRsPkyZMtaltUVMSaNWvo27cv/v7+VbaXJIkVK1Y80qW2BeFhq4NBPyjcPXFXKGkWeId1/1zOrgP72fHdu4z9/DzODahObuGpH7B7fCAKO1GpwJpUTVrgHDEL14lLUGgqroKjadMD/eWDNT6ep6cnw4cPt0ngn5KSwtatW63er1A9oaGhNtlLQZIkdu/eXWUNdOnnRSy5UTII19DiuXAez71AXGplwbmSJv7+aJL2c/hXUzuZosIi1KHtaaUsvi8bJEx7oxpvp5BGEG2CHtUSCeUbNGiQTcriSpLEDz/88GhvAlkNTZo0YdiwYRalp6Wnp7NlyxZGjRqFs3PVaah5eXmsXbvWJpWCBKE+qpNBv4l9tzf5e/9stnzxMZ9tuMfLUZ/Rp/7vJQWAMecO+ssHSqX2CNZj1+E5NM2frLSNNrgH+punSlX7KavgyCqKYrdVebyQkBC6dOlik8A/NjaW48ePW71foXqGDBmCt7e31fs1GAysWrWq8g3BpBP8bfh0vjt0k7s6I9K9y2z85Gti27zE4EAlxrxEEu9IZCYlky+DnJ9G2j0Dd5KS0Qz8P6YEnmDmlDmcuFNEQfJ+5i66wrB3IvH/7Z1Cd2QN353JID8rjpV//YpLfd5gTD0sXD5p0iTc3NysfjXKNDttSR37+qRDhw6MHz/eosA/Li6Os2fPMmrUKJRVVO8yGAwkJCQQExNjraEKQr1WB4P+ArZOHsS/4vRkrhnHky98yMqfT3PuyAb+8uKf2Gn90ud1UtGZH1F5tkDj3762h9JgqQM6oNDYob9W/uI+feJ58qP/i8KpsUX99e/fHz8/vyrfyKpjx44dJCYm3vd4cnIyN27ceKCbLXYTbkgUCgWvvvqqTfZS0Ol0/O9//8NgMJTfQDuIrza+hdf+P9PLxx6NZzf+kT6azTs/oL3iMp8PGMCc+CLiZvei65+/4v869OfLK4XEfhxG+MpgPtuzgQny1/T1dsG750xypu8g6iXP39J6FGjbNSfxj+1p4tuHz3InsHbpBALq4LtITalUKiZNmmST1zA/P581a9Y0uNnpFi1a0K9fP4smPvbs2YNer2fQoEFVtpUkiUOHDhEfH2+NYQpCvVY3N+eSJIxqNYqMIxxI6UTPx4sXAhWePcW10E6E1q+ryeXK+iIc+y6jcAgbU9tDadBy1r6Hws4J56F/K/W4rCvg7tej0LTqhvML71vcX0FBAXPnzrXJTJ+LiwtTpkzBxaW4rm12djbr16/H3d3d4j4yMzPp2LGj7ba7N94m5tNp/HHuTm5on2Ds7KX8t08i/532R+buvIH2iTG8M+Aa/z0Uzp7t02n5CE8ip6WlMX/+fKsHd2q1mnbt2jF06FCr9ls5PYfeasugpM+4s3Y4dXdrOOv69ddfWb58udX/EFar1XTt2pUBAwZYtd9HwerVq7l69WqV31NHR0emTJlCTEwMsbGxVfar0WiYNm3aA/2+E4SGpm7O0ajVKAGFRzdzwA9g36GKgF++TfTXX/D17OXEFpV5LmcP73/yM5b86jak38RYUMkldBvT3ziJMTsFuyeG1NoYhGLaCvL687bPRqFS4zTojw/Un4ODA4MGDbJJmk9OTg7r1q0zzwIbDAY0Gg3+AQGlbn7+/qVuvn5++Pr54ePrS9yFC9Xa+MaQcZIlb7/EU80b42DniGdwL17993ZullpjJ5O66g2mnxvG1vgzLHmxiG3LNjF/6nTODdtK/JklvFi0nWjvRVzb+WgH/ABNmzYlPDzc6pu0SZLE+fPnOX26epvHVYshm6TUHKT0WyQX1Zl5Iptr3rw5/fv3t/rPqyRJHD16lEuXLlm130fB8OHDcXV1rTJ1ynRFxNI1FpIksXz5cpvshC4I9UWdnjM3Xv2GwcN+4f1Tc3ns7DKWxrZj+sTOVLS8R79jGH9I3kRcn3E8/kFv4j831a7P5timFWw5MYiZFR3LaDRXAdD9tBC58B52I2Zb+5Qsoju2AVXrnhSihfz8WhmDUEz264gx5w65N86ibNoaAMPl/ejObMHulSgK9EbQ//4aOTg4VPlm5uHhwYsvvsjmzZutPoOYkJBAdHQ0Q4aU8wejLGPU65H3H0W+mYjC0x16h4GL829PVy+Y011dwqjeb/Hri1/z7bGVtPNUcDd+N3NnvMKTm2ewfdff6eYCcI+YTTG4d5+Nj1sQw786zvDs1QwPdKf75z64BQ3nq+PDq3/ydVDHjh1JSUnh9OnTVn2tJUli27ZteHt74+PjY7V+yyVn8l24HxO2FwFv0qZnIecPv0c9TOUvV7du3UhMTCQ+Pt7qr+GGDRt444038PDwsFq/dZ1Wq2XcuHF88803VVYeS0lJITo6msjISBYsWFDpFVJZlrl37x4bN2602Y7AgvCoq8NBv5GEmExe+v7f9NIoUXQeRZP3evDN4JO861teUCVzZ/chch9zQxXgzdWdJ+C3oD/z0G4Ke0cQsrniTUIkSeLOnTsAKEKH4rB+BllndmLw71TlSFXXDiA7umNsFlqtMy2lKBfHSzEUPvsBxt/GI9Qu+yatyTm3B/2TjSH/Lo7b/oW+08vkqd2hzGvk5+dn0eK/9u3bk5CQwJkzZ6we+B8/fhxfX99Su8TKsozRaET6einau9nFDyYmYbhwCeO0V1G6ulQv6Jcu8p+Rb7D7sa+59NUY/H67dugZGs7Hm74jMSScke8+w8X5/XAxZpCapkOj1Zi/3JiRSppOQ4mH6p3BgweTlJRESkpKta6iVMS0KHTGjBk4OTlZrd/7KNx5dVshr9ruCHXeSy+9xPz588nMzLRqupZpdnratGk2WT9QV7m7uzNy5EjWrl1b5e+/2NhYPD098fT0LHfdUkkGg4GrV69y8OBBnnnG8v1rBKGhqMNBv5KmIc7c3HuMOIMnybv+wbs/efCNc0UBlQIXPw/IMyBnZdGo1W8Bj/EKaxet4YwqgQ3fOzP85igiW9yf1aTVaksESQHkJY9DdeI7GnV9HoWq4ohESr5E9k+fA+D+0fFK21qi8NhaClw88O32Qr2rY/6oym/XD/2Vw7gF/Il7K2YjN22Fx/NvoqjhgtzBgweTnJxMcnKy1fO+TWXv4PcZ/KLY82gSksDVGWQZ6V4uKmcnin46iCZ8YLXGIB2P4utYFYPWjjQH/GaNnuW1CC+WLfmabTMusajjDGJ0wKEAVG915N33XJnzyT6KH1LxVqdZnNo2kLNzP2Z2bG82bX2TICVIt6L5xxtv8tX2eAqbdWfinBX8NyIQTf5F/vfudD5adZRkVSuee28hUX8Ko3Ed+7FRKpWMGTOGefPmkW/lK3eFhYWsWrWK119/3SYLxIViGo3GPDttzfQRWZbJyclhw4YNjBnTsNZvBQcH0717dw4dOlRl4L9nzx6L+5UkiZ9++glfX18CAwNrOkxBqFfq9LuEwzNTmNBoO399fSIzo5vyr1MbGelWcXvnycsZcfpL1m704N1PnyRuuIJOO4N4Y9kGFi38OxHDJjGsnIC/PI69JiLrCig8sqrCNrK+kNwNf0HbbhAKx8YUndnyoKd4n8KT32PX8UUR8Nch2jY9kG6dIz9mEdKvsThHfFzjgB+KK4SMHj0ajcb609ySJLFjxw7zfVmWKbqZSM7ZC+TGXSLr8AmyT57h7pETSEnFf3Q8eNAvc+fiOW7TjOCW5c00qwgKaYWq4DwX9FP5Kf8Ks7s60furBAy6U3z6cQz5V2bT1ak3XyUY0J18F2PUDGb850cu3fttRrzgMH/uN52ro34goeAeBycXsfT9b7lgyGHPB3/mWJ/5nLiVwoX/DeDah6P5MKZupsM5OTkxduxYq+f3G41GUlNTG+Rurw9b48aNiYyMtHp+v8Fg4Pr16+zfv9+q/T4K+vTpQ/Pmza3+c2EwGFi9ejXZ2dlW7VcQHnV1Oug3Xl3KH2YV8WbMUTbN7Ezm6XgqTtABXJ5j7rI/MfLfS3gvWE3oqnwOD/7tl4lmCOs3voxlG4KDws4Rp2f/j/yYRRhzyk+zyd85B9kg4Tz0bzg8M56Cn79FNlR/d1Qp6SKGtCvYdXyYVTmEqqiatQVZpuCn+Tg9/2dUjayXQ+3s7MyLL75otf5KMtVzNwX0qg6hGHQ6ilJvY/xt/YqxqIgif1+MRmMNUk+MlP+lCpRqNUqUqCz6TaOmw18PcvSjTuZLkHm7viSq8R/45+i2uGhd6PS3E+Re+YQni/by3bKtzIsIwd2pMS0HfUFsYRIxe3+p5jnYnq+vL88995xNFoWeOnWKCxcuWLVf4X4tW7akZ8+eNnkN9+3bx/Xr163ab12nUCgYOXKkTdLTdDodK1asECWIBaGEOhz0l87p9+o8iiarp/BNUhWzkQo1atNZ2TnUqLSc3RNDUDdtTf6uL+97TnflEIUnNuIcMQuF1gH7LqOQdQXVnu033E0h9/sP0bTthcqtaQ1GLVibQqHAvkskmuBnbFJR6fHHH6dDhw5W79fEFPQ7tggg/+WhyCWuIuU+/QT2fXtUM+hX4BnSjiZyChculTejZiD52nUkp448EWjpTJ4Ce0eH3+rCG8lIuEmRZxPcyvymMmYlk6IZy48Fsvn8ZFlP3Kyq1+DUps6dOxMaGmqToHHTpk3cvn3bqv0K9+vVqxctWrSw2ez03bt3rdpvXWdvb8+4ceMe6GeiY8eOVa6BkGWZrKwsNm/eXNMhCkK9UYeD/hI5/fHn2PXVeN79yYMWFeb024bT8+9RdHYb+sTz5seMeVnkfv8RDr1eR+PfDgCF1qHas/3SrQtkLxyHsrEfLhH/tOr4Betwev49XMd9ZbP+hw0bZrP60qag2Gg04j1xHNI3/+buxNHkffIenv/4M0q1CoPBUPGGT5VQd3mNKY9L7Jm/gqtlJ9Ry9rNkTRItXnuDgS7VGbmSxs184OQBzhaWeca1CZ76o8ScLFHNQx/Lph+vVedAD1V4eDgeHh422e11+fLl5ipkgu2MHDkSZ+eK6shVn16vZ8WKFVVWtalvvLy8GDZsmMWBf0BAAMOGDauynSRJXLx4kRMnTtR0iIJQL9ThoL9sTr87722PYkQlOf22oPYJwa7ji+Rv+9Sc85y3+WNUjZrh0GtiqbbVme0vittL9pJJ2LUbiMvoL1BoHaw6fuHRMXXqVJvU7zcajSVmw2W8QlSETGxMQE87ZNlonuWvVnqPuj3vrv6CHpff54XJSzmenI9kKOD2+U188EIk61p8woZ/9sQRkLKvcyNdIvXaNXKMABLZ12+QLqVy7VoORgA5n8SEdKQ7idzKl3Hp9xojpCim/2kz13IldFlXiZ63lGPK/ox9sYCFE15l3oEE7t5LYO8XG8kJbWHV750tqNVqxo4di1ZrabKh5fLz81m7dm2D2+31YbOzs2P8+PFWX48jyzJ3797lhx9+sGq/j4LQ0FA6d+5s0e/ArVu34urqSq9evapsK0kS0dHR3Lp1yxrDFIRHWt3ckdd0P30PH/+//3AwQ8Io64jfm8ufM08xvfHDHZcxL5O7c17EcfDbIMvkbf+MRtPWoPIIuK9twYHvKDy+nkZv/lBlJZ+CA8vI3zMPp+fexr7LKFsNX6hjEhMT8ff3L/e55ORkFi5cCBRXlLK3t0elUqFSqVCr1ebPS94v+XjJzw0GA2lpabRs1coc8DdutBMPj2yUSgdk2UBOThG/JjyP0ajEaDSyKzqaMWPH0rlz5wc6J33yz8z/ZBaLNh3mcoaRRi27MXTS+/xtRn/8tCBnLSO82ats/W3TPIX7K6z+NINXJm2l+CEF7q9u5sDj/+LJt4+gAzRdPuXCoXfxi1/Km6//jZWn7+LdbRwffPkZr7V3Rr53ivn/7w1mbTxLTpPuTPlyGf9+wZ9HpXz8zZs3Wb58ebWusFRGrVYTFhZGv379rNqvcL9ffvmFDRs22GTH3gEDBtC1a1er9lvXGY1GlixZQlJSUpWTEG5ubkyZMoVNmzZx5cqVKvt2cHBgxowZNrlCU1eYrtgaDAYkSarwviWfm+7r9XqcnJws+gNLqPvqcNAvk/DZy/yRjjidvkXf8GAO75F4J+pNWtfCu3rB4ZXk7yguzen04ofYdy7/0qKsKyDrP0NwHDCj4jYGibwt/6To/E5cRv4bbZseNhu3UPdUFvQDHD16lB07djBgwIAa1ZrOzMxky5YtBAYFIcsySsUtgoJiUKlMfzXLgIJff21CRubjyLLMnl27qhX0C9Vz+PBh9u7da/WgUaVSMWrUKNq0aWPVfoX77dq1i2PHjtnkNXz11VdL7bfREOTn5zNv3jzy8vKqbBsUFMSIESNYtGgRWVlZlbZVKpV4e3szceLEGq3HkCSJoqIidDpdqZter0ev15s/lyQJnU5nDpwlSTIH1Xq9vlRgXfI502NarRYXF5dyg3Gj0Wj+WN6VWoVCUe6t5PPweznnkh9LpoOWNHNmRVubCo+SOlynHxy8muGa/SSv9U5knc4Pz4N/53+3/4+ZzR5+OUv7LqPI3/sN6qatKwzmoWRu/2Lsnnzhvtl+/a+x5G3/DDk3A7dJS1F7B9t66MIjpmvXrmRlZZV6Ayi7aM1oNJaqy56bm1tqBis1NdWcPmJK71Gp48jPP4JWG4gkpaHT3USj8cPevhdG42NW3ThKsExYWBgJCQlcuXLFqkGjwWBg/fr1DW6319rQv39/bt26xa1bt6x61cZgMLBy5UpmzJiBi0u1FsU8khwdHRk7diyLFy+u8vt5/fp1tmzZQpcuXdi9e3el7Y1GI8nJycyePRu1Wl0qaC4b6FavhLF15efnV3tRtzXHr9FoePbZZ63Sl1D76vBMP1B4geX/iKHVe4OInxbJV/IM1q+YQMtaun4v64tAqawybae82X5Ddir5O+egu7Abu87DcOw3DaXTQ85TEuqEqmb6TTZu3Mi5c+fM94cMGcLTTz9NQUEBCxcupFOnTvTo0YOioiKioqIICQmhX79+SJLEt99+i7e3N3fv3sU/IKD4Dc1wFj+/T+47TmpqBPdyhiDLMj/HxIiZ/odMr9fbZLdXhUJBo0aNmDZtmk3WDwi/KygoYN68eeTmVlpU+oEplUq8vLyYPHmyVaoFmWaMLU39KHm/otQP00edTsft27dp3ry5+bHyZrIlSTLPVJecuS55e9CfA9M6AFGe0/rs7Ox45513bLKfjPDw1e2g/xFWnNu/Drfpayk8vJKCg8tQ+7XD6bl3UHu3ru3hCbXI0qBfr9ezePFiUlNTgeIAYMKECQQEBJCWlsbixYuJjIykZcuWZGRksGjRIoYOHUpISAjZ2dlERUXRpEkTfP38it9MDRIuzp/g7nHJfIz8fHcSEv4KCjeMRiMH9+8XQX8tyMrKsvpur1CcItKqVStGjx5t1X6F+6WmphIVFWX1wFOpVOLu7o6fn1+pALpsIF1V+kfJt3qlUnlf2kfZj1B+2kfJm1C/qdVqevbsKfL565EGEfTLt6P5ZuU18j2684fxT9Sodr/Fx9QVkPnvvqAvRNnYF8dBb2H3WN+HcGShrrM06IfiYHDBggXmMozOzs5MnToVFxcXzp07x/bt25k6dSqNGjUiPj6ejRs3MnnyZDw9PTl//jynT5/Gu1kz86VrvT4P2fAjzi5XKShoQkHhENTqJuag4PDBgyLoryVXr15l1apVNlnY27t3b3r0qP9rhyxdyFjy/vXr18nMzCw3t7pkAG0wGNBqteZF8lUF1oLwqFOr1bzzzjvY29vX9lAEK2kAQb+e7c+EcmhTHH3GPU70okt8HvBwribo4g9gSL+OfdeXUajF5XWh2IME/VAcDK5YscJ839/fnwkTJqBSqYiOjubmzZtMnDgRtVrN4cOHuXTpEq+99pp5Ia9X06bmgMRoNGKQDRRqCtAWacGoKPXcsSNHRNBfi2JiYjh48KBNFoWOGzeOwMDAGvdlzfSQsmkiZT8v72tKBuHVWchY8j2m+A/hhlUTXxAsoVKpeOqppxg8eHBtD0Wwojq9kNcq5DvsPpTLY24qAryvsvOExOcB9+em6fV60tLSrHtsp8DiW6rYJbOh8PHxKbXA1hpatWpFv3792Lt3L/3796d9+/bm/N5BgwaVahsWFkZYWFipxwwGgzmoT298myvNr6DWqJEMEj5pPnhfayYu19cyWZYxGAx07dqVX3/9lYSEBKsvCt2yZQsBAQHmXGtTcF1eQF42qDZ9XvL/iCmQNv1/r6pCiOnzyiqEWIv4/ywINVeT6nFC3VT/g36FC34ekGeQycpqRKuA8gMylUpF48ZiYa1QM7Zak9KzZ0+Sk5Oxt7fHza3qHepKzhSbArciVSFxLeJw0RRXAlGpVdz2uY0mS0Oj9Ma1EiSVnLWtbLbY1dW1xj+fpsDakllpS2aoDQaDuSRf2VnqkgsYKwumH2ZaSEZGBhkZGVbrz9aBuyAItUOpVPL44483qKpRDUX9D/pxZvLyEUz/ci3JHu/yaafyKyAolUqcnJwe8tgEwXIvvfQSa9as4fTp01UGr1Bcas3f398803/J5RK/Sr/SUtWSdCmdRH0ivhpfVJ5KXNPczIHnnTt3OH/+fJXBuCk1orIguaqg2tJgV6vV0qZNG2RZtkpgbZqhrmghY9lxiYWMgiA0FAqFgt69e9f2MAQbaABBP7g8N5dlz0rIajXWTbwQBMvodDqSk5MxGAykpqaSm5v7wEGyQqEgJyeH9PT0Bzq2KehVFCm4WHSRi0UXzc8l6ZNwvudE6xJB7MWLF7lx4wZ9+vRhw4YN5eY8d+7cmbCwMBYvXkx+fn7NvjkW0Ol0nD9/3mr9mWb9BUEQhN8pFApatmyJu7t7bQ9FsIEGEfQDKNRq6kcxUOFRU1hYyIIFCyrdMdLV1ZURI0YQHR1NUlLSfc+3bt2aYcOGsWnTpgcO+k0z/UHZQTTOb0SW4+8bvmgMGlonBd+XohEZGUnjxo0JDw9n48aNpZ5Tq9V069YNDw8PRowYwfLly8WstyAIQj2gUqno21dUGqyvxMS3INjYyZMnq9wivlevXgQEBBAZGVlumlmrVq1wdHRk+PDhD7zDqmmmXymriLz4Mq0SWuKU64RPajOGnR6Gu97jvnSV77//HoPBQPv27Rk+fDhBQUG0bt2atm3b0rZtW3755RcAgoKCRHUHQRCEeqJZs2Y0a9astoch2EgDKNkpCLVHkiS++OKLKnfq1Gq1TJo0CS8vL4qKiti6dSsKhQK1Wo1KpUKr1TJgwABz+1mzZlW5kZMpp1+j1Zabi172c4BzsbH4BwSQnZ1Nly5deO655yw6z3Xr1hEXF2dRW0EQBKHuUavVjB071iqlfYW6Scz0l6VPYuOkqazKsuxvoYLYBbzeI4Rn59/EshoWqawe146QgXO4aMEXyGkL6aWyw8FOwdP/Taz6C/SX2fLdChbMnM+xKnaE1ydtZNLUVRSfqp6kjZOYuiqLis68VPuCWBa83oOQZ+dzs4LzKN0/pK4eR7uQgcyp6MRLfu/lNBb2UmHnYIfi6f9W3R49l7d8x4oFM5lfwYnnH5rJs6FBhM2KRVfO+Mr5AmY+G0pQ2CxiddV5rSE2NrbKgB+Kc9bXrFlDYWEhdnZ2DB8+nGHDhhEeHs6QIUNKBfwAQ4cOtej4er2eE8eOcfL4cU6dOMHpkyc5c+oUZ06dIvb0ac6eOcPZM2c4FxvLudjYUl977NgxYks8lpOTQ0JCAjdu3ODKlStcuvT7zr5Dhw7Fy8vLojEJgiAIdY+7u7sI+Os5EfSXpWmKV9oRzhVY0ljGEDiGxXv/gnHTcSzZTkd38GO+df2SmG1v8pgF332jvh/Li4rIXjOBDu2qvuSW/+04PnccxcTumxn94bVK22qaepF25BzFp6qhqVcaRyo58ZLtZUMgYxbv5S/GTRyv4MRL9a87yMffuvJlzDberOjES37vjXr6LS+iKHsNEzq0q7p9/reM+9yRURO7s3n0h+U0NnCn6Xi2n99Lh88nEa0ve/7lfMWdpozffp69HT5nUrTugV9ro9HIoUOHLGhZLCMjg++//77UY5cuXSIuLo6zZ89y+vRpUlJSAAgNDaV79+6V9idJEu7u7nQLC7P49nSXLubdfwG2bNliPmZBQQE//vgj27ZtY8+ePezfv5+lS5ciyzJarZbp06djZ/cw9rsWBNVeIk8AAAz8SURBVEEQrEmj0Yhc/gagwSzkfRBKRfllPe+nwNkVjv7xTfa6bcSiWiCB43m90TSahUSSEP8O/lUE/iq/VjRHx+btWiLnV/1yKd2KOLDpDGnDM7h+LQ1oWVlrSp2qUkHlZ/57e0XxifPmXjc2VnjiJfsPZPzrjZjWLITIhHjeqeDEzd97lR+tmoNu83a0kfMrHpGpvdKNogObOJM2nIzr5f2xoyKgVSDoD+E+/n36aACpzPmX/YqAVgSi55D7eN7vo8XZueiBXuuLFy+SmZlpQcvfxcfHs2/fPnr37o3RaOTKlSukp6ejUqlQqVRcvnyZrl270qJFC5599llSUlK4fv16uX3JsszZs2cf6PhlSZLEmjVrmDJlCl5eXsyYMaPS9hEREaxcubJGxxQEQRAeLgcHB9q2bVvbwxBsTAT9NaVwoesXcXzQcjg79YcYev9mv6Vofbvw8qxjNEmdyHEJ/LUWHEMXzU7tSL604NWyf/koV5puYsWH13huZmeLTqF6FLh0/YK4D1oyfKeeQ1WfOF1ensWxJqlMtPzEid6pZaRlJ87RK03ZtOJDrj03s4JGucRuvMWIf43C0i1HcmM3cmvEvxjlAvBgr/XBgwctPEpp+/btw8fHh+DgYF544YVK20ZERLBw4UKys7OrdSxL3L17l/Xr1/PKK6+YH7t3716pkqJeXl4olUqCg4Pp3bs3+/bts9l4BEEQBMtVti8JFE/u9O3bV6ypbABE0F+WIZNLcWc4fzUX2celijKfek7OeYtdjTqgfnMWA6oIAsHI+a/fYKW6N22Gvs0YS+JeQLdrJ6oRcy17sfR5FOQlcmfULjb0r/wAhsxLxJ05z9VcGR8XI5mX4jhz/iq5sg8u5Zx4yfZN4ufy1q5GdFC/yawKTrxke++b3/DGSjW92wzl7YpOvOz3XreLnaoRzK3oxEu1tyevII/EO6PYtaF/OY1z2feKL31iQnj602je2rOECEPJ87//hHP3vYJvnxhCnv6U6Ld2MD1llsWv9dWrV81pMQ9KlmU2btzIW2+9ZU6XuX37dqmNsAACAwNxcnIiMjKSb7/9ttQuvNZ2/fp1du/ezYABA5AkiXXr1pGammq+AqFSqejUqRO9e/emT58+JCcnc/nyZZuNRxAE4VGnUhVfai5vwz+FQoFKpUKpVKJUKs2fl/ydayr0oFar77tpNBo0Gk2pNhV9rZ2dHc2bN6+tb4PwEInqPTWlzyVbcsDNwcKUIGMhhUZ77B/gzy25sIAiewfsLWmsyyVX4YSzxtbfRz252RIObg5VpASZGCksNGL/YCdOQZE9DpadOLm5CpycNbbbj+EBXuulS5dy8+bNGh3Oy8uLSZMmodVqOXbsGAcPHiz1y9rDw4ORI0cCxWlBq1atqtHxLDFq1Cgee+yxKtsVFRWxYMGCB05vEgRBqIhpplqhUNhsc72SM+Elb+UF32UD7bLBtCnoLvnRdHNycsLd3b1UMF7yc0GwBRH0C4KV3bp1i6ioKKv01a5dOyIiIixqu3XrVk6cOGGV41ZEq9UyefJkmjRpYn7MtLutaRMwe/viv9LS0tKIiooqd0dfQRDqjpKpHyVTQKB0GkhRUREAdnZ2pWaly5YELrnZn6m/srPWpptSqSx3xlqlUt0XLJcMjPPy8sjJybmvjVqtRqvVmj9qNJpSH+3s7NBqtWi1WpRKUctEaFhE0C8IVrZ69epS5SxrauDAgYSFhZnv5+XlmYNsSZLMAbjBYGDp0qUkJlpQ2rUGPDw8+MMf/gDA8ePH2bZtW6nnXVxcmD59Og4ODg/tCoQg1HXlBdayLCNJErIsm4Nfk7KBdNn0D1MAXTaQLjkLXVEKSNkZ6MpSP0o+du/ePezs7MwBeHkz1GXvi8BaEOoOEfQ3MPoDbxM68Du6r09i6RBRXtHa0tPTmTdvnlX7VCqVjB8/nsDAQNLT01m0aBF6vb7Um2tkZCQBAQEAzJ4926K9AWqibdu2REZGmn9eCwoKzGMp+ya/c+dODh8+bNPxCIItPIzAWpZljhw5wlNPPYWHh4dFgbRI/xAEoTpE0N/gSJz6a2/md9vLYhH0W90PP/zAmTNnrN6vk5MTU6ZMwc3Nrcq2CQkJLF26tNQldlvo27cvvXr1qrKd0Whk+fLl3Lhxw6bjEWpX2Vns8tJEyqaEmD6aUkLKLmSsKOguGwyXDbpLBtqyLJObm1vhIseSqR9ubm54eXmJwFoQhHpJBP0NTnHQP7dxJIULPyZu8AoOz+lN2ncTCJ+xiptNw5m9aQVt5jRj4N7pHIsfzLc+/dg1aSmR309mfutXCL+xD49vL/BFdwvLDzUQ2dnZzJkzx2bBtq+vL5MnT77vcVNOfcnUgGPHjrF9+3abjMNEoVAwefJkfHx8AJg/fz65ubmlSnmGh4fz5JNPkpeXZ/PSovVV2bQQKL3Y0JRnbUoPKRlcV5UiUtECRUtmssvOZldVIcTSGWzTffFeIAiCYF2iZGeDpCel6GmW/zSHPw2N5mzCTWYte5x1KTm4bptEj0mL2XfoZ95/dgNo+/DNznfp/0Mo//jxb/z8vh+fxS3CW0yC3efIkSM2nV1PSkpi69atPP/88wCsWbOG+Pj4Usds3bo1Y8aMoUuXLiQlJdV4c67KyLLMsmXLmDJlCu7u7nTq1Om+/P6tW7fStGlTfHx8eOKJJ/j5559tNp6aqCqwNrE0mLZkhrqiSh/lzVaXFyCbPs/IyMDV1bXSthXdFwRBEBoO8Vu/QdLQvEMHmnlDC6eD5P9yjMttxvGYqzPqEVMY8sFKbhp7lvuVdv7N8RQB/33y8/M5cuSIzY9z4sQJvL296dy5M3379r1vwfCVK1fYt28fffr0oV27djYN+gEKCwtZs2YN3bt3Z/fu3fc9b9rRt3Xr1pw8ebLSvkyBaHUC6/JqWJdN/6hqlrqywLqyALrscyItRBAEQaiLRNDfoCmK/7Voh9eWuax4uxMR+mNcbtOVUJWW/fk3uJ6ehXPsZfJre6h1XE1r8j+I7du3YzQa2b9/P+Vl5+3bt4979+6Z1xao1Wqbbtzl4+ODWq0mIiKi0sC4d+/e5vuZmZmkpqZWK6hWq9WiIoggCIIgPCCR09/A6I++S+gzs7mieZ7XI06y9H+3aTJpEztDF/HCu9vICBzNvB+XMiHYwOEPuhK+KoiZf/Hl0xnraOaRzinnrvzp0+18+lLj2j6VOsVoNLJs2TISExNxcnKqNJDV6XS4uLg8UH7zg+RFl1flQ6fTERUVxe3bt1EqlWi1Wov7repYt27dYvDgwTRq1KiWXwVBEARBECoign5BeMgSExPx9/d/6MfNyMhg4cKFhISE8NJLL1mt35iYGOLj43n99dfRaDRW61cQBEEQBOsR18gFoYHw8PAgIiLCnOpT3t/7eXl5pe7fvn271P2yZTePHDlCYmIiKSkpbN261cojFgRBEATBWupUTn9mZmZtD0EQbK6goKDWjh0cHExSUhIzZ840V/0JCwtj4MCBGAwGVq9ejZeXF+Hh4RiNRnbs2IGjoyMjRoxAlmWOHj3K4cOHGT16NAqFgpSUFK5duwZAbGwsvr6+PP3007V2foIgCIIglE/10UcffVTbgzDJzxfLRYX6z9HREUdHx1o7fosWLUhKSiIjIwMoTjfy9PTE29ub1q1bs3PnTuzt7fH19SU4OJiYmBhkWSYgIIDg4GAOHDhAQUEBgYGBtGrVisuXL5t3AL527RpBQUEWbSImCIIgCMLDU6dy+gVBeDgKCwtZuHCh+eqaRqNh0qRJNG3alISEBFasWMErr7yCn58fKSkpLFmyhNGjRxMYGEh6ejpRUVFEREQQHBxMVlYWCxcuNF/BcHZ2ZurUqbi4uNTmKQqCIAiCUEKdmukXBOHhUKvVBAUFERsbi9FoxGg0cu3aNTp06ICnpyf29vZs376d9u3b4+HhQaNGjdixYwcdO3bE1dWVli1bsmvXLjp16oSDgwNPPfUUt27dwsPDAzc3N65evUpISIgorSkIgiAIdYSY6ReEBiwuLo5169bRvn17evTogZeXl1X6Ne3MO2TIEKv0JwiCIAhCzdSphbyCIDxcoaGhhIWFIUnSAwf8hYWFGAwGnJycyM7ORqfTYTAYkCSJ/Px8Lly4gI+PD08++aSNRi8IgiAIgqXETL8gNHBGo5ENGzaQm5uLwWAw3yRJKve+qeqPJVQqFRMnTsTHx8eGZyAIgiAIQlVE0C8IAnl5eSxcuJDs7Gyr9+3m5sbUqVNrtWKRIAiCIDR0YpWdIAg4OTkRGRmJSqWyet/Z2dmsX7/+ga4QCIIgCIJgXSLoFwQBAB8fH1544QWb9H39+nX27Nljk74FQRAEQaiaSO8RBEEQBEEQhHpOzPQLgiAIgiAIQj0ngn5BEARBEARBqOdE0C8IgiAIgiAI9ZwI+gVBEARBEAShnvv//44w8VW6TAQAAAAASUVORK5CYII=;" vertex="1" parent="1">
          <mxGeometry x="-236" y="93" width="479.13" height="238" as="geometry" />
        </mxCell>
        <mxCell id="eCCthRVSD1cBOZ0yslOO-2" value="&lt;font style=&quot;font-size: 18px;&quot;&gt;地理属性&lt;/font&gt;" style="text;html=1;strokeColor=none;fillColor=none;align=center;verticalAlign=middle;whiteSpace=wrap;rounded=0;" vertex="1" parent="1">
          <mxGeometry x="-219.5" y="367" width="107" height="30" as="geometry" />
        </mxCell>
        <mxCell id="eCCthRVSD1cBOZ0yslOO-3" value="&lt;font style=&quot;font-size: 18px;&quot;&gt;地理节点&lt;/font&gt;" style="text;html=1;strokeColor=none;fillColor=none;align=center;verticalAlign=middle;whiteSpace=wrap;rounded=0;" vertex="1" parent="1">
          <mxGeometry x="158" y="367" width="107" height="30" as="geometry" />
        </mxCell>
        <mxCell id="eCCthRVSD1cBOZ0yslOO-4" value="&lt;span style=&quot;font-size: 18px;&quot;&gt;事故&lt;/span&gt;" style="text;html=1;strokeColor=none;fillColor=none;align=center;verticalAlign=middle;whiteSpace=wrap;rounded=0;" vertex="1" parent="1">
          <mxGeometry x="536" y="367" width="107" height="30" as="geometry" />
        </mxCell>
        <mxCell id="eCCthRVSD1cBOZ0yslOO-5" value="&lt;font style=&quot;font-size: 18px;&quot;&gt;事故属性&lt;/font&gt;" style="text;html=1;strokeColor=none;fillColor=none;align=center;verticalAlign=middle;whiteSpace=wrap;rounded=0;" vertex="1" parent="1">
          <mxGeometry x="741" y="367" width="107" height="30" as="geometry" />
        </mxCell>
        <mxCell id="eCCthRVSD1cBOZ0yslOO-51" style="rounded=0;orthogonalLoop=1;jettySize=auto;html=1;entryX=0.16;entryY=0.55;entryDx=0;entryDy=0;entryPerimeter=0;" edge="1" parent="1" source="eCCthRVSD1cBOZ0yslOO-6" target="eCCthRVSD1cBOZ0yslOO-48">
          <mxGeometry relative="1" as="geometry" />
        </mxCell>
        <mxCell id="eCCthRVSD1cBOZ0yslOO-52" value="&lt;font style=&quot;font-size: 15px;&quot;&gt;20180701&lt;/font&gt;" style="edgeLabel;html=1;align=center;verticalAlign=middle;resizable=0;points=[];" vertex="1" connectable="0" parent="eCCthRVSD1cBOZ0yslOO-51">
          <mxGeometry x="0.1511" relative="1" as="geometry">
            <mxPoint as="offset" />
          </mxGeometry>
        </mxCell>
        <mxCell id="eCCthRVSD1cBOZ0yslOO-53" style="rounded=0;orthogonalLoop=1;jettySize=auto;html=1;entryX=0.13;entryY=0.77;entryDx=0;entryDy=0;entryPerimeter=0;" edge="1" parent="1" source="eCCthRVSD1cBOZ0yslOO-6" target="eCCthRVSD1cBOZ0yslOO-49">
          <mxGeometry relative="1" as="geometry" />
        </mxCell>
        <mxCell id="eCCthRVSD1cBOZ0yslOO-54" value="&lt;font style=&quot;font-size: 14px;&quot;&gt;20190102&lt;/font&gt;" style="edgeLabel;html=1;align=center;verticalAlign=middle;resizable=0;points=[];rotation=15;" vertex="1" connectable="0" parent="eCCthRVSD1cBOZ0yslOO-53">
          <mxGeometry x="0.09" relative="1" as="geometry">
            <mxPoint as="offset" />
          </mxGeometry>
        </mxCell>
        <mxCell id="eCCthRVSD1cBOZ0yslOO-6" value="1" style="ellipse;whiteSpace=wrap;html=1;aspect=fixed;fillColor=#ffe6cc;strokeColor=none;" vertex="1" parent="1">
          <mxGeometry x="195" y="436.5" width="30" height="30" as="geometry" />
        </mxCell>
        <mxCell id="eCCthRVSD1cBOZ0yslOO-55" style="rounded=0;orthogonalLoop=1;jettySize=auto;html=1;entryX=0.16;entryY=0.55;entryDx=0;entryDy=0;entryPerimeter=0;" edge="1" parent="1" source="eCCthRVSD1cBOZ0yslOO-7" target="eCCthRVSD1cBOZ0yslOO-50">
          <mxGeometry relative="1" as="geometry" />
        </mxCell>
        <mxCell id="eCCthRVSD1cBOZ0yslOO-56" value="&lt;font style=&quot;font-size: 14px;&quot;&gt;20170809&lt;/font&gt;" style="edgeLabel;html=1;align=center;verticalAlign=middle;resizable=0;points=[];rotation=20;" vertex="1" connectable="0" parent="eCCthRVSD1cBOZ0yslOO-55">
          <mxGeometry x="-0.1611" y="2" relative="1" as="geometry">
            <mxPoint x="-45" y="-16" as="offset" />
          </mxGeometry>
        </mxCell>
        <mxCell id="eCCthRVSD1cBOZ0yslOO-7" value="2" style="ellipse;whiteSpace=wrap;html=1;aspect=fixed;fillColor=#ffe6cc;strokeColor=none;" vertex="1" parent="1">
          <mxGeometry x="199.5" y="575" width="30" height="30" as="geometry" />
        </mxCell>
        <mxCell id="eCCthRVSD1cBOZ0yslOO-57" style="rounded=0;orthogonalLoop=1;jettySize=auto;html=1;entryX=0.13;entryY=0.77;entryDx=0;entryDy=0;entryPerimeter=0;" edge="1" parent="1" source="eCCthRVSD1cBOZ0yslOO-8" target="eCCthRVSD1cBOZ0yslOO-49">
          <mxGeometry relative="1" as="geometry" />
        </mxCell>
        <mxCell id="eCCthRVSD1cBOZ0yslOO-58" value="&lt;font style=&quot;font-size: 14px;&quot;&gt;20180812&lt;/font&gt;" style="edgeLabel;html=1;align=center;verticalAlign=middle;resizable=0;points=[];rotation=-20;" vertex="1" connectable="0" parent="eCCthRVSD1cBOZ0yslOO-57">
          <mxGeometry x="-0.5786" y="2" relative="1" as="geometry">
            <mxPoint as="offset" />
          </mxGeometry>
        </mxCell>
        <mxCell id="eCCthRVSD1cBOZ0yslOO-8" value="3" style="ellipse;whiteSpace=wrap;html=1;aspect=fixed;fillColor=#ffe6cc;strokeColor=none;" vertex="1" parent="1">
          <mxGeometry x="199.5" y="709" width="30" height="30" as="geometry" />
        </mxCell>
        <mxCell id="eCCthRVSD1cBOZ0yslOO-36" style="edgeStyle=orthogonalEdgeStyle;rounded=0;orthogonalLoop=1;jettySize=auto;html=1;entryX=0;entryY=0.5;entryDx=0;entryDy=0;" edge="1" parent="1" source="eCCthRVSD1cBOZ0yslOO-10" target="eCCthRVSD1cBOZ0yslOO-6">
          <mxGeometry relative="1" as="geometry" />
        </mxCell>
        <mxCell id="eCCthRVSD1cBOZ0yslOO-37" style="edgeStyle=orthogonalEdgeStyle;rounded=0;orthogonalLoop=1;jettySize=auto;html=1;entryX=0;entryY=0.5;entryDx=0;entryDy=0;" edge="1" parent="1" source="eCCthRVSD1cBOZ0yslOO-10" target="eCCthRVSD1cBOZ0yslOO-7">
          <mxGeometry relative="1" as="geometry">
            <Array as="points">
              <mxPoint x="50" y="513" />
              <mxPoint x="50" y="590" />
            </Array>
          </mxGeometry>
        </mxCell>
        <mxCell id="eCCthRVSD1cBOZ0yslOO-38" style="edgeStyle=orthogonalEdgeStyle;rounded=0;orthogonalLoop=1;jettySize=auto;html=1;entryX=0;entryY=0.5;entryDx=0;entryDy=0;strokeColor=#000000;" edge="1" parent="1" source="eCCthRVSD1cBOZ0yslOO-10" target="eCCthRVSD1cBOZ0yslOO-8">
          <mxGeometry relative="1" as="geometry">
            <Array as="points">
              <mxPoint x="49" y="513" />
              <mxPoint x="49" y="724" />
            </Array>
          </mxGeometry>
        </mxCell>
        <mxCell id="eCCthRVSD1cBOZ0yslOO-43" value="&lt;font style=&quot;font-size: 13px;&quot;&gt;for all nodes&lt;/font&gt;" style="edgeLabel;html=1;align=center;verticalAlign=middle;resizable=0;points=[];" vertex="1" connectable="0" parent="eCCthRVSD1cBOZ0yslOO-38">
          <mxGeometry x="-0.7974" y="-2" relative="1" as="geometry">
            <mxPoint x="19" y="-2" as="offset" />
          </mxGeometry>
        </mxCell>
        <mxCell id="eCCthRVSD1cBOZ0yslOO-10" value="静态属性" style="swimlane;fontStyle=0;childLayout=stackLayout;horizontal=1;startSize=30;horizontalStack=0;resizeParent=1;resizeParentMax=0;resizeLast=0;collapsible=1;marginBottom=0;whiteSpace=wrap;html=1;fillColor=#dae8fc;strokeColor=#7EA6E0;" vertex="1" parent="1">
          <mxGeometry x="-236" y="438" width="140" height="150" as="geometry" />
        </mxCell>
        <mxCell id="eCCthRVSD1cBOZ0yslOO-11" value="人口统计数据" style="text;strokeColor=none;fillColor=none;align=left;verticalAlign=middle;spacingLeft=4;spacingRight=4;overflow=hidden;points=[[0,0.5],[1,0.5]];portConstraint=eastwest;rotatable=0;whiteSpace=wrap;html=1;" vertex="1" parent="eCCthRVSD1cBOZ0yslOO-10">
          <mxGeometry y="30" width="140" height="30" as="geometry" />
        </mxCell>
        <mxCell id="eCCthRVSD1cBOZ0yslOO-12" value="POI数据" style="text;strokeColor=none;fillColor=none;align=left;verticalAlign=middle;spacingLeft=4;spacingRight=4;overflow=hidden;points=[[0,0.5],[1,0.5]];portConstraint=eastwest;rotatable=0;whiteSpace=wrap;html=1;" vertex="1" parent="eCCthRVSD1cBOZ0yslOO-10">
          <mxGeometry y="60" width="140" height="30" as="geometry" />
        </mxCell>
        <mxCell id="eCCthRVSD1cBOZ0yslOO-13" value="路网结构" style="text;strokeColor=none;fillColor=none;align=left;verticalAlign=middle;spacingLeft=4;spacingRight=4;overflow=hidden;points=[[0,0.5],[1,0.5]];portConstraint=eastwest;rotatable=0;whiteSpace=wrap;html=1;" vertex="1" parent="eCCthRVSD1cBOZ0yslOO-10">
          <mxGeometry y="90" width="140" height="30" as="geometry" />
        </mxCell>
        <mxCell id="eCCthRVSD1cBOZ0yslOO-15" value="......." style="text;strokeColor=none;fillColor=none;align=left;verticalAlign=middle;spacingLeft=4;spacingRight=4;overflow=hidden;points=[[0,0.5],[1,0.5]];portConstraint=eastwest;rotatable=0;whiteSpace=wrap;html=1;" vertex="1" parent="eCCthRVSD1cBOZ0yslOO-10">
          <mxGeometry y="120" width="140" height="30" as="geometry" />
        </mxCell>
        <mxCell id="eCCthRVSD1cBOZ0yslOO-40" style="edgeStyle=orthogonalEdgeStyle;rounded=0;orthogonalLoop=1;jettySize=auto;html=1;entryX=0;entryY=0.5;entryDx=0;entryDy=0;" edge="1" parent="1" source="eCCthRVSD1cBOZ0yslOO-24" target="eCCthRVSD1cBOZ0yslOO-6">
          <mxGeometry relative="1" as="geometry">
            <Array as="points">
              <mxPoint x="50" y="689" />
              <mxPoint x="50" y="452" />
            </Array>
          </mxGeometry>
        </mxCell>
        <mxCell id="eCCthRVSD1cBOZ0yslOO-41" style="edgeStyle=orthogonalEdgeStyle;rounded=0;orthogonalLoop=1;jettySize=auto;html=1;entryX=0;entryY=0.5;entryDx=0;entryDy=0;" edge="1" parent="1" source="eCCthRVSD1cBOZ0yslOO-24" target="eCCthRVSD1cBOZ0yslOO-7">
          <mxGeometry relative="1" as="geometry">
            <Array as="points">
              <mxPoint x="50" y="689" />
              <mxPoint x="50" y="590" />
            </Array>
          </mxGeometry>
        </mxCell>
        <mxCell id="eCCthRVSD1cBOZ0yslOO-42" style="edgeStyle=orthogonalEdgeStyle;rounded=0;orthogonalLoop=1;jettySize=auto;html=1;entryX=0;entryY=0.5;entryDx=0;entryDy=0;strokeColor=#000000;" edge="1" parent="1" source="eCCthRVSD1cBOZ0yslOO-24" target="eCCthRVSD1cBOZ0yslOO-8">
          <mxGeometry relative="1" as="geometry">
            <Array as="points">
              <mxPoint x="50" y="689" />
              <mxPoint x="50" y="724" />
            </Array>
          </mxGeometry>
        </mxCell>
        <mxCell id="eCCthRVSD1cBOZ0yslOO-44" value="&lt;font style=&quot;font-size: 13px;&quot;&gt;for individual nodes&lt;/font&gt;" style="edgeLabel;html=1;align=center;verticalAlign=middle;resizable=0;points=[];" vertex="1" connectable="0" parent="eCCthRVSD1cBOZ0yslOO-42">
          <mxGeometry x="-0.7374" y="3" relative="1" as="geometry">
            <mxPoint x="31" y="3" as="offset" />
          </mxGeometry>
        </mxCell>
        <mxCell id="eCCthRVSD1cBOZ0yslOO-24" value="动态属性" style="swimlane;fontStyle=0;childLayout=stackLayout;horizontal=1;startSize=30;horizontalStack=0;resizeParent=1;resizeParentMax=0;resizeLast=0;collapsible=1;marginBottom=0;whiteSpace=wrap;html=1;fillColor=#d5e8d4;strokeColor=#82b366;" vertex="1" parent="1">
          <mxGeometry x="-236" y="614" width="140" height="150" as="geometry" />
        </mxCell>
        <mxCell id="eCCthRVSD1cBOZ0yslOO-25" value="交通流量" style="text;strokeColor=none;fillColor=none;align=left;verticalAlign=middle;spacingLeft=4;spacingRight=4;overflow=hidden;points=[[0,0.5],[1,0.5]];portConstraint=eastwest;rotatable=0;whiteSpace=wrap;html=1;" vertex="1" parent="eCCthRVSD1cBOZ0yslOO-24">
          <mxGeometry y="30" width="140" height="30" as="geometry" />
        </mxCell>
        <mxCell id="eCCthRVSD1cBOZ0yslOO-26" value="交通速度" style="text;strokeColor=none;fillColor=none;align=left;verticalAlign=middle;spacingLeft=4;spacingRight=4;overflow=hidden;points=[[0,0.5],[1,0.5]];portConstraint=eastwest;rotatable=0;whiteSpace=wrap;html=1;" vertex="1" parent="eCCthRVSD1cBOZ0yslOO-24">
          <mxGeometry y="60" width="140" height="30" as="geometry" />
        </mxCell>
        <mxCell id="eCCthRVSD1cBOZ0yslOO-27" value="日历信息" style="text;strokeColor=none;fillColor=none;align=left;verticalAlign=middle;spacingLeft=4;spacingRight=4;overflow=hidden;points=[[0,0.5],[1,0.5]];portConstraint=eastwest;rotatable=0;whiteSpace=wrap;html=1;" vertex="1" parent="eCCthRVSD1cBOZ0yslOO-24">
          <mxGeometry y="90" width="140" height="30" as="geometry" />
        </mxCell>
        <mxCell id="eCCthRVSD1cBOZ0yslOO-28" value="......." style="text;strokeColor=none;fillColor=none;align=left;verticalAlign=middle;spacingLeft=4;spacingRight=4;overflow=hidden;points=[[0,0.5],[1,0.5]];portConstraint=eastwest;rotatable=0;whiteSpace=wrap;html=1;" vertex="1" parent="eCCthRVSD1cBOZ0yslOO-24">
          <mxGeometry y="120" width="140" height="30" as="geometry" />
        </mxCell>
        <mxCell id="eCCthRVSD1cBOZ0yslOO-48" value="&lt;font style=&quot;font-size: 16px;&quot;&gt;S1&lt;/font&gt;" style="ellipse;shape=cloud;whiteSpace=wrap;html=1;fillColor=#f8cecc;strokeColor=#b85450;" vertex="1" parent="1">
          <mxGeometry x="561" y="433.5" width="57" height="39" as="geometry" />
        </mxCell>
        <mxCell id="eCCthRVSD1cBOZ0yslOO-49" value="&lt;font style=&quot;font-size: 16px;&quot;&gt;S2&lt;/font&gt;" style="ellipse;shape=cloud;whiteSpace=wrap;html=1;fillColor=#f8cecc;strokeColor=#b85450;" vertex="1" parent="1">
          <mxGeometry x="561" y="567.5" width="57" height="39" as="geometry" />
        </mxCell>
        <mxCell id="eCCthRVSD1cBOZ0yslOO-50" value="&lt;font style=&quot;font-size: 16px;&quot;&gt;S3&lt;/font&gt;" style="ellipse;shape=cloud;whiteSpace=wrap;html=1;fillColor=#f8cecc;strokeColor=#b85450;" vertex="1" parent="1">
          <mxGeometry x="561" y="701.5" width="57" height="39" as="geometry" />
        </mxCell>
        <mxCell id="eCCthRVSD1cBOZ0yslOO-64" value="类别：....." style="text;strokeColor=none;fillColor=#f8cecc;align=left;verticalAlign=middle;spacingLeft=4;spacingRight=4;overflow=hidden;points=[[0,0.5],[1,0.5]];portConstraint=eastwest;rotatable=0;whiteSpace=wrap;html=1;" vertex="1" parent="1">
          <mxGeometry x="729" y="408" width="135" height="30" as="geometry" />
        </mxCell>
        <mxCell id="eCCthRVSD1cBOZ0yslOO-65" value="危险程度：....." style="text;strokeColor=none;fillColor=#f8cecc;align=left;verticalAlign=middle;spacingLeft=4;spacingRight=4;overflow=hidden;points=[[0,0.5],[1,0.5]];portConstraint=eastwest;rotatable=0;whiteSpace=wrap;html=1;" vertex="1" parent="1">
          <mxGeometry x="729" y="438" width="135" height="30" as="geometry" />
        </mxCell>
        <mxCell id="eCCthRVSD1cBOZ0yslOO-66" value="天气类别：....." style="text;strokeColor=none;fillColor=#f8cecc;align=left;verticalAlign=middle;spacingLeft=4;spacingRight=4;overflow=hidden;points=[[0,0.5],[1,0.5]];portConstraint=eastwest;rotatable=0;whiteSpace=wrap;html=1;" vertex="1" parent="1">
          <mxGeometry x="729" y="468" width="135" height="30" as="geometry" />
        </mxCell>
        <mxCell id="eCCthRVSD1cBOZ0yslOO-67" value="类别：....." style="text;strokeColor=none;fillColor=#f8cecc;align=left;verticalAlign=middle;spacingLeft=4;spacingRight=4;overflow=hidden;points=[[0,0.5],[1,0.5]];portConstraint=eastwest;rotatable=0;whiteSpace=wrap;html=1;" vertex="1" parent="1">
          <mxGeometry x="727" y="542.75" width="135" height="30" as="geometry" />
        </mxCell>
        <mxCell id="eCCthRVSD1cBOZ0yslOO-68" value="危险程度：....." style="text;strokeColor=none;fillColor=#f8cecc;align=left;verticalAlign=middle;spacingLeft=4;spacingRight=4;overflow=hidden;points=[[0,0.5],[1,0.5]];portConstraint=eastwest;rotatable=0;whiteSpace=wrap;html=1;" vertex="1" parent="1">
          <mxGeometry x="727" y="572.75" width="135" height="30" as="geometry" />
        </mxCell>
        <mxCell id="eCCthRVSD1cBOZ0yslOO-69" value="天气类别：....." style="text;strokeColor=none;fillColor=#f8cecc;align=left;verticalAlign=middle;spacingLeft=4;spacingRight=4;overflow=hidden;points=[[0,0.5],[1,0.5]];portConstraint=eastwest;rotatable=0;whiteSpace=wrap;html=1;" vertex="1" parent="1">
          <mxGeometry x="727" y="602.75" width="135" height="30" as="geometry" />
        </mxCell>
        <mxCell id="eCCthRVSD1cBOZ0yslOO-70" value="类别：....." style="text;strokeColor=none;fillColor=#f8cecc;align=left;verticalAlign=middle;spacingLeft=4;spacingRight=4;overflow=hidden;points=[[0,0.5],[1,0.5]];portConstraint=eastwest;rotatable=0;whiteSpace=wrap;html=1;" vertex="1" parent="1">
          <mxGeometry x="727" y="676.75" width="135" height="30" as="geometry" />
        </mxCell>
        <mxCell id="eCCthRVSD1cBOZ0yslOO-71" value="危险程度：....." style="text;strokeColor=none;fillColor=#f8cecc;align=left;verticalAlign=middle;spacingLeft=4;spacingRight=4;overflow=hidden;points=[[0,0.5],[1,0.5]];portConstraint=eastwest;rotatable=0;whiteSpace=wrap;html=1;" vertex="1" parent="1">
          <mxGeometry x="727" y="706.75" width="135" height="30" as="geometry" />
        </mxCell>
        <mxCell id="eCCthRVSD1cBOZ0yslOO-72" value="天气类别：....." style="text;strokeColor=none;fillColor=#f8cecc;align=left;verticalAlign=middle;spacingLeft=4;spacingRight=4;overflow=hidden;points=[[0,0.5],[1,0.5]];portConstraint=eastwest;rotatable=0;whiteSpace=wrap;html=1;" vertex="1" parent="1">
          <mxGeometry x="727" y="736.75" width="135" height="30" as="geometry" />
        </mxCell>
        <mxCell id="eCCthRVSD1cBOZ0yslOO-74" value="1" style="ellipse;whiteSpace=wrap;html=1;aspect=fixed;fillColor=#ffe6cc;strokeColor=none;" vertex="1" parent="1">
          <mxGeometry x="339.5" y="197" width="30" height="30" as="geometry" />
        </mxCell>
        <mxCell id="eCCthRVSD1cBOZ0yslOO-77" value="&lt;font style=&quot;font-size: 14px;&quot;&gt;地理节点1&lt;/font&gt;" style="text;html=1;strokeColor=none;fillColor=none;align=center;verticalAlign=middle;whiteSpace=wrap;rounded=0;" vertex="1" parent="1">
          <mxGeometry x="320" y="238" width="69" height="30" as="geometry" />
        </mxCell>
        <mxCell id="eCCthRVSD1cBOZ0yslOO-78" value="&lt;font style=&quot;font-size: 16px;&quot;&gt;S1&lt;/font&gt;" style="ellipse;shape=cloud;whiteSpace=wrap;html=1;fillColor=#f8cecc;strokeColor=#b85450;" vertex="1" parent="1">
          <mxGeometry x="419" y="188" width="57" height="39" as="geometry" />
        </mxCell>
        <mxCell id="eCCthRVSD1cBOZ0yslOO-79" value="&lt;font style=&quot;font-size: 16px;&quot;&gt;S2&lt;/font&gt;" style="ellipse;shape=cloud;whiteSpace=wrap;html=1;fillColor=#f8cecc;strokeColor=#b85450;" vertex="1" parent="1">
          <mxGeometry x="534" y="188" width="57" height="39" as="geometry" />
        </mxCell>
        <mxCell id="eCCthRVSD1cBOZ0yslOO-80" value="&lt;font style=&quot;font-size: 16px;&quot;&gt;......&lt;/font&gt;" style="ellipse;shape=cloud;whiteSpace=wrap;html=1;fillColor=#f8cecc;strokeColor=#b85450;" vertex="1" parent="1">
          <mxGeometry x="649" y="188" width="57" height="39" as="geometry" />
        </mxCell>
        <mxCell id="eCCthRVSD1cBOZ0yslOO-81" value="&lt;font style=&quot;font-size: 14px;&quot;&gt;20180701&lt;/font&gt;" style="text;html=1;strokeColor=none;fillColor=none;align=center;verticalAlign=middle;whiteSpace=wrap;rounded=0;" vertex="1" parent="1">
          <mxGeometry x="413" y="242" width="69" height="30" as="geometry" />
        </mxCell>
        <mxCell id="eCCthRVSD1cBOZ0yslOO-82" value="&lt;font style=&quot;font-size: 14px;&quot;&gt;20190102&lt;/font&gt;" style="text;html=1;strokeColor=none;fillColor=none;align=center;verticalAlign=middle;whiteSpace=wrap;rounded=0;" vertex="1" parent="1">
          <mxGeometry x="528" y="242" width="69" height="30" as="geometry" />
        </mxCell>
        <mxCell id="eCCthRVSD1cBOZ0yslOO-83" value="&lt;font style=&quot;font-size: 14px;&quot;&gt;.......&lt;/font&gt;" style="text;html=1;strokeColor=none;fillColor=none;align=center;verticalAlign=middle;whiteSpace=wrap;rounded=0;" vertex="1" parent="1">
          <mxGeometry x="643" y="238" width="69" height="30" as="geometry" />
        </mxCell>
        <mxCell id="eCCthRVSD1cBOZ0yslOO-84" value="" style="endArrow=classic;html=1;rounded=0;" edge="1" parent="1">
          <mxGeometry width="50" height="50" relative="1" as="geometry">
            <mxPoint x="404.5" y="238" as="sourcePoint" />
            <mxPoint x="775" y="238" as="targetPoint" />
          </mxGeometry>
        </mxCell>
      </root>
    </mxGraphModel>
  </diagram>
</mxfile>
